AnekBangla-Medium.ufo
<glyph name="dollar" format="2">
	<advance width="1049"/>
	<unicode hex="0024"/>
	<outline>
		<contour>
			<point x="607" y="1195" type="line"/>
			<point x="607" y="1487" type="line"/>
			<point x="433" y="1487" type="line"/>
			<point x="433" y="1195" type="line"/>
		</contour>
		<contour>
			<point x="607" y="-214" type="line"/>
			<point x="607" y="113" type="line"/>
			<point x="433" y="113" type="line"/>
			<point x="433" y="-214" type="line"/>
		</contour>
		<component base="S"/>
	</outline>
</glyph>
<glyph name="percent" format="2">
	<advance width="1516"/>
	<unicode hex="0025"/>
	<outline>
		<contour>
			<point x="273" y="0" type="line"/>
			<point x="459" y="0" type="line"/>
			<point x="1247" y="1278" type="line"/>
			<point x="1061" y="1278" type="line"/>
		</contour>
		<contour>
			<point x="1151" y="-26" type="curve" smooth="yes"/>
			<point x="1335" y="-26"/>
			<point x="1436" y="79"/>
			<point x="1436" y="261" type="curve" smooth="yes"/>
			<point x="1436" y="350" type="line" smooth="yes"/>
			<point x="1436" y="532"/>
			<point x="1335" y="635"/>
			<point x="1151" y="635" type="curve" smooth="yes"/>
			<point x="968" y="635"/>
			<point x="868" y="530"/>
			<point x="868" y="350" type="curve" smooth="yes"/>
			<point x="868" y="261" type="line" smooth="yes"/>
			<point x="868" y="79"/>
			<point x="967" y="-26"/>
		</contour>
		<contour>
			<point x="1151" y="109" type="curve" smooth="yes"/>
			<point x="1071" y="109"/>
			<point x="1027" y="160"/>
			<point x="1027" y="257" type="curve" smooth="yes"/>
			<point x="1027" y="353" type="line" smooth="yes"/>
			<point x="1027" y="450"/>
			<point x="1070" y="501"/>
			<point x="1151" y="501" type="curve" smooth="yes"/>
			<point x="1232" y="501"/>
			<point x="1275" y="450"/>
			<point x="1275" y="353" type="curve" smooth="yes"/>
			<point x="1275" y="257" type="line" smooth="yes"/>
			<point x="1275" y="160"/>
			<point x="1233" y="109"/>
		</contour>
		<contour>
			<point x="362" y="644" type="curve" smooth="yes"/>
			<point x="546" y="644"/>
			<point x="647" y="749"/>
			<point x="647" y="929" type="curve" smooth="yes"/>
			<point x="647" y="1019" type="line" smooth="yes"/>
			<point x="647" y="1199"/>
			<point x="546" y="1303"/>
			<point x="362" y="1303" type="curve" smooth="yes"/>
			<point x="178" y="1303"/>
			<point x="78" y="1199"/>
			<point x="78" y="1019" type="curve" smooth="yes"/>
			<point x="78" y="929" type="line" smooth="yes"/>
			<point x="78" y="748"/>
			<point x="178" y="644"/>
		</contour>
		<contour>
			<point x="362" y="778" type="curve" smooth="yes"/>
			<point x="282" y="778"/>
			<point x="238" y="828"/>
			<point x="238" y="925" type="curve" smooth="yes"/>
			<point x="238" y="1022" type="line" smooth="yes"/>
			<point x="238" y="1118"/>
			<point x="281" y="1170"/>
			<point x="362" y="1170" type="curve" smooth="yes"/>
			<point x="443" y="1170"/>
			<point x="486" y="1118"/>
			<point x="486" y="1022" type="curve" smooth="yes"/>
			<point x="486" y="925" type="line" smooth="yes"/>
			<point x="486" y="828"/>
			<point x="443" y="778"/>
		</contour>
	</outline>
</glyph>
<glyph name="ampersand" format="2">
	<advance width="1280"/>
	<unicode hex="0026"/>
	<outline>
		<contour>
			<point x="1067" y="0" type="curve"/>
			<point x="1298" y="0" type="line"/>
			<point x="1298" y="16" type="line"/>
			<point x="1194" y="124"/>
			<point x="1091" y="228"/>
			<point x="990" y="325" type="curve"/>
			<point x="942" y="377" type="line"/>
			<point x="516" y="783" type="line" smooth="yes"/>
			<point x="439" y="857"/>
			<point x="401" y="913"/>
			<point x="401" y="982" type="curve" smooth="yes"/>
			<point x="401" y="987" type="line" smooth="yes"/>
			<point x="401" y="1075"/>
			<point x="458" y="1128"/>
			<point x="602" y="1128" type="curve" smooth="yes"/>
			<point x="729" y="1128"/>
			<point x="840" y="1092"/>
			<point x="927" y="1049" type="curve"/>
			<point x="908" y="1228" type="line"/>
			<point x="833" y="1267"/>
			<point x="723" y="1302"/>
			<point x="565" y="1302" type="curve" smooth="yes"/>
			<point x="316" y="1302"/>
			<point x="195" y="1186"/>
			<point x="195" y="993" type="curve" smooth="yes"/>
			<point x="195" y="986" type="line" smooth="yes"/>
			<point x="195" y="877"/>
			<point x="235" y="807"/>
			<point x="323" y="716" type="curve"/>
			<point x="352" y="681" type="line"/>
			<point x="819" y="244" type="line"/>
			<point x="844" y="217" type="line"/>
			<point x="882" y="180"/>
			<point x="1025" y="42"/>
		</contour>
		<contour>
			<point x="520" y="-24" type="curve" smooth="yes"/>
			<point x="732" y="-24"/>
			<point x="864" y="53"/>
			<point x="968" y="187" type="curve"/>
			<point x="1022" y="243" type="line"/>
			<point x="1120" y="386"/>
			<point x="1173" y="574"/>
			<point x="1197" y="796" type="curve"/>
			<point x="1005" y="796" type="line"/>
			<point x="990" y="630"/>
			<point x="956" y="486"/>
			<point x="889" y="369" type="curve"/>
			<point x="837" y="304" type="line"/>
			<point x="769" y="200"/>
			<point x="675" y="143"/>
			<point x="538" y="143" type="curve" smooth="yes"/>
			<point x="375" y="143"/>
			<point x="291" y="223"/>
			<point x="291" y="378" type="curve" smooth="yes"/>
			<point x="291" y="408" type="line" smooth="yes"/>
			<point x="291" y="527"/>
			<point x="331" y="595"/>
			<point x="429" y="642" type="curve"/>
			<point x="325" y="780" type="line"/>
			<point x="152" y="688"/>
			<point x="86" y="578"/>
			<point x="86" y="392" type="curve" smooth="yes"/>
			<point x="86" y="360" type="line" smooth="yes"/>
			<point x="86" y="114"/>
			<point x="229" y="-24"/>
		</contour>
	</outline>
</glyph>
<glyph name="parenright" format="2">
  <advance width="599"/>
  <unicode hex="0029"/>
  <outline>
    <contour>
      <point x="280" y="608" type="curve" smooth="yes"/>
      <point x="280" y="501" type="line" smooth="yes"/>
      <point x="280" y="205"/>
      <point x="207" y="-30"/>
      <point x="42" y="-244" type="curve"/>
      <point x="246" y="-244" type="line"/>
      <point x="401" y="-44"/>
      <point x="469" y="185"/>
      <point x="469" y="495" type="curve" smooth="yes"/>
      <point x="469" y="613" type="line" smooth="yes"/>
      <point x="469" y="920"/>
      <point x="398" y="1150"/>
      <point x="244" y="1351" type="curve"/>
      <point x="42" y="1351" type="line"/>
      <point x="207" y="1139"/>
      <point x="280" y="903"/>
    </contour>
  </outline>
</glyph>
<glyph name="plus" format="2">
	<advance width="1004"/>
	<unicode hex="002B"/>
	<outline>
		<contour>
			<point x="586" y="198" type="line"/>
			<point x="586" y="1044" type="line"/>
			<point x="418" y="1044" type="line"/>
			<point x="418" y="198" type="line"/>
		</contour>
		<contour>
			<point x="99" y="542" type="line"/>
			<point x="905" y="542" type="line"/>
			<point x="905" y="700" type="line"/>
			<point x="99" y="700" type="line"/>
		</contour>
	</outline>
</glyph>
<glyph name="hyphen" format="2">
	<advance width="798"/>
	<unicode hex="002D"/>
	<outline>
		<contour>
			<point x="114" y="442" type="line"/>
			<point x="684" y="442" type="line"/>
			<point x="684" y="602" type="line"/>
			<point x="114" y="602" type="line"/>
		</contour>
	</outline>
</glyph>
<glyph name="one" format="2">
	<advance width="685"/>
	<unicode hex="0031"/>
	<outline>
		<contour>
			<point x="346" y="0" type="line"/>
			<point x="546" y="0" type="line"/>
			<point x="546" y="1278" type="line"/>
			<point x="354" y="1278" type="line"/>
			<point x="50" y="1104" type="line"/>
			<point x="45" y="910" type="line"/>
			<point x="332" y="1071" type="line"/>
			<point x="346" y="1071" type="line"/>
		</contour>
	</outline>
</glyph>
<glyph name="nine" format="2">
	<advance width="1096"/>
	<unicode hex="0039"/>
	<outline>
		<contour>
			<point x="531" y="1304" type="curve" smooth="yes"/>
			<point x="238" y="1304"/>
			<point x="85" y="1147"/>
			<point x="85" y="905" type="curve" smooth="yes"/>
			<point x="85" y="838" type="line" smooth="yes"/>
			<point x="85" y="595"/>
			<point x="209" y="452"/>
			<point x="460" y="452" type="curve" smooth="yes"/>
			<point x="649" y="452"/>
			<point x="752" y="545"/>
			<point x="792" y="669" type="curve"/>
			<point x="825" y="669" type="line"/>
			<point x="811" y="841" type="line"/>
			<point x="771" y="699"/>
			<point x="662" y="612"/>
			<point x="521" y="612" type="curve" smooth="yes"/>
			<point x="350" y="612"/>
			<point x="283" y="704"/>
			<point x="283" y="844" type="curve" smooth="yes"/>
			<point x="283" y="902" type="line" smooth="yes"/>
			<point x="283" y="1040"/>
			<point x="362" y="1137"/>
			<point x="527" y="1137" type="curve" smooth="yes"/>
			<point x="716" y="1137"/>
			<point x="802" y="1029"/>
			<point x="802" y="817" type="curve"/>
			<point x="802" y="501" type="line" smooth="yes"/>
			<point x="802" y="268"/>
			<point x="693" y="150"/>
			<point x="460" y="150" type="curve" smooth="yes"/>
			<point x="314" y="150"/>
			<point x="223" y="186"/>
			<point x="138" y="233" type="curve"/>
			<point x="159" y="44" type="line"/>
			<point x="232" y="9"/>
			<point x="335" y="-25"/>
			<point x="483" y="-25" type="curve" smooth="yes"/>
			<point x="827" y="-25"/>
			<point x="1001" y="162"/>
			<point x="1001" y="495" type="curve" smooth="yes"/>
			<point x="1001" y="797" type="line" smooth="yes"/>
			<point x="1001" y="1130"/>
			<point x="842" y="1304"/>
		</contour>
	</outline>
</glyph>
<glyph name="B" format="2">
  <advance width="1173"/>
  <unicode hex="0042"/>
  <anchor x="588" y="0" name="bottom"/>
  <anchor x="588" y="1278" name="top"/>
  <outline>
    <contour>
      <point x="281" y="0" type="line"/>
      <point x="685" y="0" type="line" smooth="yes"/>
      <point x="972" y="0"/>
      <point x="1092" y="125"/>
      <point x="1092" y="344" type="curve" smooth="yes"/>
      <point x="1092" y="382" type="line" smooth="yes"/>
      <point x="1092" y="556"/>
      <point x="1019" y="648"/>
      <point x="850" y="682" type="curve"/>
      <point x="850" y="692" type="line"/>
      <point x="998" y="712"/>
      <point x="1067" y="795"/>
      <point x="1067" y="949" type="curve" smooth="yes"/>
      <point x="1067" y="967" type="line" smooth="yes"/>
      <point x="1067" y="1167"/>
      <point x="953" y="1278"/>
      <point x="672" y="1278" type="curve" smooth="yes"/>
      <point x="277" y="1278" type="line"/>
      <point x="277" y="1114" type="line"/>
      <point x="653" y="1114" type="line" smooth="yes"/>
      <point x="811" y="1114"/>
      <point x="866" y="1048"/>
      <point x="866" y="935" type="curve" smooth="yes"/>
      <point x="866" y="919" type="line" smooth="yes"/>
      <point x="866" y="803"/>
      <point x="807" y="735"/>
      <point x="654" y="735" type="curve" smooth="yes"/>
      <point x="280" y="735" type="line"/>
      <point x="280" y="577" type="line"/>
      <point x="656" y="577" type="line" smooth="yes"/>
      <point x="827" y="577"/>
      <point x="888" y="508"/>
      <point x="888" y="386" type="curve" smooth="yes"/>
      <point x="888" y="355" type="line" smooth="yes"/>
      <point x="888" y="235"/>
      <point x="827" y="165"/>
      <point x="664" y="165" type="curve" smooth="yes"/>
      <point x="281" y="165" type="line"/>
    </contour>
    <contour>
      <point x="142" y="0" type="line"/>
      <point x="340" y="0" type="line"/>
      <point x="340" y="1278" type="line"/>
      <point x="142" y="1278" type="line"/>
    </contour>
  </outline>
</glyph>
<glyph name="C" format="2">
  <advance width="1021"/>
  <unicode hex="0043"/>
  <anchor x="563" y="0" name="bottom"/>
  <anchor x="563" y="1278" name="top"/>
  <outline>
    <contour>
      <point x="586" y="-25" type="curve" smooth="yes"/>
      <point x="740" y="-25"/>
      <point x="857" y="21"/>
      <point x="928" y="68" type="curve"/>
      <point x="944" y="257" type="line"/>
      <point x="864" y="200"/>
      <point x="757" y="155"/>
      <point x="619" y="155" type="curve" smooth="yes"/>
      <point x="408" y="155"/>
      <point x="302" y="283"/>
      <point x="302" y="505" type="curve" smooth="yes"/>
      <point x="302" y="779" type="line" smooth="yes"/>
      <point x="302" y="1001"/>
      <point x="408" y="1128"/>
      <point x="613" y="1128" type="curve" smooth="yes"/>
      <point x="754" y="1128"/>
      <point x="855" y="1081"/>
      <point x="934" y="1028" type="curve"/>
      <point x="918" y="1212" type="line"/>
      <point x="847" y="1258"/>
      <point x="735" y="1303"/>
      <point x="586" y="1303" type="curve" smooth="yes"/>
      <point x="259" y="1303"/>
      <point x="98" y="1115"/>
      <point x="98" y="782" type="curve" smooth="yes"/>
      <point x="98" y="498" type="line" smooth="yes"/>
      <point x="98" y="163"/>
      <point x="259" y="-25"/>
    </contour>
  </outline>
</glyph>
<glyph name="E" format="2">
	<advance width="1055"/>
	<unicode hex="0045"/>
	<anchor x="987" y="0" name="ogonek"/>
	<anchor x="556" y="1278" name="top"/>
	<anchor x="20" y="1278" name="topleft"/>
	<anchor x="556" y="0" name="bottom"/>
	<outline>
		<contour>
			<point x="142" y="0" type="line"/>
			<point x="340" y="0" type="line"/>
			<point x="340" y="1278" type="line"/>
			<point x="142" y="1278" type="line"/>
		</contour>
		<contour>
			<point x="201" y="0" type="line"/>
			<point x="962" y="0" type="line"/>
			<point x="962" y="168" type="line"/>
			<point x="201" y="168" type="line"/>
		</contour>
		<contour>
			<point x="256" y="568" type="line"/>
			<point x="940" y="568" type="line"/>
			<point x="940" y="734" type="line"/>
			<point x="256" y="734" type="line"/>
		</contour>
		<contour>
			<point x="200" y="1111" type="line"/>
			<point x="955" y="1111" type="line"/>
			<point x="955" y="1278" type="line"/>
			<point x="200" y="1278" type="line"/>
		</contour>
	</outline>
</glyph>
<glyph name="F" format="2">
	<advance width="1009"/>
	<unicode hex="0046"/>
	<anchor x="505" y="1278" name="top"/>
	<anchor x="505" y="0" name="bottom"/>
	<outline>
		<contour>
			<point x="142" y="0" type="line"/>
			<point x="342" y="0" type="line"/>
			<point x="342" y="1278" type="line"/>
			<point x="142" y="1278" type="line"/>
		</contour>
		<contour>
			<point x="256" y="514" type="line"/>
			<point x="916" y="514" type="line"/>
			<point x="916" y="682" type="line"/>
			<point x="256" y="682" type="line"/>
		</contour>
		<contour>
			<point x="200" y="1110" type="line"/>
			<point x="931" y="1110" type="line"/>
			<point x="931" y="1278" type="line"/>
			<point x="200" y="1278" type="line"/>
		</contour>
	</outline>
</glyph>
<glyph name="I" format="2">
  <advance width="487"/>
  <unicode hex="0049"/>
  <anchor x="243" y="0" name="bottom"/>
  <anchor x="384" y="0" name="ogonek"/>
  <anchor x="243" y="1278" name="top"/>
  <anchor x="20" y="1278" name="topleft"/>
  <outline>
    <contour>
      <point x="344" y="0" type="line"/>
      <point x="344" y="1278" type="line"/>
      <point x="143" y="1278" type="line"/>
      <point x="143" y="0" type="line"/>
    </contour>
  </outline>
</glyph>
<glyph name="J" format="2">
	<advance width="822"/>
	<unicode hex="004A"/>
	<anchor x="587" y="1278" name="top"/>
	<anchor x="412" y="0" name="bottom"/>
	<outline>
		<contour>
			<point x="307" y="-17" type="curve" smooth="yes"/>
			<point x="583" y="-17"/>
			<point x="689" y="121"/>
			<point x="689" y="382" type="curve" smooth="yes"/>
			<point x="689" y="1278" type="line"/>
			<point x="488" y="1278" type="line"/>
			<point x="488" y="394" type="line" smooth="yes"/>
			<point x="488" y="234"/>
			<point x="434" y="157"/>
			<point x="265" y="157" type="curve" smooth="yes"/>
			<point x="192" y="157"/>
			<point x="122" y="172"/>
			<point x="55" y="201" type="curve"/>
			<point x="70" y="23" type="line"/>
			<point x="137" y="-4"/>
			<point x="222" y="-17"/>
		</contour>
	</outline>
</glyph>
<glyph name="K" format="2">
	<advance width="1149"/>
	<unicode hex="004B"/>
	<anchor x="586" y="1278" name="top"/>
	<anchor x="586" y="0" name="bottom"/>
	<outline>
		<contour>
			<point x="883" y="0" type="line"/>
			<point x="1118" y="0" type="line"/>
			<point x="610" y="687" type="line"/>
			<point x="611" y="639" type="line"/>
			<point x="1105" y="1278" type="line"/>
			<point x="877" y="1278" type="line"/>
			<point x="460" y="733" type="line"/>
			<point x="327" y="733" type="line"/>
			<point x="327" y="574" type="line"/>
			<point x="460" y="574" type="line"/>
		</contour>
		<contour>
			<point x="142" y="0" type="line"/>
			<point x="341" y="0" type="line"/>
			<point x="341" y="1278" type="line"/>
			<point x="142" y="1278" type="line"/>
		</contour>
	</outline>
</glyph>
<glyph name="M" format="2">
	<advance width="1509"/>
	<unicode hex="004D"/>
	<anchor x="755" y="1278" name="top"/>
	<anchor x="755" y="0" name="bottom"/>
	<outline>
		<contour>
			<point x="122" y="0" type="line"/>
			<point x="317" y="0" type="line"/>
			<point x="331" y="510" type="line"/>
			<point x="346" y="1067" type="line"/>
			<point x="362" y="1067" type="line"/>
			<point x="654" y="148" type="line"/>
			<point x="855" y="148" type="line"/>
			<point x="1147" y="1067" type="line"/>
			<point x="1163" y="1067" type="line"/>
			<point x="1177" y="511" type="line"/>
			<point x="1192" y="0" type="line"/>
			<point x="1387" y="0" type="line"/>
			<point x="1341" y="1278" type="line"/>
			<point x="1036" y="1278" type="line"/>
			<point x="761" y="402" type="line"/>
			<point x="748" y="402" type="line"/>
			<point x="473" y="1278" type="line"/>
			<point x="168" y="1278" type="line"/>
		</contour>
	</outline>
</glyph>
<glyph name="N" format="2">
	<advance width="1254"/>
	<unicode hex="004E"/>
	<anchor x="630" y="1278" name="top"/>
	<anchor x="630" y="0" name="bottom"/>
	<outline>
		<contour>
			<point x="442" y="1278" type="line"/>
			<point x="142" y="1278" type="line"/>
			<point x="142" y="0" type="line"/>
			<point x="337" y="0" type="line"/>
			<point x="337" y="497" type="line"/>
			<point x="329" y="1072" type="line"/>
			<point x="341" y="1072" type="line"/>
			<point x="819" y="0" type="line"/>
			<point x="1112" y="0" type="line"/>
			<point x="1112" y="1278" type="line"/>
			<point x="917" y="1278" type="line"/>
			<point x="917" y="770" type="line"/>
			<point x="925" y="218" type="line"/>
			<point x="913" y="218" type="line"/>
		</contour>
	</outline>
</glyph>
<glyph name="Q" format="2">
	<advance width="1216"/>
	<unicode hex="0051"/>
	<anchor x="608" y="1278" name="top"/>
	<anchor x="608" y="0" name="bottom"/>
	<outline>
		<contour>
			<point x="674" y="-26" type="curve" smooth="yes"/>
			<point x="1218" y="-42" type="line"/>
			<point x="1218" y="133" type="line"/>
			<point x="832" y="123" type="line"/>
			<point x="832" y="133" type="line"/>
			<point x="1002" y="163"/>
			<point x="1116" y="278"/>
			<point x="1116" y="531" type="curve" smooth="yes"/>
			<point x="1116" y="780" type="line" smooth="yes"/>
			<point x="1116" y="1116"/>
			<point x="940" y="1304"/>
			<point x="607" y="1304" type="curve" smooth="yes"/>
			<point x="273" y="1304"/>
			<point x="98" y="1116"/>
			<point x="98" y="780" type="curve" smooth="yes"/>
			<point x="98" y="499" type="line" smooth="yes"/>
			<point x="98" y="164"/>
			<point x="273" y="-14"/>
		</contour>
		<contour>
			<point x="662" y="141" type="curve"/>
			<point x="638" y="142" type="line"/>
			<point x="423" y="151"/>
			<point x="302" y="268"/>
			<point x="302" y="491" type="curve" smooth="yes"/>
			<point x="302" y="788" type="line" smooth="yes"/>
			<point x="302" y="1012"/>
			<point x="404" y="1137"/>
			<point x="607" y="1137" type="curve" smooth="yes"/>
			<point x="809" y="1137"/>
			<point x="912" y="1012"/>
			<point x="912" y="788" type="curve" smooth="yes"/>
			<point x="912" y="491" type="line" smooth="yes"/>
			<point x="912" y="272"/>
			<point x="799" y="171"/>
		</contour>
	</outline>
</glyph>
<glyph name="R" format="2">
	<advance width="1163"/>
	<unicode hex="0052"/>
	<anchor x="582" y="1278" name="top"/>
	<anchor x="592" y="0" name="bottom"/>
	<outline>
		<contour>
			<point x="845" y="259" type="curve" smooth="yes"/>
			<point x="879" y="0" type="line"/>
			<point x="1087" y="0" type="line"/>
			<point x="1044" y="281" type="line" smooth="yes"/>
			<point x="1014" y="480"/>
			<point x="963" y="593"/>
			<point x="741" y="609" type="curve"/>
			<point x="825" y="580" type="line"/>
			<point x="825" y="606" type="line"/>
			<point x="998" y="632"/>
			<point x="1066" y="739"/>
			<point x="1066" y="901" type="curve" smooth="yes"/>
			<point x="1066" y="933" type="line" smooth="yes"/>
			<point x="1066" y="1150"/>
			<point x="942" y="1278"/>
			<point x="658" y="1278" type="curve" smooth="yes"/>
			<point x="276" y="1278" type="line"/>
			<point x="276" y="1113" type="line"/>
			<point x="630" y="1113" type="line" smooth="yes"/>
			<point x="797" y="1113"/>
			<point x="863" y="1035"/>
			<point x="863" y="898" type="curve" smooth="yes"/>
			<point x="863" y="870" type="line" smooth="yes"/>
			<point x="863" y="730"/>
			<point x="798" y="647"/>
			<point x="634" y="647" type="curve" smooth="yes"/>
			<point x="280" y="646" type="line"/>
			<point x="280" y="488" type="line"/>
			<point x="613" y="487" type="line" smooth="yes"/>
			<point x="781" y="486"/>
			<point x="826" y="400"/>
		</contour>
		<contour>
			<point x="142" y="0" type="line"/>
			<point x="340" y="0" type="line"/>
			<point x="340" y="516" type="line"/>
			<point x="339" y="591" type="line"/>
			<point x="339" y="1278" type="line"/>
			<point x="142" y="1278" type="line"/>
		</contour>
	</outline>
</glyph>
<glyph name="T" format="2">
	<advance width="1076"/>
	<unicode hex="0054"/>
	<anchor x="538" y="639" name="center"/>
	<anchor x="538" y="0" name="bottom"/>
	<anchor x="538" y="1278" name="top"/>
	<outline>
		<contour>
			<point x="438" y="0" type="line"/>
			<point x="639" y="0" type="line"/>
			<point x="639" y="1243" type="line"/>
			<point x="438" y="1243" type="line"/>
		</contour>
		<contour>
			<point x="62" y="1110" type="line"/>
			<point x="1014" y="1110" type="line"/>
			<point x="1014" y="1278" type="line"/>
			<point x="62" y="1278" type="line"/>
		</contour>
	</outline>
</glyph>
<glyph name="V" format="2">
	<advance width="1157"/>
	<unicode hex="0056"/>
	<anchor x="579" y="1278" name="top"/>
	<anchor x="579" y="0" name="bottom"/>
	<outline>
		<contour>
			<point x="422" y="0" type="line"/>
			<point x="736" y="0" type="line"/>
			<point x="1115" y="1278" type="line"/>
			<point x="905" y="1278" type="line"/>
			<point x="590" y="151" type="line"/>
			<point x="567" y="151" type="line"/>
			<point x="252" y="1278" type="line"/>
			<point x="42" y="1278" type="line"/>
		</contour>
	</outline>
</glyph>
<glyph name="X" format="2">
	<advance width="1147"/>
	<unicode hex="0058"/>
	<anchor x="574" y="1278" name="top"/>
	<anchor x="574" y="0" name="bottom"/>
	<outline>
		<contour>
			<point x="45" y="0" type="line"/>
			<point x="267" y="0" type="line"/>
			<point x="567" y="548" type="line"/>
			<point x="581" y="548" type="line"/>
			<point x="880" y="0" type="line"/>
			<point x="1102" y="0" type="line"/>
			<point x="718" y="685" type="line"/>
			<point x="718" y="640" type="line"/>
			<point x="1093" y="1278" type="line"/>
			<point x="875" y="1278" type="line"/>
			<point x="581" y="765" type="line"/>
			<point x="568" y="765" type="line"/>
			<point x="273" y="1278" type="line"/>
			<point x="55" y="1278" type="line"/>
			<point x="430" y="640" type="line"/>
			<point x="430" y="685" type="line"/>
		</contour>
	</outline>
</glyph>
<glyph name="Y" format="2">
  <advance width="1112"/>
  <unicode hex="0059"/>
  <anchor x="556" y="0" name="bottom"/>
  <anchor x="556" y="1278" name="top"/>
  <anchor x="20" y="1278" name="topleft"/>
  <outline>
    <contour>
      <point x="470" y="372" type="line"/>
      <point x="643" y="372" type="line"/>
      <point x="1082" y="1278" type="line"/>
      <point x="870" y="1278" type="line"/>
      <point x="653" y="813" type="line"/>
      <point x="563" y="602" type="line"/>
      <point x="550" y="602" type="line"/>
      <point x="460" y="813" type="line"/>
      <point x="242" y="1278" type="line"/>
      <point x="30" y="1278" type="line"/>
    </contour>
    <contour>
      <point x="458" y="0" type="line"/>
      <point x="655" y="0" type="line"/>
      <point x="655" y="558" type="line"/>
      <point x="458" y="558" type="line"/>
    </contour>
  </outline>
</glyph>
<glyph name="Z" format="2">
  <advance width="1044"/>
  <unicode hex="005A"/>
  <anchor x="523" y="0" name="bottom"/>
  <anchor x="523" y="639" name="center"/>
  <anchor x="523" y="1278" name="top"/>
  <outline>
    <contour>
      <point x="965" y="169" type="line"/>
      <point x="312" y="169" type="line"/>
      <point x="957" y="1122" type="line"/>
      <point x="957" y="1278" type="line"/>
      <point x="86" y="1278" type="line"/>
      <point x="86" y="1111" type="line"/>
      <point x="725" y="1111" type="line"/>
      <point x="80" y="158" type="line"/>
      <point x="80" y="0" type="line"/>
      <point x="965" y="0" type="line"/>
    </contour>
  </outline>
</glyph>
<glyph name="backslash" format="2">
  <advance width="850"/>
  <unicode hex="005C"/>
  <outline>
    <contour>
      <point x="829" y="-242" type="line"/>
      <point x="202" y="1343" type="line"/>
      <point x="21" y="1343" type="line"/>
      <point x="647" y="-242" type="line"/>
    </contour>
  </outline>
</glyph>
<glyph name="bracketright" format="2">
  <advance width="618"/>
  <unicode hex="005D"/>
  <outline>
    <contour>
      <point x="475" y="-244" type="line"/>
      <point x="475" y="1351" type="line"/>
      <point x="55" y="1351" type="line"/>
      <point x="55" y="1203" type="line"/>
      <point x="293" y="1203" type="line"/>
      <point x="293" y="-96" type="line"/>
      <point x="55" y="-96" type="line"/>
      <point x="55" y="-244" type="line"/>
    </contour>
  </outline>
</glyph>
<glyph name="asciicircum" format="2">
	<advance width="857"/>
	<unicode hex="005E"/>
	<outline>
		<contour>
			<point x="299" y="1278" type="line"/>
			<point x="48" y="612" type="line"/>
			<point x="218" y="612" type="line"/>
			<point x="421" y="1160" type="line"/>
			<point x="435" y="1160" type="line"/>
			<point x="639" y="612" type="line"/>
			<point x="809" y="612" type="line"/>
			<point x="557" y="1278" type="line"/>
		</contour>
	</outline>
</glyph>
<glyph name="grave" format="2">
  <advance width="595"/>
  <unicode hex="0060"/>
  <anchor x="416" y="978" name="_top"/>
  <anchor x="413" y="1333" name="top"/>
  <outline>
    <contour>
      <point x="312" y="1368" type="line"/>
      <point x="96" y="1368" type="line"/>
      <point x="96" y="1365" type="line"/>
      <point x="329" y="1093" type="line"/>
      <point x="501" y="1093" type="line"/>
      <point x="501" y="1096" type="line"/>
    </contour>
  </outline>
</glyph>
<glyph name="d" format="2">
  <advance width="1086"/>
  <unicode hex="0064"/>
  <anchor x="535" y="0" name="bottom"/>
  <anchor x="535" y="490" name="center"/>
  <anchor x="535" y="1324" name="top"/>
  <anchor x="1103" y="1324" name="topright"/>
  <outline>
    <contour>
      <point x="445" y="-22" type="curve" smooth="yes"/>
      <point x="642" y="-22"/>
      <point x="730" y="78"/>
      <point x="763" y="201" type="curve"/>
      <point x="820" y="201" type="line"/>
      <point x="774" y="339" type="line"/>
      <point x="747" y="226"/>
      <point x="654" y="141"/>
      <point x="517" y="141" type="curve" smooth="yes"/>
      <point x="365" y="141"/>
      <point x="284" y="229"/>
      <point x="284" y="396" type="curve" smooth="yes"/>
      <point x="284" y="583" type="line" smooth="yes"/>
      <point x="284" y="753"/>
      <point x="366" y="841"/>
      <point x="517" y="841" type="curve" smooth="yes"/>
      <point x="666" y="841"/>
      <point x="765" y="756"/>
      <point x="771" y="596" type="curve"/>
      <point x="826" y="777" type="line"/>
      <point x="761" y="777" type="line"/>
      <point x="726" y="912"/>
      <point x="627" y="1000"/>
      <point x="453" y="1000" type="curve" smooth="yes"/>
      <point x="211" y="1000"/>
      <point x="87" y="848"/>
      <point x="87" y="564" type="curve" smooth="yes"/>
      <point x="87" y="409" type="line" smooth="yes"/>
      <point x="87" y="128"/>
      <point x="212" y="-22"/>
    </contour>
    <contour>
      <point x="766" y="0" type="line"/>
      <point x="962" y="0" type="line"/>
      <point x="962" y="1324" type="line"/>
      <point x="767" y="1324" type="line"/>
      <point x="767" y="1012" type="line"/>
      <point x="772" y="735" type="line"/>
      <point x="771" y="697" type="line"/>
      <point x="771" y="291" type="line"/>
      <point x="774" y="229" type="line"/>
    </contour>
  </outline>
</glyph>
<glyph name="h" format="2">
	<advance width="1080"/>
	<unicode hex="0068"/>
	<anchor x="541" y="657" name="center"/>
	<anchor x="541" y="0" name="bottom"/>
	<anchor x="222" y="1324" name="top"/>
	<outline>
		<contour>
			<point x="772" y="604" type="curve" smooth="yes"/>
			<point x="772" y="0" type="line"/>
			<point x="968" y="0" type="line"/>
			<point x="968" y="626" type="line" smooth="yes"/>
			<point x="968" y="867"/>
			<point x="873" y="1000"/>
			<point x="644" y="1000" type="curve" smooth="yes"/>
			<point x="456" y="1000"/>
			<point x="358" y="900"/>
			<point x="325" y="777" type="curve"/>
			<point x="276" y="777" type="line"/>
			<point x="315" y="641" type="line"/>
			<point x="342" y="752"/>
			<point x="425" y="837"/>
			<point x="567" y="837" type="curve" smooth="yes"/>
			<point x="720" y="837"/>
			<point x="772" y="745"/>
		</contour>
		<contour>
			<point x="124" y="0" type="line"/>
			<point x="320" y="0" type="line"/>
			<point x="320" y="716" type="line"/>
			<point x="314" y="730" type="line"/>
			<point x="319" y="1012" type="line"/>
			<point x="319" y="1324" type="line"/>
			<point x="124" y="1324" type="line"/>
		</contour>
	</outline>
</glyph>
<glyph name="j" format="2">
	<advance width="475"/>
	<unicode hex="006A"/>
	<outline>
		<contour>
			<point x="152" y="170" type="line"/>
			<point x="348" y="170" type="line"/>
			<point x="348" y="978" type="line"/>
			<point x="152" y="978" type="line"/>
		</contour>
		<contour>
			<point x="250" y="1122" type="curve" smooth="yes"/>
			<point x="327" y="1122"/>
			<point x="365" y="1162"/>
			<point x="365" y="1233" type="curve" smooth="yes"/>
			<point x="365" y="1237" type="line" smooth="yes"/>
			<point x="365" y="1306"/>
			<point x="327" y="1348"/>
			<point x="250" y="1348" type="curve" smooth="yes"/>
			<point x="172" y="1348"/>
			<point x="135" y="1306"/>
			<point x="135" y="1237" type="curve" smooth="yes"/>
			<point x="135" y="1233" type="line" smooth="yes"/>
			<point x="135" y="1163"/>
			<point x="172" y="1122"/>
		</contour>
		<component base="jbottom"/>
	</outline>
</glyph>
<glyph name="p" format="2">
	<advance width="1086"/>
	<unicode hex="0070"/>
	<anchor x="552" y="978" name="top"/>
	<anchor x="552" y="0" name="bottom"/>
	<outline>
		<contour>
			<point x="633" y="-22" type="curve" smooth="yes"/>
			<point x="875" y="-22"/>
			<point x="999" y="130"/>
			<point x="999" y="414" type="curve" smooth="yes"/>
			<point x="999" y="569" type="line" smooth="yes"/>
			<point x="999" y="850"/>
			<point x="874" y="1000"/>
			<point x="641" y="1000" type="curve" smooth="yes"/>
			<point x="444" y="1000"/>
			<point x="356" y="900"/>
			<point x="323" y="777" type="curve"/>
			<point x="266" y="777" type="line"/>
			<point x="312" y="643" type="line"/>
			<point x="339" y="756"/>
			<point x="432" y="841"/>
			<point x="569" y="841" type="curve" smooth="yes"/>
			<point x="721" y="841"/>
			<point x="802" y="753"/>
			<point x="802" y="586" type="curve" smooth="yes"/>
			<point x="802" y="399" type="line" smooth="yes"/>
			<point x="802" y="229"/>
			<point x="720" y="141"/>
			<point x="569" y="141" type="curve" smooth="yes"/>
			<point x="420" y="141"/>
			<point x="321" y="222"/>
			<point x="315" y="386" type="curve"/>
			<point x="260" y="201" type="line"/>
			<point x="325" y="201" type="line"/>
			<point x="360" y="66"/>
			<point x="459" y="-22"/>
		</contour>
		<contour>
			<point x="124" y="-344" type="line"/>
			<point x="319" y="-344" type="line"/>
			<point x="319" y="-34" type="line"/>
			<point x="314" y="243" type="line"/>
			<point x="315" y="281" type="line"/>
			<point x="315" y="691" type="line"/>
			<point x="312" y="749" type="line"/>
			<point x="320" y="978" type="line"/>
			<point x="124" y="978" type="line"/>
		</contour>
	</outline>
</glyph>
<glyph name="s" format="2">
	<advance width="892"/>
	<unicode hex="0073"/>
	<anchor x="444" y="978" name="top"/>
	<anchor x="445" y="0" name="bottom"/>
	<outline>
		<contour>
			<point x="440" y="-23" type="curve" smooth="yes"/>
			<point x="701" y="-23"/>
			<point x="832" y="73"/>
			<point x="832" y="264" type="curve" smooth="yes"/>
			<point x="832" y="279" type="line" smooth="yes"/>
			<point x="832" y="451"/>
			<point x="741" y="517"/>
			<point x="494" y="570" type="curve" smooth="yes"/>
			<point x="309" y="610"/>
			<point x="259" y="651"/>
			<point x="259" y="725" type="curve" smooth="yes"/>
			<point x="259" y="732" type="line" smooth="yes"/>
			<point x="259" y="800"/>
			<point x="311" y="842"/>
			<point x="454" y="842" type="curve" smooth="yes"/>
			<point x="593" y="842"/>
			<point x="706" y="805"/>
			<point x="796" y="757" type="curve"/>
			<point x="778" y="920" type="line"/>
			<point x="703" y="963"/>
			<point x="588" y="1002"/>
			<point x="434" y="1002" type="curve" smooth="yes"/>
			<point x="189" y="1002"/>
			<point x="66" y="910"/>
			<point x="66" y="734" type="curve" smooth="yes"/>
			<point x="66" y="725" type="line" smooth="yes"/>
			<point x="66" y="568"/>
			<point x="146" y="487"/>
			<point x="392" y="432" type="curve" smooth="yes"/>
			<point x="587" y="388"/>
			<point x="639" y="354"/>
			<point x="639" y="275" type="curve" smooth="yes"/>
			<point x="639" y="267" type="line" smooth="yes"/>
			<point x="639" y="184"/>
			<point x="571" y="142"/>
			<point x="429" y="142" type="curve" smooth="yes"/>
			<point x="281" y="142"/>
			<point x="164" y="184"/>
			<point x="66" y="234" type="curve"/>
			<point x="84" y="55" type="line"/>
			<point x="164" y="16"/>
			<point x="282" y="-23"/>
		</contour>
	</outline>
</glyph>
<glyph name="u" format="2">
	<advance width="1080"/>
	<unicode hex="0075"/>
	<anchor x="994" y="0" name="ogonek"/>
	<anchor x="541" y="978" name="top"/>
	<anchor x="1064" y="978" name="topright"/>
	<anchor x="541" y="0" name="bottom"/>
	<outline>
		<contour>
			<point x="308" y="374" type="curve" smooth="yes"/>
			<point x="308" y="978" type="line"/>
			<point x="112" y="978" type="line"/>
			<point x="112" y="352" type="line" smooth="yes"/>
			<point x="112" y="111"/>
			<point x="207" y="-22"/>
			<point x="436" y="-22" type="curve" smooth="yes"/>
			<point x="628" y="-22"/>
			<point x="723" y="78"/>
			<point x="757" y="201" type="curve"/>
			<point x="799" y="201" type="line"/>
			<point x="767" y="337" type="line"/>
			<point x="740" y="226"/>
			<point x="656" y="141"/>
			<point x="513" y="141" type="curve" smooth="yes"/>
			<point x="360" y="141"/>
			<point x="308" y="233"/>
		</contour>
		<contour>
			<point x="956" y="978" type="line"/>
			<point x="760" y="978" type="line"/>
			<point x="760" y="241" type="line"/>
			<point x="768" y="229" type="line"/>
			<point x="760" y="0" type="line"/>
			<point x="956" y="0" type="line"/>
		</contour>
	</outline>
</glyph>
<glyph name="v" format="2">
  <advance width="1001"/>
  <unicode hex="0076"/>
  <anchor x="501" y="0" name="bottom"/>
  <anchor x="501" y="978" name="top"/>
  <outline>
    <contour>
      <point x="512" y="132" type="line"/>
      <point x="489" y="132" type="line"/>
      <point x="240" y="978" type="line"/>
      <point x="37" y="978" type="line"/>
      <point x="341" y="0" type="line"/>
      <point x="660" y="0" type="line"/>
      <point x="964" y="978" type="line"/>
      <point x="761" y="978" type="line"/>
    </contour>
  </outline>
</glyph>
<glyph name="w" format="2">
	<advance width="1511"/>
	<unicode hex="0077"/>
	<anchor x="756" y="978" name="top"/>
	<anchor x="756" y="0" name="bottom"/>
	<outline>
		<contour>
			<point x="278" y="0" type="line"/>
			<point x="574" y="0" type="line"/>
			<point x="721" y="677" type="line"/>
			<point x="748" y="811" type="line"/>
			<point x="764" y="811" type="line"/>
			<point x="792" y="677" type="line"/>
			<point x="939" y="0" type="line"/>
			<point x="1233" y="0" type="line"/>
			<point x="1463" y="978" type="line"/>
			<point x="1263" y="978" type="line"/>
			<point x="1088" y="141" type="line"/>
			<point x="1072" y="141" type="line"/>
			<point x="893" y="952" type="line"/>
			<point x="619" y="952" type="line"/>
			<point x="440" y="141" type="line"/>
			<point x="423" y="141" type="line"/>
			<point x="250" y="978" type="line"/>
			<point x="48" y="978" type="line"/>
		</contour>
	</outline>
</glyph>
<glyph name="x" format="2">
	<advance width="993"/>
	<unicode hex="0078"/>
	<anchor x="497" y="978" name="top"/>
	<anchor x="497" y="0" name="bottom"/>
	<outline>
		<contour>
			<point x="42" y="0" type="line"/>
			<point x="256" y="0" type="line"/>
			<point x="490" y="410" type="line"/>
			<point x="505" y="410" type="line"/>
			<point x="737" y="0" type="line"/>
			<point x="951" y="0" type="line"/>
			<point x="638" y="537" type="line"/>
			<point x="638" y="482" type="line"/>
			<point x="944" y="978" type="line"/>
			<point x="730" y="978" type="line"/>
			<point x="505" y="594" type="line"/>
			<point x="490" y="594" type="line"/>
			<point x="263" y="978" type="line"/>
			<point x="49" y="978" type="line"/>
			<point x="355" y="482" type="line"/>
			<point x="355" y="537" type="line"/>
		</contour>
	</outline>
</glyph>
<glyph name="y" format="2">
	<advance width="1002"/>
	<unicode hex="0079"/>
	<anchor x="502" y="978" name="top"/>
	<anchor x="696" y="-88" name="bottom"/>
	<outline>
		<contour>
			<point x="593" y="173" type="line"/>
			<point x="484" y="173" type="line"/>
			<point x="240" y="978" type="line"/>
			<point x="37" y="978" type="line"/>
			<point x="344" y="41" type="line"/>
			<point x="565" y="41" type="line"/>
			<point x="477" y="115" type="line"/>
			<point x="322" y="-344" type="line"/>
			<point x="520" y="-344" type="line"/>
			<point x="965" y="978" type="line"/>
			<point x="764" y="978" type="line"/>
			<point x="489" y="128" type="line"/>
		</contour>
	</outline>
</glyph>
<glyph name="braceright" format="2">
	<advance width="678"/>
	<unicode hex="007D"/>
	<outline>
		<contour>
			<point x="53" y="1330" type="curve"/>
			<point x="53" y="1187" type="line"/>
			<point x="82" y="1196"/>
			<point x="119" y="1204"/>
			<point x="161" y="1204" type="curve" smooth="yes"/>
			<point x="255" y="1204"/>
			<point x="293" y="1162"/>
			<point x="293" y="1061" type="curve" smooth="yes"/>
			<point x="293" y="992"/>
			<point x="279" y="859"/>
			<point x="279" y="781" type="curve" smooth="yes"/>
			<point x="279" y="658"/>
			<point x="316" y="581"/>
			<point x="447" y="561" type="curve"/>
			<point x="447" y="542" type="line"/>
			<point x="455" y="552" type="line"/>
			<point x="316" y="535"/>
			<point x="279" y="452"/>
			<point x="279" y="328" type="curve" smooth="yes"/>
			<point x="279" y="249"/>
			<point x="293" y="115"/>
			<point x="293" y="46" type="curve" smooth="yes"/>
			<point x="293" y="-56"/>
			<point x="255" y="-98"/>
			<point x="159" y="-98" type="curve" smooth="yes"/>
			<point x="118" y="-98"/>
			<point x="82" y="-90"/>
			<point x="53" y="-80" type="curve"/>
			<point x="53" y="-225" type="line"/>
			<point x="98" y="-239"/>
			<point x="153" y="-249"/>
			<point x="211" y="-249" type="curve" smooth="yes"/>
			<point x="394" y="-249"/>
			<point x="479" y="-166"/>
			<point x="479" y="26" type="curve" smooth="yes"/>
			<point x="479" y="108"/>
			<point x="465" y="246"/>
			<point x="465" y="318" type="curve" smooth="yes"/>
			<point x="465" y="415"/>
			<point x="499" y="465"/>
			<point x="616" y="473" type="curve"/>
			<point x="616" y="638" type="line"/>
			<point x="499" y="645"/>
			<point x="465" y="695"/>
			<point x="465" y="791" type="curve" smooth="yes"/>
			<point x="465" y="864"/>
			<point x="479" y="1001"/>
			<point x="479" y="1080" type="curve" smooth="yes"/>
			<point x="479" y="1272"/>
			<point x="394" y="1354"/>
			<point x="211" y="1354" type="curve" smooth="yes"/>
			<point x="153" y="1354"/>
			<point x="98" y="1344"/>
		</contour>
	</outline>
</glyph>
<glyph name="cent" format="2">
	<advance width="873"/>
	<unicode hex="00A2"/>
	<outline>
		<contour>
			<point x="591" y="926" type="line"/>
			<point x="591" y="1188" type="line"/>
			<point x="423" y="1188" type="line"/>
			<point x="423" y="926" type="line"/>
		</contour>
		<contour>
			<point x="591" y="-214" type="line"/>
			<point x="591" y="78" type="line"/>
			<point x="423" y="78" type="line"/>
			<point x="423" y="-214" type="line"/>
		</contour>
		<component base="c"/>
	</outline>
</glyph>
<glyph name="currency" format="2">
	<advance width="1035"/>
	<unicode hex="00A4"/>
	<outline>
		<contour>
			<point x="517" y="237" type="curve" smooth="yes"/>
			<point x="756" y="237"/>
			<point x="886" y="365"/>
			<point x="886" y="596" type="curve" smooth="yes"/>
			<point x="886" y="639" type="line" smooth="yes"/>
			<point x="886" y="869"/>
			<point x="757" y="997"/>
			<point x="518" y="997" type="curve" smooth="yes"/>
			<point x="279" y="997"/>
			<point x="149" y="869"/>
			<point x="149" y="639" type="curve" smooth="yes"/>
			<point x="149" y="596" type="line" smooth="yes"/>
			<point x="149" y="365"/>
			<point x="278" y="237"/>
		</contour>
		<contour>
			<point x="518" y="385" type="curve" smooth="yes"/>
			<point x="392" y="385"/>
			<point x="324" y="457"/>
			<point x="324" y="593" type="curve" smooth="yes"/>
			<point x="324" y="642" type="line" smooth="yes"/>
			<point x="324" y="778"/>
			<point x="392" y="849"/>
			<point x="518" y="849" type="curve" smooth="yes"/>
			<point x="643" y="849"/>
			<point x="710" y="778"/>
			<point x="710" y="642" type="curve" smooth="yes"/>
			<point x="711" y="593" type="line" smooth="yes"/>
			<point x="711" y="457"/>
			<point x="643" y="385"/>
		</contour>
		<contour>
			<point x="779" y="424" type="line"/>
			<point x="670" y="326" type="line"/>
			<point x="856" y="118" type="line"/>
			<point x="967" y="212" type="line"/>
		</contour>
		<contour>
			<point x="365" y="326" type="line"/>
			<point x="260" y="426" type="line"/>
			<point x="69" y="212" type="line"/>
			<point x="180" y="118" type="line"/>
		</contour>
		<contour>
			<point x="249" y="815" type="line"/>
			<point x="362" y="908" type="line"/>
			<point x="179" y="1113" type="line"/>
			<point x="69" y="1018" type="line"/>
		</contour>
		<contour>
			<point x="670" y="903" type="line"/>
			<point x="778" y="804" type="line"/>
			<point x="966" y="1018" type="line"/>
			<point x="856" y="1113" type="line"/>
		</contour>
	</outline>
</glyph>
<glyph name="brokenbar" format="2">
  <advance width="494"/>
  <unicode hex="00A6"/>
  <outline>
    <contour>
      <point x="330" y="587" type="line"/>
      <point x="330" y="1421" type="line"/>
      <point x="164" y="1421" type="line"/>
      <point x="164" y="587" type="line"/>
    </contour>
    <contour>
      <point x="330" y="-432" type="line"/>
      <point x="330" y="408" type="line"/>
      <point x="164" y="408" type="line"/>
      <point x="164" y="-432" type="line"/>
    </contour>
  </outline>
</glyph>
<glyph name="copyright" format="2">
	<advance width="1398"/>
	<unicode hex="00A9"/>
	<outline>
		<contour>
			<point x="699" y="-26" type="curve" smooth="yes"/>
			<point x="1081" y="-26"/>
			<point x="1300" y="189"/>
			<point x="1300" y="564" type="curve" smooth="yes"/>
			<point x="1300" y="720" type="line" smooth="yes"/>
			<point x="1300" y="1092"/>
			<point x="1081" y="1304"/>
			<point x="699" y="1304" type="curve" smooth="yes"/>
			<point x="316" y="1304"/>
			<point x="98" y="1092"/>
			<point x="98" y="720" type="curve" smooth="yes"/>
			<point x="98" y="564" type="line" smooth="yes"/>
			<point x="98" y="189"/>
			<point x="316" y="-26"/>
		</contour>
		<contour>
			<point x="739" y="311" type="curve" smooth="yes"/>
			<point x="825" y="311"/>
			<point x="889" y="337"/>
			<point x="929" y="365" type="curve"/>
			<point x="939" y="481" type="line"/>
			<point x="895" y="450"/>
			<point x="841" y="426"/>
			<point x="765" y="426" type="curve" smooth="yes"/>
			<point x="651" y="426"/>
			<point x="596" y="488"/>
			<point x="596" y="600" type="curve" smooth="yes"/>
			<point x="596" y="687" type="line" smooth="yes"/>
			<point x="596" y="798"/>
			<point x="648" y="859"/>
			<point x="761" y="859" type="curve" smooth="yes"/>
			<point x="837" y="859"/>
			<point x="890" y="835"/>
			<point x="934" y="804" type="curve"/>
			<point x="923" y="919" type="line"/>
			<point x="885" y="946"/>
			<point x="822" y="971"/>
			<point x="739" y="971" type="curve" smooth="yes"/>
			<point x="552" y="971"/>
			<point x="462" y="868"/>
			<point x="462" y="684" type="curve" smooth="yes"/>
			<point x="462" y="600" type="line" smooth="yes"/>
			<point x="462" y="415"/>
			<point x="551" y="311"/>
		</contour>
		<contour>
			<point x="699" y="85" type="curve" smooth="yes"/>
			<point x="409" y="85"/>
			<point x="230" y="254"/>
			<point x="230" y="554" type="curve" smooth="yes"/>
			<point x="230" y="730" type="line" smooth="yes"/>
			<point x="230" y="1027"/>
			<point x="409" y="1193"/>
			<point x="699" y="1193" type="curve" smooth="yes"/>
			<point x="988" y="1193"/>
			<point x="1168" y="1027"/>
			<point x="1168" y="730" type="curve" smooth="yes"/>
			<point x="1168" y="554" type="line" smooth="yes"/>
			<point x="1168" y="254"/>
			<point x="988" y="85"/>
		</contour>
	</outline>
</glyph>
<glyph name="degree" format="2">
	<advance width="658"/>
	<unicode hex="00B0"/>
	<outline>
		<contour>
			<point x="329" y="776" type="curve" smooth="yes"/>
			<point x="492" y="776"/>
			<point x="583" y="873"/>
			<point x="583" y="1034" type="curve" smooth="yes"/>
			<point x="583" y="1047" type="line" smooth="yes"/>
			<point x="583" y="1207"/>
			<point x="492" y="1304"/>
			<point x="329" y="1304" type="curve" smooth="yes"/>
			<point x="166" y="1304"/>
			<point x="75" y="1207"/>
			<point x="75" y="1047" type="curve" smooth="yes"/>
			<point x="75" y="1034" type="line" smooth="yes"/>
			<point x="75" y="873"/>
			<point x="166" y="776"/>
		</contour>
		<contour>
			<point x="329" y="904" type="curve" smooth="yes"/>
			<point x="258" y="904"/>
			<point x="221" y="952"/>
			<point x="221" y="1033" type="curve" smooth="yes"/>
			<point x="221" y="1047" type="line" smooth="yes"/>
			<point x="221" y="1128"/>
			<point x="258" y="1176"/>
			<point x="329" y="1176" type="curve" smooth="yes"/>
			<point x="401" y="1176"/>
			<point x="437" y="1128"/>
			<point x="437" y="1047" type="curve" smooth="yes"/>
			<point x="437" y="1033" type="line" smooth="yes"/>
			<point x="437" y="952"/>
			<point x="401" y="904"/>
		</contour>
	</outline>
</glyph>
<glyph name="plusminus" format="2">
	<advance width="1031"/>
	<unicode hex="00B1"/>
	<outline>
		<contour>
			<point x="113" y="130" type="line"/>
			<point x="918" y="130" type="line"/>
			<point x="918" y="286" type="line"/>
			<point x="113" y="286" type="line"/>
		</contour>
		<contour>
			<point x="599" y="406" type="line"/>
			<point x="599" y="1098" type="line"/>
			<point x="432" y="1098" type="line"/>
			<point x="432" y="406" type="line"/>
		</contour>
		<contour>
			<point x="113" y="674" type="line"/>
			<point x="918" y="674" type="line"/>
			<point x="918" y="830" type="line"/>
			<point x="113" y="830" type="line"/>
		</contour>
	</outline>
</glyph>
<glyph name="threesuperior" format="2">
  <advance width="617"/>
  <unicode hex="00B3"/>
  <outline>
    <contour>
      <point x="280" y="710" type="curve" smooth="yes"/>
      <point x="478" y="710"/>
      <point x="566" y="794"/>
      <point x="566" y="911" type="curve" smooth="yes"/>
      <point x="566" y="920" type="line" smooth="yes"/>
      <point x="566" y="1012"/>
      <point x="521" y="1062"/>
      <point x="425" y="1080" type="curve"/>
      <point x="430" y="1069" type="line"/>
      <point x="430" y="1085" type="line"/>
      <point x="519" y="1100"/>
      <point x="561" y="1151"/>
      <point x="561" y="1230" type="curve" smooth="yes"/>
      <point x="561" y="1237" type="line" smooth="yes"/>
      <point x="561" y="1354"/>
      <point x="471" y="1418"/>
      <point x="288" y="1418" type="curve" smooth="yes"/>
      <point x="188" y="1418"/>
      <point x="109" y="1395"/>
      <point x="57" y="1368" type="curve"/>
      <point x="44" y="1252" type="line"/>
      <point x="98" y="1275"/>
      <point x="176" y="1300"/>
      <point x="268" y="1300" type="curve" smooth="yes"/>
      <point x="379" y="1300"/>
      <point x="412" y="1270"/>
      <point x="412" y="1218" type="curve" smooth="yes"/>
      <point x="412" y="1212" type="line" smooth="yes"/>
      <point x="412" y="1158"/>
      <point x="372" y="1130"/>
      <point x="271" y="1128" type="curve" smooth="yes"/>
      <point x="139" y="1125" type="line"/>
      <point x="139" y="1019" type="line"/>
      <point x="271" y="1016" type="line" smooth="yes"/>
      <point x="380" y="1014"/>
      <point x="415" y="983"/>
      <point x="415" y="929" type="curve" smooth="yes"/>
      <point x="415" y="924" type="line" smooth="yes"/>
      <point x="415" y="870"/>
      <point x="382" y="831"/>
      <point x="259" y="831" type="curve" smooth="yes"/>
      <point x="175" y="831"/>
      <point x="96" y="854"/>
      <point x="40" y="878" type="curve"/>
      <point x="53" y="753" type="line"/>
      <point x="99" y="733"/>
      <point x="185" y="710"/>
    </contour>
  </outline>
</glyph>
<glyph name="paragraph" format="2">
	<advance width="748"/>
	<unicode hex="00B6"/>
	<outline>
		<contour>
			<point x="369" y="655" type="curve"/>
			<point x="461" y="655" type="line"/>
			<point x="460" y="1278" type="line"/>
			<point x="369" y="1278" type="line" smooth="yes"/>
			<point x="168" y="1278"/>
			<point x="76" y="1172"/>
			<point x="76" y="991" type="curve" smooth="yes"/>
			<point x="76" y="943" type="line" smooth="yes"/>
			<point x="76" y="761"/>
			<point x="168" y="655"/>
		</contour>
		<contour>
			<point x="606" y="0" type="line"/>
			<point x="606" y="1278" type="line"/>
			<point x="411" y="1278" type="line"/>
			<point x="411" y="0" type="line"/>
		</contour>
	</outline>
</glyph>
<glyph name="AE" format="2">
  <advance width="1769"/>
  <unicode hex="00C6"/>
  <anchor x="884" y="0" name="bottom"/>
  <anchor x="884" y="1278" name="top"/>
  <outline>
    <contour>
      <point x="40" y="0" type="line"/>
      <point x="252" y="0" type="line"/>
      <point x="806" y="1144" type="line"/>
      <point x="889" y="1144" type="line"/>
      <point x="889" y="1278" type="line"/>
      <point x="669" y="1278" type="line"/>
    </contour>
    <contour>
      <point x="346" y="357" type="line"/>
      <point x="927" y="357" type="line"/>
      <point x="927" y="523" type="line"/>
      <point x="346" y="523" type="line"/>
    </contour>
    <contour>
      <point x="915" y="0" type="line"/>
      <point x="1676" y="0" type="line"/>
      <point x="1676" y="168" type="line"/>
      <point x="915" y="168" type="line"/>
    </contour>
    <contour>
      <point x="856" y="0" type="line"/>
      <point x="1054" y="0" type="line"/>
      <point x="1054" y="1278" type="line"/>
      <point x="856" y="1278" type="line"/>
    </contour>
    <contour>
      <point x="970" y="568" type="line"/>
      <point x="1654" y="568" type="line"/>
      <point x="1654" y="734" type="line"/>
      <point x="970" y="734" type="line"/>
    </contour>
    <contour>
      <point x="914" y="1111" type="line"/>
      <point x="1669" y="1111" type="line"/>
      <point x="1669" y="1278" type="line"/>
      <point x="914" y="1278" type="line"/>
    </contour>
  </outline>
</glyph>
<glyph name="Eth" format="2">
  <advance width="1195"/>
  <unicode hex="00D0"/>
  <anchor x="589" y="0" name="bottom"/>
  <anchor x="606" y="639" name="center"/>
  <anchor x="589" y="1278" name="top"/>
  <outline>
    <contour>
      <point x="5" y="581" type="line"/>
      <point x="634" y="581" type="line"/>
      <point x="634" y="731" type="line"/>
      <point x="5" y="731" type="line"/>
    </contour>
    <component base="D"/>
  </outline>
</glyph>
<glyph name="Oslash" format="2">
  <advance width="1214"/>
  <unicode hex="00D8"/>
  <anchor x="607" y="0" name="bottom"/>
  <anchor x="607" y="640" name="center"/>
  <anchor x="1103" y="11" name="ogonek"/>
  <anchor x="607" y="1278" name="top"/>
  <anchor x="6" y="1279" name="topleft"/>
  <anchor x="1207" y="1279" name="topright"/>
  <outline>
    <contour>
      <point x="607" y="-26" type="curve" smooth="yes"/>
      <point x="940" y="-26"/>
      <point x="1116" y="162"/>
      <point x="1116" y="499" type="curve" smooth="yes"/>
      <point x="1116" y="780" type="line" smooth="yes"/>
      <point x="1116" y="1106"/>
      <point x="930" y="1304"/>
      <point x="607" y="1304" type="curve" smooth="yes"/>
      <point x="273" y="1304"/>
      <point x="98" y="1116"/>
      <point x="98" y="780" type="curve" smooth="yes"/>
      <point x="98" y="499" type="line" smooth="yes"/>
      <point x="98" y="172"/>
      <point x="283" y="-26"/>
    </contour>
    <contour>
      <point x="106" y="-69" type="line"/>
      <point x="288" y="-69" type="line"/>
      <point x="386" y="95" type="line"/>
      <point x="401" y="123" type="line"/>
      <point x="920" y="1060" type="line"/>
      <point x="961" y="1121" type="line"/>
      <point x="1108" y="1347" type="line"/>
      <point x="927" y="1347" type="line"/>
      <point x="841" y="1210" type="line"/>
      <point x="823" y="1169" type="line"/>
      <point x="299" y="223" type="line"/>
      <point x="254" y="164" type="line"/>
    </contour>
    <contour>
      <point x="607" y="141" type="curve" smooth="yes"/>
      <point x="394" y="141"/>
      <point x="302" y="268"/>
      <point x="302" y="491" type="curve" smooth="yes"/>
      <point x="302" y="788" type="line" smooth="yes"/>
      <point x="302" y="1012"/>
      <point x="404" y="1137"/>
      <point x="607" y="1137" type="curve" smooth="yes"/>
      <point x="819" y="1137"/>
      <point x="912" y="1012"/>
      <point x="912" y="788" type="curve" smooth="yes"/>
      <point x="912" y="491" type="line" smooth="yes"/>
      <point x="912" y="268"/>
      <point x="809" y="141"/>
    </contour>
  </outline>
</glyph>
<glyph name="germandbls" format="2">
	<advance width="1152"/>
	<unicode hex="00DF"/>
	<anchor x="552" y="978" name="top"/>
	<anchor x="552" y="0" name="bottom"/>
	<outline>
		<contour>
			<point x="124" y="979" type="curve" smooth="yes"/>
			<point x="124" y="0" type="line"/>
			<point x="317" y="0" type="line"/>
			<point x="317" y="972" type="line" smooth="yes"/>
			<point x="317" y="1115"/>
			<point x="368" y="1196"/>
			<point x="522" y="1196" type="curve" smooth="yes"/>
			<point x="649" y="1196"/>
			<point x="708" y="1145"/>
			<point x="708" y="1074" type="curve" smooth="yes"/>
			<point x="708" y="952"/>
			<point x="486" y="883"/>
			<point x="486" y="696" type="curve" smooth="yes"/>
			<point x="486" y="690" type="line" smooth="yes"/>
			<point x="486" y="559"/>
			<point x="555" y="507"/>
			<point x="720" y="442" type="curve" smooth="yes"/>
			<point x="850" y="391"/>
			<point x="889" y="359"/>
			<point x="889" y="281" type="curve" smooth="yes"/>
			<point x="889" y="271" type="line" smooth="yes"/>
			<point x="889" y="190"/>
			<point x="831" y="145"/>
			<point x="711" y="145" type="curve" smooth="yes"/>
			<point x="627" y="145"/>
			<point x="550" y="168"/>
			<point x="476" y="200" type="curve"/>
			<point x="493" y="24" type="line"/>
			<point x="553" y="1"/>
			<point x="630" y="-19"/>
			<point x="730" y="-19" type="curve" smooth="yes"/>
			<point x="947" y="-19"/>
			<point x="1081" y="78"/>
			<point x="1081" y="268" type="curve" smooth="yes"/>
			<point x="1081" y="283" type="line" smooth="yes"/>
			<point x="1081" y="445"/>
			<point x="1002" y="503"/>
			<point x="837" y="565" type="curve" smooth="yes"/>
			<point x="721" y="609"/>
			<point x="679" y="638"/>
			<point x="679" y="703" type="curve" smooth="yes"/>
			<point x="679" y="707" type="line" smooth="yes"/>
			<point x="679" y="826"/>
			<point x="903" y="886"/>
			<point x="903" y="1079" type="curve"/>
			<point x="903" y="1256"/>
			<point x="756" y="1352"/>
			<point x="524" y="1352" type="curve" smooth="yes"/>
			<point x="235" y="1352"/>
			<point x="124" y="1222"/>
		</contour>
	</outline>
</glyph>
<glyph name="divide" format="2">
  <advance width="1004"/>
  <unicode hex="00F7"/>
  <outline>
    <contour>
      <point x="99" y="541" type="line"/>
      <point x="905" y="541" type="line"/>
      <point x="905" y="701" type="line"/>
      <point x="99" y="701" type="line"/>
    </contour>
    <contour>
      <point x="507" y="159" type="curve" smooth="yes"/>
      <point x="578" y="159"/>
      <point x="612" y="200"/>
      <point x="612" y="270" type="curve" smooth="yes"/>
      <point x="612" y="279" type="line" smooth="yes"/>
      <point x="612" y="348"/>
      <point x="578" y="389"/>
      <point x="507" y="389" type="curve" smooth="yes"/>
      <point x="435" y="389"/>
      <point x="402" y="348"/>
      <point x="402" y="279" type="curve" smooth="yes"/>
      <point x="402" y="270" type="line" smooth="yes"/>
      <point x="402" y="200"/>
      <point x="435" y="159"/>
    </contour>
    <contour>
      <point x="507" y="854" type="curve" smooth="yes"/>
      <point x="578" y="854"/>
      <point x="612" y="895"/>
      <point x="612" y="965" type="curve" smooth="yes"/>
      <point x="612" y="974" type="line" smooth="yes"/>
      <point x="612" y="1043"/>
      <point x="578" y="1084"/>
      <point x="507" y="1084" type="curve" smooth="yes"/>
      <point x="435" y="1084"/>
      <point x="402" y="1043"/>
      <point x="402" y="974" type="curve" smooth="yes"/>
      <point x="402" y="965" type="line" smooth="yes"/>
      <point x="402" y="895"/>
      <point x="435" y="854"/>
    </contour>
  </outline>
</glyph>
<glyph name="thorn" format="2">
  <advance width="1086"/>
  <unicode hex="00FE"/>
  <anchor x="551" y="0" name="bottom"/>
  <anchor x="551" y="978" name="top"/>
  <outline>
    <contour>
      <point x="633" y="-22" type="curve" smooth="yes"/>
      <point x="875" y="-22"/>
      <point x="999" y="130"/>
      <point x="999" y="414" type="curve" smooth="yes"/>
      <point x="999" y="569" type="line" smooth="yes"/>
      <point x="999" y="850"/>
      <point x="874" y="1000"/>
      <point x="641" y="1000" type="curve" smooth="yes"/>
      <point x="445" y="1000"/>
      <point x="358" y="900"/>
      <point x="325" y="777" type="curve"/>
      <point x="266" y="777" type="line"/>
      <point x="312" y="643" type="line"/>
      <point x="339" y="756"/>
      <point x="432" y="841"/>
      <point x="569" y="841" type="curve" smooth="yes"/>
      <point x="721" y="841"/>
      <point x="802" y="753"/>
      <point x="802" y="586" type="curve" smooth="yes"/>
      <point x="802" y="399" type="line" smooth="yes"/>
      <point x="802" y="229"/>
      <point x="720" y="141"/>
      <point x="569" y="141" type="curve" smooth="yes"/>
      <point x="420" y="141"/>
      <point x="321" y="222"/>
      <point x="315" y="386" type="curve"/>
      <point x="260" y="201" type="line"/>
      <point x="325" y="201" type="line"/>
      <point x="360" y="66"/>
      <point x="459" y="-22"/>
    </contour>
    <contour>
      <point x="124" y="-344" type="line"/>
      <point x="319" y="-344" type="line"/>
      <point x="319" y="-34" type="line"/>
      <point x="314" y="243" type="line"/>
      <point x="315" y="283" type="line"/>
      <point x="315" y="685" type="line"/>
      <point x="314" y="749" type="line"/>
      <point x="319" y="978" type="line"/>
      <point x="319" y="1324" type="line"/>
      <point x="124" y="1324" type="line"/>
    </contour>
  </outline>
</glyph>
<glyph name="idotless" format="2">
  <advance width="449"/>
  <unicode hex="0131"/>
  <anchor x="225" y="0" name="bottom"/>
  <anchor x="361" y="0" name="ogonek"/>
  <anchor x="225" y="978" name="top"/>
  <outline>
    <contour>
      <point x="127" y="0" type="line"/>
      <point x="323" y="0" type="line"/>
      <point x="323" y="978" type="line"/>
      <point x="127" y="978" type="line"/>
    </contour>
  </outline>
</glyph>
<glyph name="OE" format="2">
  <advance width="1734"/>
  <unicode hex="0152"/>
  <anchor x="852" y="0" name="bottom"/>
  <anchor x="852" y="1278" name="top"/>
  <outline>
    <contour>
      <point x="607" y="-26" type="curve" smooth="yes"/>
      <point x="940" y="-26"/>
      <point x="1116" y="162"/>
      <point x="1116" y="499" type="curve" smooth="yes"/>
      <point x="1116" y="780" type="line" smooth="yes"/>
      <point x="1116" y="1116"/>
      <point x="940" y="1304"/>
      <point x="607" y="1304" type="curve" smooth="yes"/>
      <point x="273" y="1304"/>
      <point x="98" y="1116"/>
      <point x="98" y="780" type="curve" smooth="yes"/>
      <point x="98" y="499" type="line" smooth="yes"/>
      <point x="98" y="162"/>
      <point x="273" y="-26"/>
    </contour>
    <contour>
      <point x="607" y="141" type="curve" smooth="yes"/>
      <point x="404" y="141"/>
      <point x="302" y="268"/>
      <point x="302" y="491" type="curve" smooth="yes"/>
      <point x="302" y="788" type="line" smooth="yes"/>
      <point x="302" y="1012"/>
      <point x="404" y="1137"/>
      <point x="607" y="1137" type="curve" smooth="yes"/>
      <point x="809" y="1137"/>
      <point x="912" y="1012"/>
      <point x="912" y="788" type="curve" smooth="yes"/>
      <point x="912" y="491" type="line" smooth="yes"/>
      <point x="912" y="268"/>
      <point x="809" y="141"/>
    </contour>
    <contour>
      <point x="770" y="0" type="line"/>
      <point x="1641" y="0" type="line"/>
      <point x="1641" y="168" type="line"/>
      <point x="770" y="168" type="line"/>
    </contour>
    <contour>
      <point x="935" y="568" type="line"/>
      <point x="1619" y="568" type="line"/>
      <point x="1619" y="734" type="line"/>
      <point x="935" y="734" type="line"/>
    </contour>
    <contour>
      <point x="769" y="1111" type="line"/>
      <point x="1634" y="1111" type="line"/>
      <point x="1634" y="1278" type="line"/>
      <point x="769" y="1278" type="line"/>
    </contour>
  </outline>
</glyph>
<glyph name="gravecomb" format="2">
	<advance width="0"/>
	<unicode hex="0300"/>
	<anchor x="-291" y="1333" name="top"/>
	<anchor x="-179" y="978" name="_top"/>
	<outline>
		<contour>
			<point x="-283" y="1368" type="line"/>
			<point x="-499" y="1368" type="line"/>
			<point x="-499" y="1365" type="line"/>
			<point x="-266" y="1093" type="line"/>
			<point x="-94" y="1093" type="line"/>
			<point x="-94" y="1096" type="line"/>
		</contour>
	</outline>
</glyph>
<glyph name="acutecomb" format="2">
	<advance width="0"/>
	<unicode hex="0301"/>
	<anchor x="-413" y="1333" name="top"/>
	<anchor x="-416" y="978" name="_top"/>
	<outline>
		<contour>
			<point x="-312" y="1368" type="line"/>
			<point x="-501" y="1096" type="line"/>
			<point x="-501" y="1093" type="line"/>
			<point x="-329" y="1093" type="line"/>
			<point x="-96" y="1365" type="line"/>
			<point x="-96" y="1368" type="line"/>
		</contour>
	</outline>
</glyph>
<glyph name="circumflexcomb" format="2">
	<advance width="0"/>
	<unicode hex="0302"/>
	<anchor x="-392" y="1327" name="top"/>
	<anchor x="-392" y="978" name="_top"/>
	<outline>
		<contour>
			<point x="-497" y="1368" type="line"/>
			<point x="-684" y="1096" type="line"/>
			<point x="-684" y="1093" type="line"/>
			<point x="-530" y="1093" type="line"/>
			<point x="-396" y="1261" type="line"/>
			<point x="-388" y="1261" type="line"/>
			<point x="-254" y="1093" type="line"/>
			<point x="-100" y="1093" type="line"/>
			<point x="-100" y="1096" type="line"/>
			<point x="-287" y="1368" type="line"/>
		</contour>
	</outline>
</glyph>
<glyph name="tildecomb" format="2">
	<advance width="0"/>
	<unicode hex="0303"/>
	<anchor x="-386" y="1320" name="top"/>
	<anchor x="-386" y="978" name="_top"/>
	<outline>
		<contour>
			<point x="-255" y="1117" type="curve" smooth="yes"/>
			<point x="-143" y="1117"/>
			<point x="-100" y="1186"/>
			<point x="-100" y="1303" type="curve" smooth="yes"/>
			<point x="-100" y="1338" type="line"/>
			<point x="-223" y="1338" type="line"/>
			<point x="-223" y="1324" type="line" smooth="yes"/>
			<point x="-223" y="1278"/>
			<point x="-236" y="1255"/>
			<point x="-273" y="1255" type="curve" smooth="yes"/>
			<point x="-337" y="1255"/>
			<point x="-421" y="1327"/>
			<point x="-519" y="1327" type="curve" smooth="yes"/>
			<point x="-632" y="1327"/>
			<point x="-675" y="1256"/>
			<point x="-675" y="1140" type="curve" smooth="yes"/>
			<point x="-675" y="1106" type="line"/>
			<point x="-552" y="1106" type="line"/>
			<point x="-552" y="1120" type="line" smooth="yes"/>
			<point x="-552" y="1165"/>
			<point x="-538" y="1188"/>
			<point x="-502" y="1188" type="curve" smooth="yes"/>
			<point x="-438" y="1188"/>
			<point x="-350" y="1117"/>
		</contour>
	</outline>
</glyph>
<glyph name="dotaccentcomb" format="2">
  <unicode hex="0307"/>
  <anchor x="210" y="978" name="_top"/>
  <anchor x="210" y="1320" name="top"/>
  <outline>
    <contour>
      <point x="209" y="1122" type="curve" smooth="yes"/>
      <point x="283" y="1122"/>
      <point x="319" y="1161"/>
      <point x="319" y="1229" type="curve" smooth="yes"/>
      <point x="319" y="1235" type="line" smooth="yes"/>
      <point x="319" y="1302"/>
      <point x="283" y="1343"/>
      <point x="209" y="1343" type="curve" smooth="yes"/>
      <point x="136" y="1343"/>
      <point x="100" y="1302"/>
      <point x="100" y="1235" type="curve" smooth="yes"/>
      <point x="100" y="1229" type="line" smooth="yes"/>
      <point x="100" y="1161"/>
      <point x="136" y="1122"/>
    </contour>
  </outline>
</glyph>
<glyph name="dieresiscomb" format="2">
	<advance width="0"/>
	<unicode hex="0308"/>
	<anchor x="-357" y="1320" name="top"/>
	<anchor x="-357" y="978" name="_top"/>
	<outline>
		<contour>
			<point x="-515" y="1122" type="curve" smooth="yes"/>
			<point x="-447" y="1122"/>
			<point x="-415" y="1160"/>
			<point x="-415" y="1227" type="curve" smooth="yes"/>
			<point x="-415" y="1234" type="line" smooth="yes"/>
			<point x="-415" y="1300"/>
			<point x="-447" y="1338"/>
			<point x="-515" y="1338" type="curve" smooth="yes"/>
			<point x="-581" y="1338"/>
			<point x="-614" y="1300"/>
			<point x="-614" y="1234" type="curve" smooth="yes"/>
			<point x="-614" y="1227" type="line" smooth="yes"/>
			<point x="-614" y="1160"/>
			<point x="-581" y="1122"/>
		</contour>
		<contour>
			<point x="-199" y="1122" type="curve" smooth="yes"/>
			<point x="-133" y="1122"/>
			<point x="-100" y="1160"/>
			<point x="-100" y="1227" type="curve" smooth="yes"/>
			<point x="-100" y="1234" type="line" smooth="yes"/>
			<point x="-100" y="1300"/>
			<point x="-133" y="1338"/>
			<point x="-199" y="1338" type="curve" smooth="yes"/>
			<point x="-266" y="1338"/>
			<point x="-298" y="1300"/>
			<point x="-298" y="1234" type="curve" smooth="yes"/>
			<point x="-298" y="1227" type="line" smooth="yes"/>
			<point x="-298" y="1160"/>
			<point x="-266" y="1122"/>
		</contour>
	</outline>
</glyph>
<glyph name="cedillacomb" format="2">
	<advance width="0"/>
	<unicode hex="0327"/>
	<anchor x="-293" y="0" name="_bottom"/>
	<anchor x="-249" y="-389" name="bottom"/>
	<outline>
		<contour>
			<point x="-221" y="21" type="line"/>
			<point x="-354" y="21" type="line"/>
			<point x="-376" y="-156" type="line"/>
			<point x="-376" y="-156"/>
			<point x="-371" y="-156"/>
			<point x="-358" y="-157" type="curve" smooth="yes"/>
			<point x="-245" y="-164"/>
			<point x="-205" y="-177"/>
			<point x="-205" y="-217" type="curve" smooth="yes"/>
			<point x="-205" y="-219" type="line" smooth="yes"/>
			<point x="-205" y="-253"/>
			<point x="-241" y="-270"/>
			<point x="-306" y="-270" type="curve" smooth="yes"/>
			<point x="-359" y="-270"/>
			<point x="-409" y="-261"/>
			<point x="-450" y="-248" type="curve"/>
			<point x="-428" y="-368" type="line"/>
			<point x="-390" y="-378"/>
			<point x="-336" y="-387"/>
			<point x="-281" y="-387" type="curve" smooth="yes"/>
			<point x="-138" y="-387"/>
			<point x="-60" y="-338"/>
			<point x="-60" y="-233" type="curve" smooth="yes"/>
			<point x="-60" y="-227" type="line" smooth="yes"/>
			<point x="-60" y="-134"/>
			<point x="-124" y="-85"/>
			<point x="-257" y="-79" type="curve" smooth="yes"/>
			<point x="-280" y="-78"/>
			<point x="-302" y="-79"/>
			<point x="-325" y="-80" type="curve"/>
			<point x="-243" y="-135" type="line"/>
		</contour>
	</outline>
</glyph>
<glyph name="Danda.bn" format="2">
  <advance width="719"/>
  <unicode hex="0964"/>
  <outline>
    <contour>
      <point x="266" y="1329" type="line"/>
      <point x="266" y="-60" type="line"/>
      <point x="452" y="-60" type="line"/>
      <point x="452" y="1329" type="line"/>
    </contour>
  </outline>
</glyph>
<glyph name="Doubledanda.bn" format="2">
  <advance width="1352"/>
  <unicode hex="0965"/>
  <outline>
    <contour>
      <point x="266" y="1329" type="line"/>
      <point x="266" y="-60" type="line"/>
      <point x="452" y="-60" type="line"/>
      <point x="452" y="1329" type="line"/>
    </contour>
    <contour>
      <point x="899" y="1329" type="line"/>
      <point x="899" y="-60" type="line"/>
      <point x="1085" y="-60" type="line"/>
      <point x="1085" y="1329" type="line"/>
    </contour>
  </outline>
</glyph>
<glyph name="anji.bn" format="2">
  <advance width="1203"/>
  <unicode hex="0980"/>
  <outline>
    <contour>
      <point x="584" y="1275" type="curve" smooth="yes"/>
      <point x="394" y="1275"/>
      <point x="237" y="1201"/>
      <point x="165" y="1056" type="curve" smooth="yes"/>
      <point x="126" y="995"/>
      <point x="90" y="831"/>
      <point x="90" y="737" type="curve" smooth="yes"/>
      <point x="90" y="533"/>
      <point x="224" y="410"/>
      <point x="479" y="412" type="curve" smooth="yes"/>
      <point x="647" y="413" type="line"/>
      <point x="659" y="566" type="line"/>
      <point x="490" y="566" type="line" smooth="yes"/>
      <point x="355" y="566"/>
      <point x="278" y="628"/>
      <point x="278" y="743" type="curve" smooth="yes"/>
      <point x="278" y="811"/>
      <point x="309" y="947"/>
      <point x="344" y="998" type="curve" smooth="yes"/>
      <point x="394" y="1079"/>
      <point x="482" y="1119"/>
      <point x="588" y="1119" type="curve" smooth="yes"/>
      <point x="764" y="1119"/>
      <point x="834" y="1037"/>
      <point x="834" y="891" type="curve" smooth="yes"/>
      <point x="834" y="241" type="line"/>
      <point x="1019" y="244" type="line"/>
      <point x="1019" y="890" type="line" smooth="yes"/>
      <point x="1019" y="1141"/>
      <point x="880" y="1275"/>
    </contour>
    <contour>
      <point x="1020" y="314" type="line"/>
      <point x="834" y="314" type="line"/>
      <point x="834" y="201" type="line" smooth="yes"/>
      <point x="834" y="12"/>
      <point x="938" y="-75"/>
      <point x="1130" y="-75" type="curve" smooth="yes"/>
      <point x="1188" y="-75" type="line"/>
      <point x="1177" y="80" type="line"/>
      <point x="1129" y="80" type="line" smooth="yes"/>
      <point x="1056" y="80"/>
      <point x="1020" y="124"/>
      <point x="1020" y="201" type="curve" smooth="yes"/>
    </contour>
  </outline>
</glyph>
<glyph name="Candrabindu.bn" format="2">
	<advance width="0"/>
	<unicode hex="0981"/>
	<anchor x="-88" y="1736" name="_top2"/>
	<outline>
		<contour>
			<point x="612" y="1751" type="curve"/>
			<point x="493" y="1751" type="line"/>
			<point x="493" y="1729" type="line" smooth="yes"/>
			<point x="493" y="1593"/>
			<point x="411" y="1531"/>
			<point x="251" y="1531" type="curve" smooth="yes"/>
			<point x="92" y="1531"/>
			<point x="10" y="1593"/>
			<point x="10" y="1729" type="curve" smooth="yes"/>
			<point x="10" y="1751" type="line"/>
			<point x="-110" y="1751" type="line"/>
			<point x="-110" y="1735"/>
			<point x="-111" y="1722"/>
			<point x="-111" y="1712" type="curve" smooth="yes"/>
			<point x="-111" y="1510"/>
			<point x="15" y="1401"/>
			<point x="251" y="1401" type="curve" smooth="yes"/>
			<point x="489" y="1401"/>
			<point x="613" y="1510"/>
			<point x="613" y="1712" type="curve" smooth="yes"/>
			<point x="613" y="1721"/>
			<point x="613" y="1734"/>
		</contour>
		<contour>
			<point x="252" y="1679" type="curve" smooth="yes"/>
			<point x="316" y="1679"/>
			<point x="348" y="1716"/>
			<point x="348" y="1775" type="curve" smooth="yes"/>
			<point x="348" y="1781" type="line" smooth="yes"/>
			<point x="348" y="1841"/>
			<point x="316" y="1878"/>
			<point x="252" y="1878" type="curve" smooth="yes"/>
			<point x="187" y="1878"/>
			<point x="155" y="1842"/>
			<point x="155" y="1781" type="curve" smooth="yes"/>
			<point x="155" y="1775" type="line" smooth="yes"/>
			<point x="155" y="1716"/>
			<point x="187" y="1679"/>
		</contour>
	</outline>
</glyph>
<glyph name="Anuswara.bn" format="2">
  <advance width="1027"/>
  <unicode hex="0982"/>
  <outline>
    <contour>
      <point x="927" y="-83" type="line"/>
      <point x="943" y="81" type="line"/>
      <point x="149" y="488" type="line"/>
      <point x="133" y="322" type="line"/>
    </contour>
    <contour>
      <point x="506" y="585" type="curve" smooth="yes"/>
      <point x="747" y="585"/>
      <point x="878" y="703"/>
      <point x="878" y="920" type="curve" smooth="yes"/>
      <point x="878" y="941" type="line" smooth="yes"/>
      <point x="878" y="1158"/>
      <point x="745" y="1280"/>
      <point x="503" y="1280" type="curve" smooth="yes"/>
      <point x="263" y="1280"/>
      <point x="130" y="1158"/>
      <point x="130" y="941" type="curve" smooth="yes"/>
      <point x="130" y="920" type="line" smooth="yes"/>
      <point x="130" y="703"/>
      <point x="262" y="585"/>
    </contour>
    <contour>
      <point x="505" y="723" type="curve" smooth="yes"/>
      <point x="373" y="723"/>
      <point x="303" y="790"/>
      <point x="303" y="916" type="curve" smooth="yes"/>
      <point x="303" y="944" type="line" smooth="yes"/>
      <point x="303" y="1073"/>
      <point x="373" y="1142"/>
      <point x="505" y="1142" type="curve" smooth="yes"/>
      <point x="635" y="1142"/>
      <point x="706" y="1073"/>
      <point x="706" y="944" type="curve" smooth="yes"/>
      <point x="706" y="916" type="line" smooth="yes"/>
      <point x="706" y="790"/>
      <point x="635" y="723"/>
    </contour>
  </outline>
</glyph>
<glyph name="Visarga.bn" format="2">
  <advance width="1009"/>
  <unicode hex="0983"/>
  <outline>
    <contour>
      <point x="507" y="669" type="curve" smooth="yes"/>
      <point x="748" y="669"/>
      <point x="879" y="773"/>
      <point x="879" y="968" type="curve" smooth="yes"/>
      <point x="879" y="981" type="line" smooth="yes"/>
      <point x="879" y="1174"/>
      <point x="746" y="1280"/>
      <point x="504" y="1280" type="curve" smooth="yes"/>
      <point x="264" y="1280"/>
      <point x="131" y="1174"/>
      <point x="131" y="981" type="curve" smooth="yes"/>
      <point x="131" y="968" type="line" smooth="yes"/>
      <point x="131" y="773"/>
      <point x="263" y="669"/>
    </contour>
    <contour>
      <point x="506" y="803" type="curve" smooth="yes"/>
      <point x="374" y="803"/>
      <point x="304" y="858"/>
      <point x="304" y="966" type="curve" smooth="yes"/>
      <point x="304" y="982" type="line" smooth="yes"/>
      <point x="304" y="1090"/>
      <point x="374" y="1146"/>
      <point x="506" y="1146" type="curve" smooth="yes"/>
      <point x="636" y="1146"/>
      <point x="707" y="1090"/>
      <point x="707" y="982" type="curve" smooth="yes"/>
      <point x="707" y="966" type="line" smooth="yes"/>
      <point x="707" y="858"/>
      <point x="636" y="803"/>
    </contour>
    <contour>
      <point x="506" y="-25" type="curve" smooth="yes"/>
      <point x="747" y="-25"/>
      <point x="878" y="79"/>
      <point x="878" y="274" type="curve" smooth="yes"/>
      <point x="878" y="287" type="line" smooth="yes"/>
      <point x="878" y="480"/>
      <point x="745" y="586"/>
      <point x="503" y="586" type="curve" smooth="yes"/>
      <point x="263" y="586"/>
      <point x="130" y="480"/>
      <point x="130" y="287" type="curve" smooth="yes"/>
      <point x="130" y="274" type="line" smooth="yes"/>
      <point x="130" y="79"/>
      <point x="262" y="-25"/>
    </contour>
    <contour>
      <point x="505" y="109" type="curve" smooth="yes"/>
      <point x="373" y="109"/>
      <point x="303" y="164"/>
      <point x="303" y="272" type="curve" smooth="yes"/>
      <point x="303" y="288" type="line" smooth="yes"/>
      <point x="303" y="396"/>
      <point x="373" y="452"/>
      <point x="505" y="452" type="curve" smooth="yes"/>
      <point x="635" y="452"/>
      <point x="706" y="396"/>
      <point x="706" y="288" type="curve" smooth="yes"/>
      <point x="706" y="272" type="line" smooth="yes"/>
      <point x="706" y="164"/>
      <point x="635" y="109"/>
    </contour>
  </outline>
</glyph>
<glyph name="VowelA.bn" format="2">
  <advance width="1931"/>
  <unicode hex="0985"/>
  <note>
VowelA.bn
</note>
  <anchor x="1554" y="1426" name="top"/>
  <anchor x="1335" y="1749" name="top2"/>
  <outline>
    <contour>
      <point x="763" y="138" type="curve" smooth="yes"/>
      <point x="1106" y="138"/>
      <point x="1298" y="302"/>
      <point x="1298" y="595" type="curve" smooth="yes"/>
      <point x="1298" y="655" type="line" smooth="yes"/>
      <point x="1298" y="880"/>
      <point x="1165" y="1006"/>
      <point x="926" y="1006" type="curve" smooth="yes"/>
      <point x="694" y="1006"/>
      <point x="567" y="885"/>
      <point x="567" y="655" type="curve" smooth="yes"/>
      <point x="567" y="624"/>
      <point x="567" y="595"/>
      <point x="567" y="565" type="curve"/>
      <point x="755" y="565" type="line"/>
      <point x="755" y="594"/>
      <point x="755" y="623"/>
      <point x="755" y="655" type="curve" smooth="yes"/>
      <point x="755" y="781"/>
      <point x="814" y="844"/>
      <point x="933" y="844" type="curve" smooth="yes"/>
      <point x="1052" y="844"/>
      <point x="1111" y="781"/>
      <point x="1111" y="655" type="curve" smooth="yes"/>
      <point x="1111" y="600" type="line" smooth="yes"/>
      <point x="1111" y="405"/>
      <point x="988" y="303"/>
      <point x="750" y="303" type="curve" smooth="yes"/>
      <point x="474" y="303"/>
      <point x="328" y="430"/>
      <point x="312" y="676" type="curve" smooth="yes"/>
      <point x="297" y="903" type="line"/>
      <point x="114" y="904" type="line"/>
      <point x="127" y="677" type="line" smooth="yes"/>
      <point x="147" y="326"/>
      <point x="365" y="138"/>
    </contour>
    <contour>
      <point x="1598" y="-2" type="line"/>
      <point x="1759" y="-2" type="line"/>
      <point x="1759" y="1200" type="line"/>
      <point x="1573" y="1200" type="line"/>
      <point x="1573" y="306" type="line"/>
      <point x="1581" y="122" type="line"/>
      <point x="1636" y="176" type="line"/>
      <point x="1595" y="183" type="line"/>
      <point x="1137" y="414" type="line"/>
      <point x="1077" y="251" type="line"/>
    </contour>
    <contour>
      <point x="-49" y="1104" type="line"/>
      <point x="1757" y="1104" type="line"/>
      <point x="1756" y="1259" type="line"/>
      <point x="-60" y="1259" type="line"/>
    </contour>
    <contour>
      <point x="1680" y="1190" type="line"/>
      <point x="1680" y="834" type="line"/>
      <point x="1759" y="834" type="line"/>
      <point x="1759" y="1190" type="line"/>
    </contour>
    <contour>
      <point x="1680" y="1104" type="line"/>
      <point x="1982" y="1104" type="line"/>
      <point x="1971" y="1259" type="line"/>
      <point x="1680" y="1259" type="line"/>
    </contour>
  </outline>
</glyph>
<glyph name="VowelAa.bn" format="2">
  <advance width="2471"/>
  <unicode hex="0986"/>
  <note>
VowelAa.bn
</note>
  <anchor x="2094" y="1426" name="top"/>
  <anchor x="1875" y="1749" name="top2"/>
  <outline>
    <contour>
      <point x="763" y="138" type="curve" smooth="yes"/>
      <point x="1106" y="138"/>
      <point x="1298" y="302"/>
      <point x="1298" y="595" type="curve" smooth="yes"/>
      <point x="1298" y="655" type="line" smooth="yes"/>
      <point x="1298" y="880"/>
      <point x="1165" y="1006"/>
      <point x="926" y="1006" type="curve" smooth="yes"/>
      <point x="694" y="1006"/>
      <point x="567" y="885"/>
      <point x="567" y="655" type="curve" smooth="yes"/>
      <point x="567" y="624"/>
      <point x="567" y="595"/>
      <point x="567" y="565" type="curve"/>
      <point x="755" y="565" type="line"/>
      <point x="755" y="594"/>
      <point x="755" y="623"/>
      <point x="755" y="655" type="curve" smooth="yes"/>
      <point x="755" y="781"/>
      <point x="814" y="844"/>
      <point x="933" y="844" type="curve" smooth="yes"/>
      <point x="1052" y="844"/>
      <point x="1111" y="781"/>
      <point x="1111" y="655" type="curve" smooth="yes"/>
      <point x="1111" y="600" type="line" smooth="yes"/>
      <point x="1111" y="405"/>
      <point x="988" y="303"/>
      <point x="750" y="303" type="curve" smooth="yes"/>
      <point x="474" y="303"/>
      <point x="328" y="430"/>
      <point x="312" y="676" type="curve" smooth="yes"/>
      <point x="297" y="903" type="line"/>
      <point x="114" y="904" type="line"/>
      <point x="127" y="677" type="line" smooth="yes"/>
      <point x="147" y="326"/>
      <point x="365" y="138"/>
    </contour>
    <contour>
      <point x="1598" y="-2" type="line"/>
      <point x="1759" y="-2" type="line"/>
      <point x="1759" y="1200" type="line"/>
      <point x="1573" y="1200" type="line"/>
      <point x="1573" y="306" type="line"/>
      <point x="1581" y="122" type="line"/>
      <point x="1636" y="176" type="line"/>
      <point x="1595" y="183" type="line"/>
      <point x="1137" y="414" type="line"/>
      <point x="1077" y="251" type="line"/>
    </contour>
    <contour>
      <point x="-49" y="1104" type="line"/>
      <point x="1757" y="1104" type="line"/>
      <point x="1756" y="1259" type="line"/>
      <point x="-60" y="1259" type="line"/>
    </contour>
    <contour>
      <point x="1680" y="1190" type="line"/>
      <point x="1680" y="834" type="line"/>
      <point x="1759" y="834" type="line"/>
      <point x="1759" y="1190" type="line"/>
    </contour>
    <contour>
      <point x="1680" y="1104" type="line"/>
      <point x="1982" y="1104" type="line"/>
      <point x="1971" y="1259" type="line"/>
      <point x="1680" y="1259" type="line"/>
    </contour>
    <contour>
      <point x="2113" y="0" type="line"/>
      <point x="2299" y="0" type="line"/>
      <point x="2299" y="1157" type="line"/>
      <point x="2113" y="1157" type="line"/>
    </contour>
    <contour>
      <point x="1900" y="1104" type="line"/>
      <point x="2289" y="1104" type="line"/>
      <point x="2289" y="1259" type="line"/>
      <point x="1889" y="1259" type="line"/>
    </contour>
    <contour>
      <point x="2220" y="1190" type="line"/>
      <point x="2220" y="834" type="line"/>
      <point x="2299" y="834" type="line"/>
      <point x="2299" y="1190" type="line"/>
    </contour>
    <contour>
      <point x="2220" y="1104" type="line"/>
      <point x="2522" y="1104" type="line"/>
      <point x="2511" y="1259" type="line"/>
      <point x="2220" y="1259" type="line"/>
    </contour>
  </outline>
</glyph>
<glyph name="VowelI.bn" format="2">
  <advance width="1149"/>
  <unicode hex="0987"/>
  <note>
VowelI.bn
</note>
  <anchor x="718" y="168" name="bottom1"/>
  <anchor x="639.26" y="1526" name="top"/>
  <anchor x="815.26" y="1603" name="top2"/>
  <outline>
    <contour>
      <point x="1083" y="-163" type="line"/>
      <point x="1097" y="12" type="line"/>
      <point x="663" y="167" type="line"/>
      <point x="573" y="196" type="line"/>
      <point x="581" y="259" type="line"/>
      <point x="379" y="240" type="line"/>
      <point x="455" y="217"/>
      <point x="529" y="206"/>
      <point x="600" y="206" type="curve" smooth="yes"/>
      <point x="867" y="206"/>
      <point x="1016" y="337"/>
      <point x="1016" y="579" type="curve" smooth="yes"/>
      <point x="1016" y="610" type="line" smooth="yes"/>
      <point x="1016" y="865"/>
      <point x="857" y="1005"/>
      <point x="581" y="1005" type="curve" smooth="yes"/>
      <point x="302" y="1005"/>
      <point x="153" y="864"/>
      <point x="153" y="613" type="curve" smooth="yes"/>
      <point x="153" y="593"/>
      <point x="153" y="571"/>
      <point x="153" y="549" type="curve"/>
      <point x="341" y="549" type="line"/>
      <point x="341" y="571"/>
      <point x="341" y="594"/>
      <point x="341" y="613" type="curve" smooth="yes"/>
      <point x="341" y="761"/>
      <point x="427" y="843"/>
      <point x="583" y="843" type="curve" smooth="yes"/>
      <point x="742" y="843"/>
      <point x="828" y="766"/>
      <point x="828" y="610" type="curve" smooth="yes"/>
      <point x="828" y="580" type="line" smooth="yes"/>
      <point x="828" y="423"/>
      <point x="718" y="330"/>
      <point x="487" y="330" type="curve" smooth="yes"/>
      <point x="384" y="330"/>
      <point x="284" y="344"/>
      <point x="181" y="363" type="curve" smooth="yes"/>
      <point x="133" y="372" type="line"/>
      <point x="122" y="206" type="line"/>
    </contour>
    <contour>
      <point x="-29" y="1104" type="line"/>
      <point x="1185" y="1104" type="line"/>
      <point x="1174" y="1259" type="line"/>
      <point x="-40" y="1259" type="line"/>
    </contour>
    <contour>
      <point x="1032" y="1295" type="line"/>
      <point x="1039" y="1315"/>
      <point x="1042" y="1336"/>
      <point x="1042" y="1359" type="curve" smooth="yes"/>
      <point x="1042" y="1538"/>
      <point x="927" y="1618"/>
      <point x="720" y="1618" type="curve" smooth="yes"/>
      <point x="412" y="1618" type="line" smooth="yes"/>
      <point x="294" y="1618"/>
      <point x="243" y="1655"/>
      <point x="237" y="1742" type="curve" smooth="yes"/>
      <point x="235" y="1767" type="line"/>
      <point x="73" y="1767" type="line"/>
      <point x="73" y="1737" type="line" smooth="yes"/>
      <point x="73" y="1551"/>
      <point x="181" y="1463"/>
      <point x="407" y="1463" type="curve" smooth="yes"/>
      <point x="697" y="1463" type="line" smooth="yes"/>
      <point x="817" y="1463"/>
      <point x="869" y="1428"/>
      <point x="869" y="1340" type="curve" smooth="yes"/>
      <point x="869" y="1299"/>
      <point x="859" y="1264"/>
      <point x="841" y="1235" type="curve"/>
      <point x="895" y="1239" type="line"/>
    </contour>
  </outline>
</glyph>
<glyph name="VowelIi.bn" format="2">
	<advance width="1536"/>
	<unicode hex="0988"/>
	<anchor x="991.8" y="1526" name="top"/>
	<anchor x="1167.8" y="1603" name="top2"/>
	<outline>
		<contour>
			<point x="1180" y="-46" type="line"/>
			<point x="1365" y="-46" type="line"/>
			<point x="1365" y="884" type="line"/>
			<point x="1186" y="884" type="line"/>
			<point x="1038" y="738"/>
			<point x="867" y="553"/>
			<point x="744" y="432" type="curve"/>
			<point x="806" y="388" type="line"/>
			<point x="851" y="444"/>
			<point x="875" y="522"/>
			<point x="875" y="609" type="curve" smooth="yes"/>
			<point x="875" y="650" type="line" smooth="yes"/>
			<point x="875" y="882"/>
			<point x="754" y="1008"/>
			<point x="516" y="1008" type="curve" smooth="yes"/>
			<point x="273" y="1008"/>
			<point x="149" y="881"/>
			<point x="149" y="646" type="curve" smooth="yes"/>
			<point x="149" y="613"/>
			<point x="149" y="577"/>
			<point x="149" y="545" type="curve"/>
			<point x="336" y="545" type="line"/>
			<point x="336" y="578"/>
			<point x="336" y="614"/>
			<point x="336" y="646" type="curve" smooth="yes"/>
			<point x="336" y="780"/>
			<point x="397" y="847"/>
			<point x="519" y="847" type="curve" smooth="yes"/>
			<point x="642" y="847"/>
			<point x="703" y="778"/>
			<point x="703" y="639" type="curve" smooth="yes"/>
			<point x="703" y="552" type="line" smooth="yes"/>
			<point x="703" y="415"/>
			<point x="617" y="332"/>
			<point x="387" y="332" type="curve" smooth="yes"/>
			<point x="310" y="332"/>
			<point x="244" y="342"/>
			<point x="189" y="354" type="curve" smooth="yes"/>
			<point x="140" y="365" type="line"/>
			<point x="140" y="208" type="line"/>
			<point x="212" y="187"/>
			<point x="320" y="174"/>
			<point x="408" y="174" type="curve" smooth="yes"/>
			<point x="580" y="174"/>
			<point x="700" y="211"/>
			<point x="797" y="291" type="curve" smooth="yes"/>
			<point x="927" y="394"/>
			<point x="1124" y="593"/>
			<point x="1296" y="770" type="curve"/>
			<point x="1194" y="814" type="line"/>
			<point x="1180" y="508" type="line"/>
		</contour>
		<contour>
			<point x="-55" y="1104" type="line"/>
			<point x="1573" y="1104" type="line"/>
			<point x="1562" y="1259" type="line"/>
			<point x="-66" y="1259" type="line"/>
		</contour>
		<contour>
			<point x="1385" y="1295" type="line"/>
			<point x="1392" y="1315"/>
			<point x="1395" y="1336"/>
			<point x="1395" y="1359" type="curve" smooth="yes"/>
			<point x="1395" y="1538"/>
			<point x="1280" y="1618"/>
			<point x="1073" y="1618" type="curve" smooth="yes"/>
			<point x="491" y="1618" type="line" smooth="yes"/>
			<point x="374" y="1618"/>
			<point x="321" y="1656"/>
			<point x="316" y="1742" type="curve" smooth="yes"/>
			<point x="315" y="1767" type="line"/>
			<point x="153" y="1767" type="line"/>
			<point x="153" y="1737" type="line" smooth="yes"/>
			<point x="153" y="1552"/>
			<point x="261" y="1463"/>
			<point x="486" y="1463" type="curve" smooth="yes"/>
			<point x="1050" y="1463" type="line" smooth="yes"/>
			<point x="1170" y="1463"/>
			<point x="1222" y="1427"/>
			<point x="1222" y="1340" type="curve" smooth="yes"/>
			<point x="1222" y="1299"/>
			<point x="1212" y="1264"/>
			<point x="1194" y="1235" type="curve"/>
			<point x="1248" y="1239" type="line"/>
		</contour>
	</outline>
</glyph>
<glyph name="VowelU.bn" format="2">
	<advance width="1445"/>
	<unicode hex="0989"/>
	<anchor x="956" y="185" name="bottom1"/>
	<anchor x="926.28" y="1526" name="top"/>
	<anchor x="1102.28" y="1603" name="top2"/>
	<note>
		VowelU.bn
	</note>
	<outline>
		<contour>
			<point x="324" y="575" type="curve" smooth="yes"/>
			<point x="301" y="908" type="line"/>
			<point x="119" y="908" type="line"/>
			<point x="141" y="562" type="line" smooth="yes"/>
			<point x="164" y="198"/>
			<point x="380" y="10"/>
			<point x="771" y="10" type="curve" smooth="yes"/>
			<point x="1142" y="10"/>
			<point x="1335" y="184"/>
			<point x="1335" y="501" type="curve" smooth="yes"/>
			<point x="1335" y="630"/>
			<point x="1326" y="732"/>
			<point x="1305" y="873" type="curve"/>
			<point x="1156" y="891" type="line"/>
			<point x="1089" y="806" type="line" smooth="yes"/>
			<point x="1026" y="727"/>
			<point x="974" y="681"/>
			<point x="891" y="681" type="curve" smooth="yes"/>
			<point x="812" y="681"/>
			<point x="772" y="729"/>
			<point x="772" y="830" type="curve" smooth="yes"/>
			<point x="772" y="1211" type="line"/>
			<point x="586" y="1211" type="line"/>
			<point x="586" y="818" type="line" smooth="yes"/>
			<point x="586" y="618"/>
			<point x="681" y="519"/>
			<point x="881" y="519" type="curve" smooth="yes"/>
			<point x="1007" y="519"/>
			<point x="1101" y="573"/>
			<point x="1179" y="670" type="curve" smooth="yes"/>
			<point x="1269" y="783" type="line"/>
			<point x="1137" y="766" type="line"/>
			<point x="1145" y="684"/>
			<point x="1149" y="591"/>
			<point x="1149" y="501" type="curve" smooth="yes"/>
			<point x="1149" y="284"/>
			<point x="1015" y="175"/>
			<point x="765" y="175" type="curve" smooth="yes"/>
			<point x="491" y="175"/>
			<point x="342" y="308"/>
		</contour>
		<contour>
			<point x="-44" y="1104" type="line"/>
			<point x="1515" y="1104" type="line"/>
			<point x="1504" y="1259" type="line"/>
			<point x="-55" y="1259" type="line"/>
		</contour>
		<contour>
			<point x="1320" y="1295" type="line"/>
			<point x="1326" y="1315"/>
			<point x="1329" y="1336"/>
			<point x="1329" y="1359" type="curve" smooth="yes"/>
			<point x="1329" y="1538"/>
			<point x="1215" y="1618"/>
			<point x="1008" y="1618" type="curve" smooth="yes"/>
			<point x="479" y="1618" type="line" smooth="yes"/>
			<point x="361" y="1618"/>
			<point x="309" y="1656"/>
			<point x="304" y="1742" type="curve" smooth="yes"/>
			<point x="302" y="1767" type="line"/>
			<point x="140" y="1767" type="line"/>
			<point x="140" y="1737" type="line" smooth="yes"/>
			<point x="140" y="1552"/>
			<point x="248" y="1463"/>
			<point x="474" y="1463" type="curve" smooth="yes"/>
			<point x="985" y="1463" type="line" smooth="yes"/>
			<point x="1104" y="1463"/>
			<point x="1156" y="1427"/>
			<point x="1156" y="1340" type="curve" smooth="yes"/>
			<point x="1156" y="1299"/>
			<point x="1146" y="1264"/>
			<point x="1128" y="1235" type="curve"/>
			<point x="1182" y="1239" type="line"/>
		</contour>
	</outline>
</glyph>
<glyph name="VowelUu.bn" format="2">
	<advance width="1632"/>
	<unicode hex="098A"/>
	<anchor x="1114.14" y="1526" name="top"/>
	<anchor x="1290.14" y="1603" name="top2"/>
	<outline>
		<contour>
			<point x="775" y="1211" type="line"/>
			<point x="775" y="818" type="line" smooth="yes"/>
			<point x="775" y="618"/>
			<point x="870" y="519"/>
			<point x="1071" y="519" type="curve" smooth="yes"/>
			<point x="1196" y="519"/>
			<point x="1289" y="573"/>
			<point x="1368" y="670" type="curve" smooth="yes"/>
			<point x="1460" y="783" type="line"/>
			<point x="1326" y="766" type="line"/>
			<point x="1335" y="684"/>
			<point x="1338" y="590"/>
			<point x="1338" y="502" type="curve" smooth="yes"/>
			<point x="1338" y="281"/>
			<point x="1194" y="176"/>
			<point x="959" y="176" type="curve" smooth="yes"/>
			<point x="708" y="176"/>
			<point x="601" y="329"/>
			<point x="585" y="587" type="curve" smooth="yes"/>
			<point x="564" y="921" type="line"/>
			<point x="397" y="921" type="line"/>
			<point x="418" y="595" type="line" smooth="yes"/>
			<point x="435" y="337"/>
			<point x="547" y="173"/>
			<point x="764" y="104" type="curve"/>
			<point x="637" y="215" type="line"/>
			<point x="603" y="138" type="line"/>
			<point x="725" y="140" type="line"/>
			<point x="464" y="188"/>
			<point x="332" y="333"/>
			<point x="314" y="573" type="curve" smooth="yes"/>
			<point x="295" y="828" type="line"/>
			<point x="128" y="828" type="line"/>
			<point x="148" y="553" type="line" smooth="yes"/>
			<point x="174" y="195"/>
			<point x="442" y="10"/>
			<point x="927" y="10" type="curve" smooth="yes"/>
			<point x="1317" y="10"/>
			<point x="1524" y="172"/>
			<point x="1524" y="501" type="curve" smooth="yes"/>
			<point x="1524" y="638"/>
			<point x="1515" y="733"/>
			<point x="1494" y="873" type="curve"/>
			<point x="1336" y="891" type="line"/>
			<point x="1274" y="805" type="line" smooth="yes"/>
			<point x="1211" y="718"/>
			<point x="1157" y="681"/>
			<point x="1080" y="681" type="curve" smooth="yes"/>
			<point x="1000" y="681"/>
			<point x="961" y="729"/>
			<point x="961" y="830" type="curve" smooth="yes"/>
			<point x="961" y="1210" type="line"/>
		</contour>
		<contour>
			<point x="-44" y="1103" type="line"/>
			<point x="1702" y="1103" type="line"/>
			<point x="1691" y="1259" type="line"/>
			<point x="-55" y="1259" type="line"/>
		</contour>
		<contour>
			<point x="1508" y="1295" type="line"/>
			<point x="1514" y="1315"/>
			<point x="1517" y="1336"/>
			<point x="1517" y="1359" type="curve" smooth="yes"/>
			<point x="1517" y="1538"/>
			<point x="1403" y="1618"/>
			<point x="1196" y="1618" type="curve" smooth="yes"/>
			<point x="540" y="1618" type="line" smooth="yes"/>
			<point x="423" y="1618"/>
			<point x="369" y="1656"/>
			<point x="365" y="1742" type="curve" smooth="yes"/>
			<point x="364" y="1767" type="line"/>
			<point x="202" y="1767" type="line"/>
			<point x="202" y="1737" type="line" smooth="yes"/>
			<point x="202" y="1552"/>
			<point x="310" y="1463"/>
			<point x="535" y="1463" type="curve" smooth="yes"/>
			<point x="1173" y="1463" type="line" smooth="yes"/>
			<point x="1292" y="1463"/>
			<point x="1344" y="1427"/>
			<point x="1344" y="1340" type="curve" smooth="yes"/>
			<point x="1344" y="1299"/>
			<point x="1334" y="1264"/>
			<point x="1316" y="1235" type="curve"/>
			<point x="1370" y="1239" type="line"/>
		</contour>
	</outline>
</glyph>
<glyph name="VowelLru.bn" format="2">
	<advance width="1418"/>
	<unicode hex="098C"/>
	<anchor x="577" y="1536" name="top2"/>
	<outline>
		<contour>
			<point x="121" y="0" type="curve"/>
			<point x="305" y="0" type="line"/>
			<point x="305" y="64"/>
			<point x="305" y="138"/>
			<point x="305" y="209" type="curve" smooth="yes"/>
			<point x="305" y="311" type="line" smooth="yes"/>
			<point x="305" y="447"/>
			<point x="368" y="514"/>
			<point x="488" y="514" type="curve" smooth="yes"/>
			<point x="604" y="514"/>
			<point x="665" y="446"/>
			<point x="665" y="309" type="curve" smooth="yes"/>
			<point x="665" y="0" type="line"/>
			<point x="864" y="0" type="line" smooth="yes"/>
			<point x="1143" y="0"/>
			<point x="1315" y="149"/>
			<point x="1315" y="418" type="curve" smooth="yes"/>
			<point x="1315" y="472" type="line" smooth="yes"/>
			<point x="1315" y="782"/>
			<point x="1154" y="951"/>
			<point x="789" y="1022" type="curve" smooth="yes"/>
			<point x="594" y="1060" type="line" smooth="yes"/>
			<point x="400" y="1098"/>
			<point x="346" y="1154"/>
			<point x="346" y="1261" type="curve" smooth="yes"/>
			<point x="346" y="1277" type="line"/>
			<point x="169" y="1277" type="line"/>
			<point x="169" y="1256" type="line" smooth="yes"/>
			<point x="169" y="1073"/>
			<point x="270" y="962"/>
			<point x="539" y="911" type="curve" smooth="yes"/>
			<point x="733" y="874" type="line" smooth="yes"/>
			<point x="1012" y="821"/>
			<point x="1128" y="702"/>
			<point x="1128" y="474" type="curve" smooth="yes"/>
			<point x="1128" y="424" type="line" smooth="yes"/>
			<point x="1128" y="238"/>
			<point x="1027" y="153"/>
			<point x="865" y="153" type="curve" smooth="yes"/>
			<point x="758" y="153" type="line"/>
			<point x="842" y="66" type="line"/>
			<point x="842" y="310" type="line" smooth="yes"/>
			<point x="842" y="551"/>
			<point x="710" y="678"/>
			<point x="477" y="678" type="curve" smooth="yes"/>
			<point x="249" y="678"/>
			<point x="121" y="547"/>
			<point x="121" y="312" type="curve" smooth="yes"/>
			<point x="121" y="208" type="line" smooth="yes"/>
			<point x="121" y="138"/>
			<point x="121" y="67"/>
		</contour>
	</outline>
</glyph>
<glyph name="VowelE.bn" format="2">
  <advance width="1412"/>
  <unicode hex="098F"/>
  <anchor x="508" y="1749" name="top2"/>
  <outline>
    <contour>
      <point x="843" y="545" type="curve"/>
      <point x="857" y="708" type="line"/>
      <point x="811" y="705"/>
      <point x="755" y="702"/>
      <point x="710" y="703" type="curve" smooth="yes"/>
      <point x="609" y="703"/>
      <point x="555" y="743"/>
      <point x="555" y="832" type="curve" smooth="yes"/>
      <point x="555" y="892"/>
      <point x="572" y="947"/>
      <point x="601" y="993" type="curve" smooth="yes"/>
      <point x="651" y="1069"/>
      <point x="734" y="1119"/>
      <point x="845" y="1119" type="curve" smooth="yes"/>
      <point x="982" y="1119"/>
      <point x="1060" y="1044"/>
      <point x="1060" y="872" type="curve" smooth="yes"/>
      <point x="1060" y="306" type="line"/>
      <point x="1071" y="118" type="line"/>
      <point x="1082" y="-4" type="line"/>
      <point x="1246" y="-4" type="line"/>
      <point x="1246" y="867" type="line" smooth="yes"/>
      <point x="1246" y="1144"/>
      <point x="1105" y="1282"/>
      <point x="841" y="1282" type="curve" smooth="yes"/>
      <point x="635" y="1282"/>
      <point x="487" y="1182"/>
      <point x="411" y="1034" type="curve" smooth="yes"/>
      <point x="379" y="972"/>
      <point x="365" y="901"/>
      <point x="365" y="828" type="curve" smooth="yes"/>
      <point x="365" y="633"/>
      <point x="480" y="538"/>
      <point x="700" y="538" type="curve" smooth="yes"/>
      <point x="752" y="538"/>
      <point x="798" y="541"/>
    </contour>
    <contour>
      <point x="1082" y="-4" type="line"/>
      <point x="1080" y="176" type="line"/>
      <point x="1058" y="176" type="line"/>
      <point x="1031" y="252"/>
      <point x="958" y="290"/>
      <point x="845" y="290" type="curve" smooth="yes"/>
      <point x="498" y="290" type="line" smooth="yes"/>
      <point x="350" y="290"/>
      <point x="275" y="371"/>
      <point x="272" y="538" type="curve" smooth="yes"/>
      <point x="271" y="601" type="line"/>
      <point x="87" y="601" type="line"/>
      <point x="87" y="579"/>
      <point x="87" y="556"/>
      <point x="87" y="534" type="curve" smooth="yes"/>
      <point x="87" y="262"/>
      <point x="221" y="126"/>
      <point x="495" y="126" type="curve" smooth="yes"/>
      <point x="863" y="126" type="line" smooth="yes"/>
      <point x="977" y="126"/>
      <point x="1036" y="94"/>
      <point x="1065" y="32" type="curve" smooth="yes"/>
    </contour>
  </outline>
</glyph>
<glyph name="VowelAi.bn" format="2">
  <advance width="1741"/>
  <unicode hex="0990"/>
  <anchor x="1390" y="1555" name="top2"/>
  <outline>
    <contour>
      <point x="1271" y="524" type="curve" smooth="yes"/>
      <point x="1538" y="524"/>
      <point x="1711" y="671"/>
      <point x="1711" y="971" type="curve" smooth="yes"/>
      <point x="1711" y="1033" type="line" smooth="yes"/>
      <point x="1711" y="1337"/>
      <point x="1559" y="1510"/>
      <point x="1176" y="1587" type="curve" smooth="yes"/>
      <point x="937" y="1635" type="line" smooth="yes"/>
      <point x="758" y="1671"/>
      <point x="708" y="1728"/>
      <point x="702" y="1836" type="curve" smooth="yes"/>
      <point x="701" y="1853" type="line"/>
      <point x="525" y="1853" type="line"/>
      <point x="525" y="1833" type="line" smooth="yes"/>
      <point x="525" y="1649"/>
      <point x="619" y="1537"/>
      <point x="886" y="1482" type="curve" smooth="yes"/>
      <point x="1128" y="1432" type="line" smooth="yes"/>
      <point x="1427" y="1370"/>
      <point x="1524" y="1251"/>
      <point x="1524" y="1037" type="curve" smooth="yes"/>
      <point x="1524" y="976" type="line" smooth="yes"/>
      <point x="1524" y="775"/>
      <point x="1432" y="684"/>
      <point x="1260" y="684" type="curve" smooth="yes"/>
      <point x="1224" y="684"/>
      <point x="1187" y="684"/>
      <point x="1164" y="688" type="curve"/>
      <point x="1154" y="526" type="line"/>
      <point x="1194" y="526" type="line"/>
      <point x="1199" y="525"/>
      <point x="1229" y="524"/>
    </contour>
    <contour>
      <point x="843" y="545" type="curve"/>
      <point x="857" y="708" type="line"/>
      <point x="811" y="705"/>
      <point x="755" y="702"/>
      <point x="710" y="703" type="curve" smooth="yes"/>
      <point x="609" y="703"/>
      <point x="555" y="743"/>
      <point x="555" y="832" type="curve" smooth="yes"/>
      <point x="555" y="892"/>
      <point x="572" y="947"/>
      <point x="601" y="993" type="curve" smooth="yes"/>
      <point x="651" y="1069"/>
      <point x="734" y="1119"/>
      <point x="845" y="1119" type="curve" smooth="yes"/>
      <point x="982" y="1119"/>
      <point x="1060" y="1044"/>
      <point x="1060" y="872" type="curve" smooth="yes"/>
      <point x="1060" y="306" type="line"/>
      <point x="1071" y="118" type="line"/>
      <point x="1082" y="-4" type="line"/>
      <point x="1246" y="-4" type="line"/>
      <point x="1246" y="867" type="line" smooth="yes"/>
      <point x="1246" y="1144"/>
      <point x="1105" y="1282"/>
      <point x="841" y="1282" type="curve" smooth="yes"/>
      <point x="635" y="1282"/>
      <point x="487" y="1182"/>
      <point x="411" y="1034" type="curve" smooth="yes"/>
      <point x="379" y="972"/>
      <point x="365" y="901"/>
      <point x="365" y="828" type="curve" smooth="yes"/>
      <point x="365" y="633"/>
      <point x="480" y="538"/>
      <point x="700" y="538" type="curve" smooth="yes"/>
      <point x="752" y="538"/>
      <point x="798" y="541"/>
    </contour>
    <contour>
      <point x="1082" y="-4" type="line"/>
      <point x="1080" y="176" type="line"/>
      <point x="1058" y="176" type="line"/>
      <point x="1031" y="252"/>
      <point x="958" y="290"/>
      <point x="845" y="290" type="curve" smooth="yes"/>
      <point x="498" y="290" type="line" smooth="yes"/>
      <point x="350" y="290"/>
      <point x="275" y="371"/>
      <point x="272" y="538" type="curve" smooth="yes"/>
      <point x="271" y="601" type="line"/>
      <point x="87" y="601" type="line"/>
      <point x="87" y="579"/>
      <point x="87" y="556"/>
      <point x="87" y="534" type="curve" smooth="yes"/>
      <point x="87" y="262"/>
      <point x="221" y="126"/>
      <point x="495" y="126" type="curve" smooth="yes"/>
      <point x="863" y="126" type="line" smooth="yes"/>
      <point x="977" y="126"/>
      <point x="1036" y="94"/>
      <point x="1065" y="32" type="curve" smooth="yes"/>
    </contour>
  </outline>
</glyph>
<glyph name="VowelO.bn" format="2">
	<advance width="1254"/>
	<unicode hex="0993"/>
	<anchor x="354" y="1749" name="top2"/>
	<outline>
		<contour>
			<point x="114" y="642" type="line"/>
			<point x="125" y="457" type="line" smooth="yes"/>
			<point x="142" y="169"/>
			<point x="333" y="11"/>
			<point x="672" y="11" type="curve" smooth="yes"/>
			<point x="983" y="11"/>
			<point x="1139" y="132"/>
			<point x="1139" y="330" type="curve" smooth="yes"/>
			<point x="1139" y="344" type="line" smooth="yes"/>
			<point x="1139" y="489"/>
			<point x="1055" y="576"/>
			<point x="900" y="594" type="curve"/>
			<point x="900" y="604" type="line"/>
			<point x="1050" y="626"/>
			<point x="1120" y="727"/>
			<point x="1120" y="882" type="curve" smooth="yes"/>
			<point x="1120" y="908" type="line" smooth="yes"/>
			<point x="1120" y="1138"/>
			<point x="969" y="1282"/>
			<point x="694" y="1282" type="curve" smooth="yes"/>
			<point x="432" y="1282"/>
			<point x="273" y="1140"/>
			<point x="273" y="914" type="curve" smooth="yes"/>
			<point x="273" y="892"/>
			<point x="273" y="850"/>
			<point x="273" y="808" type="curve"/>
			<point x="460" y="808" type="line"/>
			<point x="460" y="847"/>
			<point x="460" y="886"/>
			<point x="460" y="908" type="curve" smooth="yes"/>
			<point x="460" y="1039"/>
			<point x="540" y="1119"/>
			<point x="696" y="1119" type="curve" smooth="yes"/>
			<point x="855" y="1119"/>
			<point x="931" y="1039"/>
			<point x="931" y="908" type="curve" smooth="yes"/>
			<point x="931" y="877" type="line" smooth="yes"/>
			<point x="931" y="747"/>
			<point x="851" y="687"/>
			<point x="699" y="683" type="curve" smooth="yes"/>
			<point x="586" y="680" type="line"/>
			<point x="586" y="518" type="line"/>
			<point x="709" y="514" type="line" smooth="yes"/>
			<point x="872" y="509"/>
			<point x="947" y="464"/>
			<point x="947" y="359" type="curve" smooth="yes"/>
			<point x="947" y="350" type="line" smooth="yes"/>
			<point x="947" y="239"/>
			<point x="853" y="176"/>
			<point x="673" y="176" type="curve" smooth="yes"/>
			<point x="426" y="176"/>
			<point x="317" y="287"/>
			<point x="305" y="460" type="curve" smooth="yes"/>
			<point x="292" y="642" type="line"/>
		</contour>
	</outline>
</glyph>
<glyph name="VowelAu.bn" format="2">
	<advance width="1600"/>
	<unicode hex="0994"/>
	<anchor x="1269" y="1555" name="top2"/>
	<outline>
		<contour>
			<point x="1117" y="570" type="curve" smooth="yes"/>
			<point x="1414" y="570"/>
			<point x="1570" y="713"/>
			<point x="1570" y="982" type="curve" smooth="yes"/>
			<point x="1570" y="1063" type="line" smooth="yes"/>
			<point x="1570" y="1331"/>
			<point x="1417" y="1512"/>
			<point x="1034" y="1587" type="curve" smooth="yes"/>
			<point x="795" y="1634" type="line" smooth="yes"/>
			<point x="615" y="1669"/>
			<point x="567" y="1729"/>
			<point x="561" y="1836" type="curve" smooth="yes"/>
			<point x="560" y="1853" type="line"/>
			<point x="384" y="1853" type="line"/>
			<point x="384" y="1833" type="line" smooth="yes"/>
			<point x="384" y="1649"/>
			<point x="476" y="1539"/>
			<point x="746" y="1482" type="curve" smooth="yes"/>
			<point x="986" y="1431" type="line" smooth="yes"/>
			<point x="1284" y="1368"/>
			<point x="1383" y="1247"/>
			<point x="1383" y="1062" type="curve" smooth="yes"/>
			<point x="1383" y="982" type="line" smooth="yes"/>
			<point x="1383" y="802"/>
			<point x="1288" y="720"/>
			<point x="1086" y="720" type="curve" smooth="yes"/>
			<point x="1050" y="720"/>
			<point x="996" y="720"/>
			<point x="960" y="720" type="curve"/>
			<point x="836" y="619" type="line"/>
			<point x="886" y="588" type="line"/>
			<point x="951" y="577"/>
			<point x="961" y="570"/>
		</contour>
		<contour>
			<point x="114" y="642" type="line"/>
			<point x="125" y="457" type="line" smooth="yes"/>
			<point x="142" y="169"/>
			<point x="336" y="11"/>
			<point x="679" y="11" type="curve" smooth="yes"/>
			<point x="985" y="11"/>
			<point x="1139" y="118"/>
			<point x="1139" y="320" type="curve" smooth="yes"/>
			<point x="1139" y="334" type="line" smooth="yes"/>
			<point x="1139" y="481"/>
			<point x="1055" y="575"/>
			<point x="900" y="594" type="curve"/>
			<point x="900" y="603" type="line"/>
			<point x="1050" y="625"/>
			<point x="1120" y="719"/>
			<point x="1120" y="877" type="curve" smooth="yes"/>
			<point x="1120" y="914" type="line" smooth="yes"/>
			<point x="1120" y="1150"/>
			<point x="969" y="1282"/>
			<point x="699" y="1282" type="curve" smooth="yes"/>
			<point x="426" y="1282"/>
			<point x="273" y="1150"/>
			<point x="273" y="914" type="curve" smooth="yes"/>
			<point x="273" y="892"/>
			<point x="273" y="850"/>
			<point x="273" y="808" type="curve"/>
			<point x="460" y="808" type="line"/>
			<point x="460" y="849"/>
			<point x="460" y="891"/>
			<point x="460" y="914" type="curve" smooth="yes"/>
			<point x="460" y="1051"/>
			<point x="540" y="1119"/>
			<point x="701" y="1119" type="curve" smooth="yes"/>
			<point x="855" y="1119"/>
			<point x="931" y="1051"/>
			<point x="931" y="914" type="curve" smooth="yes"/>
			<point x="931" y="872" type="line" smooth="yes"/>
			<point x="931" y="740"/>
			<point x="851" y="687"/>
			<point x="699" y="683" type="curve" smooth="yes"/>
			<point x="586" y="680" type="line"/>
			<point x="586" y="518" type="line"/>
			<point x="709" y="514" type="line" smooth="yes"/>
			<point x="872" y="509"/>
			<point x="947" y="464"/>
			<point x="947" y="359" type="curve" smooth="yes"/>
			<point x="947" y="350" type="line" smooth="yes"/>
			<point x="947" y="234"/>
			<point x="857" y="176"/>
			<point x="673" y="176" type="curve" smooth="yes"/>
			<point x="426" y="176"/>
			<point x="317" y="287"/>
			<point x="305" y="460" type="curve" smooth="yes"/>
			<point x="292" y="642" type="line"/>
		</contour>
	</outline>
</glyph>
<glyph name="Ka.bn" format="2">
  <advance width="1654"/>
  <unicode hex="0995"/>
  <anchor x="998" y="-2" name="bottom1"/>
  <anchor x="790" y="1426" name="top"/>
  <anchor x="571" y="1749" name="top2"/>
  <outline>
    <contour>
      <point x="839" y="-2" type="line"/>
      <point x="998" y="-2" type="line"/>
      <point x="998" y="922" type="line"/>
      <point x="995" y="954" type="line"/>
      <point x="995" y="1145" type="line"/>
      <point x="820" y="1145" type="line"/>
      <point x="820" y="956" type="line"/>
      <point x="814" y="925" type="line"/>
      <point x="814" y="306" type="line"/>
      <point x="824" y="121" type="line"/>
      <point x="838" y="177" type="line"/>
      <point x="241" y="471" type="line"/>
      <point x="311" y="342" type="line"/>
      <point x="311" y="707" type="line"/>
      <point x="241" y="616" type="line"/>
      <point x="456" y="713"/>
      <point x="696" y="796"/>
      <point x="934" y="851" type="curve"/>
      <point x="901" y="1012" type="line"/>
      <point x="626" y="953"/>
      <point x="353" y="854"/>
      <point x="125" y="746" type="curve"/>
      <point x="125" y="346" type="line"/>
    </contour>
    <contour>
      <point x="1154" y="268" type="line"/>
      <point x="1176" y="267"/>
      <point x="1197" y="267"/>
      <point x="1219" y="267" type="curve" smooth="yes"/>
      <point x="1458" y="267"/>
      <point x="1571" y="356"/>
      <point x="1571" y="577" type="curve" smooth="yes"/>
      <point x="1571" y="612" type="line" smooth="yes"/>
      <point x="1571" y="825"/>
      <point x="1455" y="922"/>
      <point x="1153" y="975" type="curve" smooth="yes"/>
      <point x="942" y="1012" type="line"/>
      <point x="941" y="845" type="line"/>
      <point x="1154" y="809" type="line" smooth="yes"/>
      <point x="1320" y="781"/>
      <point x="1386" y="731"/>
      <point x="1386" y="618" type="curve" smooth="yes"/>
      <point x="1386" y="579" type="line" smooth="yes"/>
      <point x="1386" y="471"/>
      <point x="1332" y="432"/>
      <point x="1213" y="432" type="curve" smooth="yes"/>
      <point x="1191" y="432"/>
      <point x="1165" y="432"/>
      <point x="1141" y="432" type="curve"/>
    </contour>
    <contour>
      <point x="-26" y="1104" type="line"/>
      <point x="1699" y="1104" type="line"/>
      <point x="1687" y="1259" type="line"/>
      <point x="-37" y="1259" type="line"/>
    </contour>
    <contour>
      <point x="916" y="1190" type="line"/>
      <point x="916" y="834" type="line"/>
      <point x="995" y="834" type="line"/>
      <point x="995" y="1190" type="line"/>
    </contour>
    <contour>
      <point x="916" y="1104" type="line"/>
      <point x="1218" y="1104" type="line"/>
      <point x="1207" y="1259" type="line"/>
      <point x="916" y="1259" type="line"/>
    </contour>
  </outline>
</glyph>
<glyph name="Kha.bn" format="2">
  <advance width="1351"/>
  <unicode hex="0996"/>
  <anchor x="1177" y="-2" name="bottom1"/>
  <anchor x="974" y="1426" name="top"/>
  <anchor x="755" y="1749" name="top2"/>
  <outline>
    <contour>
      <point x="1018" y="-2" type="line"/>
      <point x="1179" y="-2" type="line"/>
      <point x="1179" y="1259" type="line"/>
      <point x="993" y="1259" type="line"/>
      <point x="993" y="306" type="line"/>
      <point x="1002" y="121" type="line"/>
      <point x="1024" y="167" type="line"/>
      <point x="287" y="440" type="line"/>
      <point x="344" y="357" type="line"/>
      <point x="344" y="624" type="line"/>
      <point x="247" y="530" type="line"/>
      <point x="379" y="544" type="line" smooth="yes"/>
      <point x="649" y="573"/>
      <point x="797" y="668"/>
      <point x="797" y="913" type="curve" smooth="yes"/>
      <point x="797" y="1031"/>
      <point x="787" y="1135"/>
      <point x="775" y="1254" type="curve"/>
      <point x="617" y="1264" type="line"/>
      <point x="505" y="1085"/>
      <point x="457" y="1042"/>
      <point x="364" y="1042" type="curve" smooth="yes"/>
      <point x="281" y="1042"/>
      <point x="237" y="1084"/>
      <point x="235" y="1169" type="curve" smooth="yes"/>
      <point x="233" y="1259" type="line"/>
      <point x="62" y="1259" type="line"/>
      <point x="62" y="1167" type="line" smooth="yes"/>
      <point x="62" y="982"/>
      <point x="167" y="885"/>
      <point x="353" y="885" type="curve" smooth="yes"/>
      <point x="498" y="885"/>
      <point x="588" y="942"/>
      <point x="699" y="1132" type="curve"/>
      <point x="605" y="1119" type="line"/>
      <point x="610" y="1053"/>
      <point x="614" y="977"/>
      <point x="614" y="914" type="curve" smooth="yes"/>
      <point x="614" y="772"/>
      <point x="525" y="719"/>
      <point x="346" y="702" type="curve" smooth="yes"/>
      <point x="154" y="684" type="line"/>
      <point x="154" y="315" type="line"/>
    </contour>
    <contour>
      <point x="1100" y="1190" type="line"/>
      <point x="1100" y="834" type="line"/>
      <point x="1179" y="834" type="line"/>
      <point x="1179" y="1190" type="line"/>
    </contour>
    <contour>
      <point x="1100" y="1104" type="line"/>
      <point x="1402" y="1104" type="line"/>
      <point x="1391" y="1259" type="line"/>
      <point x="1100" y="1259" type="line"/>
    </contour>
  </outline>
</glyph>
<glyph name="Ga.bn" format="2">
  <advance width="1337"/>
  <unicode hex="0997"/>
  <anchor x="1165" y="200" name="bottom1"/>
  <anchor x="960" y="1426" name="top"/>
  <anchor x="741" y="1749" name="top2"/>
  <outline>
    <contour>
      <point x="180" y="223" type="line"/>
      <point x="249" y="223" type="line" smooth="yes"/>
      <point x="560" y="223"/>
      <point x="726" y="322"/>
      <point x="726" y="546" type="curve" smooth="yes"/>
      <point x="726" y="562" type="line" smooth="yes"/>
      <point x="726" y="758"/>
      <point x="607" y="852"/>
      <point x="379" y="852" type="curve" smooth="yes"/>
      <point x="304" y="852"/>
      <point x="241" y="843"/>
      <point x="182" y="833" type="curve"/>
      <point x="296" y="766" type="line"/>
      <point x="294" y="799"/>
      <point x="293" y="830"/>
      <point x="293" y="861" type="curve" smooth="yes"/>
      <point x="293" y="1023"/>
      <point x="397" y="1111"/>
      <point x="610" y="1111" type="curve" smooth="yes"/>
      <point x="802" y="1111"/>
      <point x="927" y="1021"/>
      <point x="980" y="822" type="curve"/>
      <point x="980" y="733" type="line"/>
      <point x="1019" y="804" type="line"/>
      <point x="1015" y="1032" type="line"/>
      <point x="982" y="1032" type="line"/>
      <point x="940" y="1197"/>
      <point x="798" y="1281"/>
      <point x="583" y="1281" type="curve" smooth="yes"/>
      <point x="276" y="1281"/>
      <point x="107" y="1121"/>
      <point x="107" y="855" type="curve" smooth="yes"/>
      <point x="107" y="798"/>
      <point x="110" y="739"/>
      <point x="115" y="679" type="curve"/>
      <point x="194" y="690"/>
      <point x="279" y="698"/>
      <point x="350" y="698" type="curve" smooth="yes"/>
      <point x="486" y="698"/>
      <point x="544" y="657"/>
      <point x="544" y="557" type="curve" smooth="yes"/>
      <point x="544" y="547" type="line" smooth="yes"/>
      <point x="544" y="436"/>
      <point x="447" y="385"/>
      <point x="231" y="385" type="curve" smooth="yes"/>
      <point x="163" y="385" type="line"/>
    </contour>
    <contour>
      <point x="979" y="0" type="line"/>
      <point x="1165" y="0" type="line"/>
      <point x="1165" y="1259" type="line"/>
      <point x="992" y="1259" type="line"/>
      <point x="992" y="895" type="line"/>
      <point x="979" y="891" type="line"/>
    </contour>
    <contour>
      <point x="1086" y="1190" type="line"/>
      <point x="1086" y="834" type="line"/>
      <point x="1165" y="834" type="line"/>
      <point x="1165" y="1190" type="line"/>
    </contour>
    <contour>
      <point x="1086" y="1104" type="line"/>
      <point x="1388" y="1104" type="line"/>
      <point x="1377" y="1259" type="line"/>
      <point x="1086" y="1259" type="line"/>
    </contour>
  </outline>
</glyph>
<glyph name="Gha.bn" format="2">
	<advance width="1319"/>
	<unicode hex="0998"/>
	<anchor x="1145" y="-2" name="bottom1"/>
	<anchor x="942" y="1426" name="top"/>
	<anchor x="723" y="1749" name="top2"/>
	<outline>
		<contour>
			<point x="1147" y="-2" type="line"/>
			<point x="1147" y="1147" type="line"/>
			<point x="961" y="1147" type="line"/>
			<point x="961" y="306" type="line"/>
			<point x="970" y="121" type="line"/>
			<point x="989" y="169" type="line"/>
			<point x="336" y="419" type="line"/>
			<point x="368" y="360" type="line"/>
			<point x="368" y="570" type="line"/>
			<point x="338" y="506" type="line"/>
			<point x="738" y="649" type="line"/>
			<point x="726" y="823" type="line"/>
			<point x="181" y="629" type="line"/>
			<point x="181" y="303" type="line"/>
			<point x="987" y="-2" type="line"/>
		</contour>
		<contour>
			<point x="505" y="1116" type="curve"/>
			<point x="312" y="1176" type="line"/>
			<point x="196" y="1153"/>
			<point x="132" y="1087"/>
			<point x="132" y="962" type="curve" smooth="yes"/>
			<point x="132" y="948" type="line" smooth="yes"/>
			<point x="132" y="798"/>
			<point x="248" y="717"/>
			<point x="398" y="716" type="curve"/>
			<point x="398" y="697" type="line"/>
			<point x="726" y="823" type="line"/>
			<point x="664" y="811"/>
			<point x="598" y="802"/>
			<point x="545" y="802" type="curve" smooth="yes"/>
			<point x="413" y="802"/>
			<point x="339" y="853"/>
			<point x="339" y="950" type="curve" smooth="yes"/>
			<point x="339" y="961" type="line" smooth="yes"/>
			<point x="339" y="1053"/>
			<point x="394" y="1110"/>
		</contour>
		<contour>
			<point x="-35" y="1104" type="line"/>
			<point x="1132" y="1104" type="line"/>
			<point x="1132" y="1259" type="line"/>
			<point x="-46" y="1259" type="line"/>
		</contour>
		<contour>
			<point x="1068" y="1190" type="line"/>
			<point x="1068" y="834" type="line"/>
			<point x="1147" y="834" type="line"/>
			<point x="1147" y="1190" type="line"/>
		</contour>
		<contour>
			<point x="1068" y="1104" type="line"/>
			<point x="1370" y="1104" type="line"/>
			<point x="1359" y="1259" type="line"/>
			<point x="1068" y="1259" type="line"/>
		</contour>
	</outline>
</glyph>
<glyph name="Nga.bn" format="2">
  <advance width="1399"/>
  <unicode hex="0999"/>
  <anchor x="966" y="182" name="bottom1"/>
  <anchor x="650" y="1428" name="top"/>
  <anchor x="432" y="1749" name="top2"/>
  <outline>
    <contour>
      <point x="748" y="10" type="curve" smooth="yes"/>
      <point x="1083" y="10"/>
      <point x="1287" y="146"/>
      <point x="1287" y="402" type="curve" smooth="yes"/>
      <point x="1287" y="491"/>
      <point x="1276" y="554"/>
      <point x="1258" y="625" type="curve"/>
      <point x="1071" y="591" type="line" smooth="yes"/>
      <point x="1004" y="579"/>
      <point x="943" y="571"/>
      <point x="885" y="571" type="curve" smooth="yes"/>
      <point x="744" y="571"/>
      <point x="696" y="621"/>
      <point x="696" y="732" type="curve" smooth="yes"/>
      <point x="696" y="794" type="line"/>
      <point x="690" y="816" type="line"/>
      <point x="690" y="914" type="line" smooth="yes"/>
      <point x="690" y="1057"/>
      <point x="752" y="1126"/>
      <point x="871" y="1126" type="curve" smooth="yes"/>
      <point x="962" y="1126"/>
      <point x="1006" y="1082"/>
      <point x="1006" y="1007" type="curve" smooth="yes"/>
      <point x="1006" y="1003" type="line" smooth="yes"/>
      <point x="1006" y="906"/>
      <point x="917" y="862"/>
      <point x="697" y="862" type="curve" smooth="yes"/>
      <point x="667" y="862"/>
      <point x="631" y="865"/>
      <point x="606" y="872" type="curve"/>
      <point x="606" y="719" type="line"/>
      <point x="642" y="716"/>
      <point x="674" y="714"/>
      <point x="703" y="714" type="curve" smooth="yes"/>
      <point x="1043" y="714"/>
      <point x="1184" y="804"/>
      <point x="1184" y="1001" type="curve" smooth="yes"/>
      <point x="1184" y="1011" type="line" smooth="yes"/>
      <point x="1184" y="1177"/>
      <point x="1071" y="1282"/>
      <point x="864" y="1282" type="curve" smooth="yes"/>
      <point x="654" y="1282"/>
      <point x="514" y="1161"/>
      <point x="514" y="910" type="curve" smooth="yes"/>
      <point x="514" y="750" type="line" smooth="yes"/>
      <point x="514" y="546"/>
      <point x="594" y="415"/>
      <point x="862" y="415" type="curve" smooth="yes"/>
      <point x="958" y="415"/>
      <point x="1052" y="432"/>
      <point x="1130" y="454" type="curve" smooth="yes"/>
      <point x="1224" y="481" type="line"/>
      <point x="1094" y="525" type="line"/>
      <point x="1097" y="483"/>
      <point x="1099" y="443"/>
      <point x="1099" y="403" type="curve" smooth="yes"/>
      <point x="1099" y="254"/>
      <point x="974" y="175"/>
      <point x="750" y="175" type="curve" smooth="yes"/>
      <point x="456" y="175"/>
      <point x="318" y="300"/>
      <point x="301" y="495" type="curve" smooth="yes"/>
      <point x="290" y="624" type="line"/>
      <point x="108" y="624" type="line"/>
      <point x="119" y="481" type="line" smooth="yes"/>
      <point x="142" y="178"/>
      <point x="359" y="10"/>
    </contour>
    <contour>
      <point x="149" y="1190" type="line"/>
      <point x="149" y="1129" type="line" smooth="yes"/>
      <point x="149" y="866"/>
      <point x="302" y="719"/>
      <point x="586" y="719" type="curve" smooth="yes"/>
      <point x="595" y="719" type="line"/>
      <point x="595" y="869" type="line"/>
      <point x="580" y="869" type="line" smooth="yes"/>
      <point x="411" y="869"/>
      <point x="322" y="960"/>
      <point x="319" y="1129" type="curve" smooth="yes"/>
      <point x="318" y="1190" type="line"/>
    </contour>
  </outline>
</glyph>
<glyph name="Ja.bn" format="2">
  <advance width="1833"/>
  <unicode hex="099C"/>
  <note>
Ja.bn
</note>
  <anchor x="1658" y="289" name="bottom1"/>
  <anchor x="922" y="1428" name="top"/>
  <anchor x="666" y="1751" name="top2"/>
  <outline>
    <contour>
      <point x="742" y="10" type="curve" smooth="yes"/>
      <point x="1075" y="10"/>
      <point x="1252" y="151"/>
      <point x="1252" y="405" type="curve" smooth="yes"/>
      <point x="1252" y="514"/>
      <point x="1248" y="586"/>
      <point x="1239" y="656" type="curve"/>
      <point x="1098" y="719" type="line"/>
      <point x="1014" y="676" type="line" smooth="yes"/>
      <point x="953" y="645"/>
      <point x="907" y="627"/>
      <point x="850" y="627" type="curve" smooth="yes"/>
      <point x="776" y="627"/>
      <point x="735" y="667"/>
      <point x="735" y="750" type="curve" smooth="yes"/>
      <point x="735" y="763" type="line" smooth="yes"/>
      <point x="735" y="916"/>
      <point x="873" y="1029"/>
      <point x="1067" y="1082" type="curve"/>
      <point x="1008" y="1149" type="line"/>
      <point x="889" y="1160" type="line"/>
      <point x="675" y="1093"/>
      <point x="546" y="957"/>
      <point x="546" y="757" type="curve" smooth="yes"/>
      <point x="546" y="741" type="line" smooth="yes"/>
      <point x="546" y="563"/>
      <point x="657" y="464"/>
      <point x="851" y="464" type="curve" smooth="yes"/>
      <point x="944" y="464"/>
      <point x="1021" y="480"/>
      <point x="1094" y="534" type="curve" smooth="yes"/>
      <point x="1163" y="585" type="line"/>
      <point x="1066" y="639" type="line"/>
      <point x="1070" y="584"/>
      <point x="1071" y="528"/>
      <point x="1071" y="426" type="curve" smooth="yes"/>
      <point x="1071" y="260"/>
      <point x="951" y="174"/>
      <point x="742" y="174" type="curve" smooth="yes"/>
      <point x="468" y="174"/>
      <point x="343" y="326"/>
      <point x="327" y="564" type="curve" smooth="yes"/>
      <point x="304" y="908" type="line"/>
      <point x="120" y="908" type="line"/>
      <point x="142" y="551" type="line" smooth="yes"/>
      <point x="164" y="199"/>
      <point x="376" y="10"/>
    </contour>
    <contour>
      <point x="1481" y="-16" type="curve"/>
      <point x="1660" y="-16" type="line"/>
      <point x="1659" y="76"/>
      <point x="1658" y="173"/>
      <point x="1658" y="289" type="curve" smooth="yes"/>
      <point x="1658" y="491"/>
      <point x="1672" y="701"/>
      <point x="1694" y="857" type="curve"/>
      <point x="1456" y="880"/>
      <point x="1262" y="987"/>
      <point x="1175" y="1157" type="curve"/>
      <point x="1013" y="1123" type="line"/>
      <point x="1095" y="894"/>
      <point x="1314" y="744"/>
      <point x="1613" y="720" type="curve"/>
      <point x="1515" y="810" type="line"/>
      <point x="1484" y="662"/>
      <point x="1471" y="473"/>
      <point x="1471" y="289" type="curve" smooth="yes"/>
      <point x="1471" y="172"/>
      <point x="1476" y="72"/>
    </contour>
    <contour>
      <point x="-44" y="1104" type="line"/>
      <point x="1900" y="1104" type="line"/>
      <point x="1889" y="1259" type="line"/>
      <point x="-55" y="1259" type="line"/>
    </contour>
  </outline>
</glyph>
<glyph name="Tta.bn" format="2">
  <advance width="1223"/>
  <unicode hex="099F"/>
  <anchor x="818" y="185" name="bottom1"/>
  <anchor x="719.84" y="1526" name="top"/>
  <anchor x="895.84" y="1603" name="top2"/>
  <outline>
    <contour>
      <point x="599" y="8" type="curve" smooth="yes"/>
      <point x="800" y="8"/>
      <point x="947" y="92"/>
      <point x="1033" y="224" type="curve" smooth="yes"/>
      <point x="1089" y="311"/>
      <point x="1119" y="419"/>
      <point x="1119" y="537" type="curve" smooth="yes"/>
      <point x="1119" y="744"/>
      <point x="992" y="850"/>
      <point x="740" y="850" type="curve" smooth="yes"/>
      <point x="679" y="850"/>
      <point x="626" y="846"/>
      <point x="562" y="839" type="curve"/>
      <point x="548" y="674" type="line"/>
      <point x="614" y="681"/>
      <point x="668" y="684"/>
      <point x="728" y="684" type="curve" smooth="yes"/>
      <point x="875" y="684"/>
      <point x="932" y="629"/>
      <point x="932" y="526" type="curve" smooth="yes"/>
      <point x="932" y="442"/>
      <point x="904" y="358"/>
      <point x="852" y="293" type="curve" smooth="yes"/>
      <point x="795" y="221"/>
      <point x="708" y="173"/>
      <point x="596" y="173" type="curve" smooth="yes"/>
      <point x="421" y="173"/>
      <point x="340" y="251"/>
      <point x="340" y="415" type="curve" smooth="yes"/>
      <point x="340" y="1184" type="line"/>
      <point x="155" y="1184" type="line"/>
      <point x="155" y="419" type="line" smooth="yes"/>
      <point x="155" y="138"/>
      <point x="307" y="8"/>
    </contour>
    <contour>
      <point x="-66" y="1104" type="line"/>
      <point x="1254" y="1104" type="line"/>
      <point x="1243" y="1259" type="line"/>
      <point x="-77" y="1259" type="line"/>
    </contour>
    <contour>
      <point x="1113" y="1295" type="line"/>
      <point x="1119" y="1315"/>
      <point x="1122" y="1336"/>
      <point x="1122" y="1359" type="curve" smooth="yes"/>
      <point x="1122" y="1538"/>
      <point x="1008" y="1618"/>
      <point x="801" y="1618" type="curve" smooth="yes"/>
      <point x="446" y="1618" type="line" smooth="yes"/>
      <point x="328" y="1618"/>
      <point x="277" y="1655"/>
      <point x="271" y="1742" type="curve" smooth="yes"/>
      <point x="269" y="1767" type="line"/>
      <point x="107" y="1767" type="line"/>
      <point x="107" y="1737" type="line" smooth="yes"/>
      <point x="107" y="1551"/>
      <point x="215" y="1463"/>
      <point x="441" y="1463" type="curve" smooth="yes"/>
      <point x="778" y="1463" type="line" smooth="yes"/>
      <point x="897" y="1463"/>
      <point x="949" y="1428"/>
      <point x="949" y="1340" type="curve" smooth="yes"/>
      <point x="949" y="1299"/>
      <point x="939" y="1264"/>
      <point x="921" y="1235" type="curve"/>
      <point x="975" y="1239" type="line"/>
    </contour>
  </outline>
</glyph>
<glyph name="Ttha.bn" format="2">
  <advance width="1202"/>
  <unicode hex="09A0"/>
  <anchor x="815" y="185" name="bottom1"/>
  <anchor x="676" y="1426" name="top"/>
  <anchor x="899" y="1460" name="top2"/>
  <outline>
    <contour>
      <point x="612" y="4" type="curve" smooth="yes"/>
      <point x="923" y="4"/>
      <point x="1111" y="165"/>
      <point x="1111" y="447" type="curve" smooth="yes"/>
      <point x="1111" y="470" type="line" smooth="yes"/>
      <point x="1111" y="724"/>
      <point x="987" y="876"/>
      <point x="789" y="1061" type="curve" smooth="yes"/>
      <point x="649" y="1192" type="line"/>
      <point x="517" y="1107" type="line"/>
      <point x="686" y="948" type="line" smooth="yes"/>
      <point x="841" y="803"/>
      <point x="922" y="650"/>
      <point x="922" y="477" type="curve" smooth="yes"/>
      <point x="922" y="456" type="line" smooth="yes"/>
      <point x="922" y="268"/>
      <point x="806" y="170"/>
      <point x="607" y="170" type="curve" smooth="yes"/>
      <point x="398" y="170"/>
      <point x="294" y="271"/>
      <point x="294" y="426" type="curve" smooth="yes"/>
      <point x="294" y="451"/>
      <point x="294" y="497"/>
      <point x="294" y="539" type="curve"/>
      <point x="223" y="411" type="line"/>
      <point x="480" y="474"/>
      <point x="632" y="639"/>
      <point x="630" y="984" type="curve" smooth="yes"/>
      <point x="629" y="1173" type="line"/>
      <point x="474" y="1178" type="line"/>
      <point x="474" y="1038" type="line" smooth="yes"/>
      <point x="474" y="737"/>
      <point x="352" y="612"/>
      <point x="110" y="537" type="curve"/>
      <point x="110" y="450"/>
      <point x="110" y="484"/>
      <point x="110" y="431" type="curve" smooth="yes"/>
      <point x="110" y="172"/>
      <point x="291" y="4"/>
    </contour>
    <contour>
      <point x="-57" y="1104" type="line"/>
      <point x="1240" y="1104" type="line"/>
      <point x="1229" y="1259" type="line"/>
      <point x="-68" y="1259" type="line"/>
    </contour>
    <contour>
      <point x="475" y="1215" type="line"/>
      <point x="638" y="1233" type="line"/>
      <point x="613" y="1266" type="line" smooth="yes"/>
      <point x="487" y="1433"/>
      <point x="438" y="1526"/>
      <point x="438" y="1650" type="curve" smooth="yes"/>
      <point x="438" y="1706"/>
      <point x="449" y="1760"/>
      <point x="475" y="1820" type="curve"/>
      <point x="294" y="1820" type="line"/>
      <point x="268" y="1771"/>
      <point x="256" y="1720"/>
      <point x="256" y="1658" type="curve" smooth="yes"/>
      <point x="256" y="1530"/>
      <point x="307" y="1426"/>
      <point x="444" y="1253" type="curve" smooth="yes"/>
    </contour>
  </outline>
</glyph>
<glyph name="Dda.bn" format="2">
	<advance width="1445"/>
	<unicode hex="09A1"/>
	<anchor x="956" y="185" name="bottom1"/>
	<anchor x="572" y="1426" name="top"/>
	<anchor x="389" y="1749" name="top2"/>
	<note>
		Dda.bn
	</note>
	<outline>
		<contour>
			<point x="324" y="575" type="curve" smooth="yes"/>
			<point x="301" y="908" type="line"/>
			<point x="119" y="908" type="line"/>
			<point x="141" y="562" type="line" smooth="yes"/>
			<point x="164" y="198"/>
			<point x="380" y="10"/>
			<point x="771" y="10" type="curve" smooth="yes"/>
			<point x="1142" y="10"/>
			<point x="1335" y="184"/>
			<point x="1335" y="501" type="curve" smooth="yes"/>
			<point x="1335" y="630"/>
			<point x="1326" y="732"/>
			<point x="1305" y="873" type="curve"/>
			<point x="1156" y="891" type="line"/>
			<point x="1089" y="806" type="line" smooth="yes"/>
			<point x="1026" y="727"/>
			<point x="974" y="681"/>
			<point x="891" y="681" type="curve" smooth="yes"/>
			<point x="812" y="681"/>
			<point x="772" y="729"/>
			<point x="772" y="830" type="curve" smooth="yes"/>
			<point x="772" y="1211" type="line"/>
			<point x="586" y="1211" type="line"/>
			<point x="586" y="818" type="line" smooth="yes"/>
			<point x="586" y="618"/>
			<point x="681" y="519"/>
			<point x="881" y="519" type="curve" smooth="yes"/>
			<point x="1007" y="519"/>
			<point x="1101" y="573"/>
			<point x="1179" y="670" type="curve" smooth="yes"/>
			<point x="1269" y="783" type="line"/>
			<point x="1137" y="766" type="line"/>
			<point x="1145" y="684"/>
			<point x="1149" y="591"/>
			<point x="1149" y="501" type="curve" smooth="yes"/>
			<point x="1149" y="284"/>
			<point x="1015" y="175"/>
			<point x="765" y="175" type="curve" smooth="yes"/>
			<point x="491" y="175"/>
			<point x="342" y="308"/>
		</contour>
		<contour>
			<point x="-44" y="1104" type="line"/>
			<point x="1515" y="1104" type="line"/>
			<point x="1504" y="1259" type="line"/>
			<point x="-55" y="1259" type="line"/>
		</contour>
	</outline>
</glyph>
<glyph name="Ddha.bn" format="2">
	<advance width="1223"/>
	<unicode hex="09A2"/>
	<anchor x="818" y="185" name="bottom1"/>
	<anchor x="144" y="1427" name="top"/>
	<anchor x="168" y="1753" name="top2"/>
	<outline>
		<contour>
			<point x="599" y="8" type="curve" smooth="yes"/>
			<point x="800" y="8"/>
			<point x="947" y="92"/>
			<point x="1033" y="224" type="curve" smooth="yes"/>
			<point x="1089" y="311"/>
			<point x="1119" y="419"/>
			<point x="1119" y="537" type="curve" smooth="yes"/>
			<point x="1119" y="744"/>
			<point x="992" y="850"/>
			<point x="740" y="850" type="curve" smooth="yes"/>
			<point x="679" y="850"/>
			<point x="626" y="846"/>
			<point x="562" y="839" type="curve"/>
			<point x="548" y="674" type="line"/>
			<point x="614" y="681"/>
			<point x="668" y="684"/>
			<point x="728" y="684" type="curve" smooth="yes"/>
			<point x="875" y="684"/>
			<point x="932" y="629"/>
			<point x="932" y="526" type="curve" smooth="yes"/>
			<point x="932" y="442"/>
			<point x="904" y="358"/>
			<point x="852" y="293" type="curve" smooth="yes"/>
			<point x="795" y="221"/>
			<point x="708" y="173"/>
			<point x="596" y="173" type="curve" smooth="yes"/>
			<point x="421" y="173"/>
			<point x="340" y="251"/>
			<point x="340" y="415" type="curve" smooth="yes"/>
			<point x="340" y="1184" type="line"/>
			<point x="155" y="1184" type="line"/>
			<point x="155" y="419" type="line" smooth="yes"/>
			<point x="155" y="138"/>
			<point x="307" y="8"/>
		</contour>
		<contour>
			<point x="-66" y="1104" type="line"/>
			<point x="1254" y="1104" type="line"/>
			<point x="1243" y="1259" type="line"/>
			<point x="-77" y="1259" type="line"/>
		</contour>
	</outline>
</glyph>
<glyph name="Tha.bn" format="2">
  <advance width="1360"/>
  <unicode hex="09A5"/>
  <anchor x="1188" y="-2" name="bottom1"/>
  <anchor x="983" y="1426" name="top"/>
  <anchor x="764" y="1749" name="top2"/>
  <outline>
    <contour>
      <point x="1027" y="-2" type="line"/>
      <point x="1188" y="-2" type="line"/>
      <point x="1188" y="1259" type="line"/>
      <point x="1002" y="1259" type="line"/>
      <point x="1002" y="306" type="line"/>
      <point x="1011" y="121" type="line"/>
      <point x="1033" y="167" type="line"/>
      <point x="297" y="439" type="line"/>
      <point x="354" y="357" type="line"/>
      <point x="354" y="624" type="line"/>
      <point x="251" y="530" type="line"/>
      <point x="407" y="546" type="line" smooth="yes"/>
      <point x="684" y="574"/>
      <point x="806" y="681"/>
      <point x="806" y="897" type="curve" smooth="yes"/>
      <point x="806" y="946" type="line" smooth="yes"/>
      <point x="806" y="1161"/>
      <point x="678" y="1281"/>
      <point x="446" y="1281" type="curve" smooth="yes"/>
      <point x="220" y="1281"/>
      <point x="93" y="1164"/>
      <point x="93" y="948" type="curve" smooth="yes"/>
      <point x="93" y="911"/>
      <point x="93" y="880"/>
      <point x="93" y="846" type="curve"/>
      <point x="279" y="846" type="line"/>
      <point x="279" y="878"/>
      <point x="279" y="911"/>
      <point x="279" y="946" type="curve" smooth="yes"/>
      <point x="279" y="1060"/>
      <point x="337" y="1119"/>
      <point x="448" y="1119" type="curve" smooth="yes"/>
      <point x="560" y="1119"/>
      <point x="620" y="1059"/>
      <point x="620" y="944" type="curve" smooth="yes"/>
      <point x="620" y="903" type="line" smooth="yes"/>
      <point x="620" y="782"/>
      <point x="559" y="721"/>
      <point x="356" y="702" type="curve" smooth="yes"/>
      <point x="164" y="684" type="line"/>
      <point x="164" y="315" type="line"/>
    </contour>
    <contour>
      <point x="1109" y="1190" type="line"/>
      <point x="1109" y="834" type="line"/>
      <point x="1188" y="834" type="line"/>
      <point x="1188" y="1190" type="line"/>
    </contour>
    <contour>
      <point x="1109" y="1104" type="line"/>
      <point x="1411" y="1104" type="line"/>
      <point x="1400" y="1259" type="line"/>
      <point x="1109" y="1259" type="line"/>
    </contour>
  </outline>
</glyph>
<glyph name="Da.bn" format="2">
	<advance width="1280"/>
	<unicode hex="09A6"/>
	<anchor x="1108" y="0" name="bottom1"/>
	<anchor x="155" y="1428" name="top"/>
	<anchor x="321" y="1751" name="top2"/>
	<note>
		Da.bn
	</note>
	<outline>
		<contour>
			<point x="-71" y="1105" type="line"/>
			<point x="1317" y="1105" type="line"/>
			<point x="1306" y="1259" type="line"/>
			<point x="-82" y="1259" type="line"/>
		</contour>
		<contour>
			<point x="922" y="-49" type="line"/>
			<point x="1108" y="-49" type="line"/>
			<point x="1108" y="894" type="line"/>
			<point x="900" y="894" type="line"/>
			<point x="667" y="747"/>
			<point x="446" y="558"/>
			<point x="275" y="380" type="curve"/>
			<point x="344" y="314" type="line"/>
			<point x="358" y="688" type="line"/>
			<point x="358" y="1216" type="line"/>
			<point x="172" y="1216" type="line"/>
			<point x="172" y="234" type="line"/>
			<point x="360" y="234" type="line"/>
			<point x="556" y="424"/>
			<point x="810" y="628"/>
			<point x="1032" y="778" type="curve"/>
			<point x="936" y="849" type="line"/>
			<point x="922" y="517" type="line"/>
		</contour>
	</outline>
</glyph>
<glyph name="Pa.bn" format="2">
  <advance width="1314"/>
  <unicode hex="09AA"/>
  <anchor x="1142" y="200" name="bottom1"/>
  <anchor x="937" y="1426" name="top"/>
  <anchor x="718" y="1749" name="top2"/>
  <outline>
    <contour>
      <point x="97" y="751" type="line"/>
      <point x="481" y="515" type="line"/>
      <point x="620" y="616" type="line"/>
      <point x="274" y="839" type="line"/>
      <point x="295" y="768" type="line"/>
      <point x="295" y="852" type="line" smooth="yes"/>
      <point x="295" y="1018"/>
      <point x="403" y="1111"/>
      <point x="591" y="1111" type="curve" smooth="yes"/>
      <point x="779" y="1111"/>
      <point x="897" y="1025"/>
      <point x="943" y="839" type="curve"/>
      <point x="956" y="769" type="line"/>
      <point x="994" y="776" type="line"/>
      <point x="996" y="1034" type="line"/>
      <point x="960" y="1034" type="line"/>
      <point x="921" y="1192"/>
      <point x="781" y="1278"/>
      <point x="565" y="1278" type="curve" smooth="yes"/>
      <point x="263" y="1278"/>
      <point x="97" y="1122"/>
      <point x="97" y="854" type="curve" smooth="yes"/>
    </contour>
    <contour>
      <point x="297" y="258" type="line"/>
      <point x="1037" y="711" type="line"/>
      <point x="962" y="867" type="line"/>
      <point x="168" y="370" type="line"/>
    </contour>
    <contour>
      <point x="956" y="0" type="line"/>
      <point x="1142" y="0" type="line"/>
      <point x="1142" y="1259" type="line"/>
      <point x="970" y="1259" type="line"/>
      <point x="970" y="961" type="line"/>
      <point x="956" y="961" type="line"/>
    </contour>
    <contour>
      <point x="1063" y="1190" type="line"/>
      <point x="1063" y="834" type="line"/>
      <point x="1142" y="834" type="line"/>
      <point x="1142" y="1190" type="line"/>
    </contour>
    <contour>
      <point x="1063" y="1104" type="line"/>
      <point x="1365" y="1104" type="line"/>
      <point x="1354" y="1259" type="line"/>
      <point x="1063" y="1259" type="line"/>
    </contour>
  </outline>
</glyph>
<glyph name="Pha.bn" format="2">
  <advance width="1771"/>
  <unicode hex="09AB"/>
  <anchor x="1125" y="-2" name="bottom1"/>
  <anchor x="913" y="1426" name="top"/>
  <anchor x="675" y="1749" name="top2"/>
  <outline>
    <contour>
      <point x="-75" y="1104" type="line"/>
      <point x="1819" y="1104" type="line"/>
      <point x="1807" y="1259" type="line"/>
      <point x="-86" y="1259" type="line"/>
    </contour>
    <contour>
      <point x="965" y="-2" type="line"/>
      <point x="1125" y="-2" type="line"/>
      <point x="1125" y="943" type="line"/>
      <point x="939" y="943" type="line"/>
      <point x="939" y="306" type="line"/>
      <point x="947" y="121" type="line"/>
      <point x="962" y="171" type="line"/>
      <point x="316" y="416" type="line"/>
      <point x="348" y="344" type="line"/>
      <point x="348" y="583" type="line"/>
      <point x="312" y="507" type="line"/>
      <point x="692" y="671" type="line"/>
      <point x="692" y="843" type="line"/>
      <point x="524" y="955"/>
      <point x="347" y="1078"/>
      <point x="163" y="1190" type="curve"/>
      <point x="94" y="1182" type="line"/>
      <point x="94" y="1002" type="line"/>
      <point x="508" y="782" type="line"/>
      <point x="508" y="772" type="line"/>
      <point x="162" y="624" type="line"/>
      <point x="162" y="301" type="line"/>
    </contour>
    <contour>
      <point x="1266" y="437" type="curve"/>
      <point x="1277" y="272" type="line"/>
      <point x="1300" y="272"/>
      <point x="1322" y="272"/>
      <point x="1342" y="272" type="curve" smooth="yes"/>
      <point x="1580" y="272"/>
      <point x="1687" y="365"/>
      <point x="1687" y="573" type="curve" smooth="yes"/>
      <point x="1687" y="627" type="line" smooth="yes"/>
      <point x="1687" y="832"/>
      <point x="1550" y="943"/>
      <point x="1292" y="943" type="curve" smooth="yes"/>
      <point x="1033" y="943" type="line"/>
      <point x="1033" y="784" type="line"/>
      <point x="1299" y="784" type="line" smooth="yes"/>
      <point x="1437" y="784"/>
      <point x="1502" y="732"/>
      <point x="1502" y="625" type="curve" smooth="yes"/>
      <point x="1502" y="571" type="line" smooth="yes"/>
      <point x="1502" y="479"/>
      <point x="1450" y="437"/>
      <point x="1337" y="437" type="curve" smooth="yes"/>
      <point x="1314" y="437"/>
      <point x="1289" y="437"/>
    </contour>
  </outline>
</glyph>
<glyph name="Ba.bn" format="2">
	<advance width="1215"/>
	<unicode hex="09AC"/>
	<anchor x="1043" y="-2" name="bottom1"/>
	<anchor x="838" y="1426" name="top"/>
	<anchor x="620" y="1749" name="top2"/>
	<note>
		Ba.bn
	</note>
	<outline>
		<contour>
			<point x="-26" y="1104" type="line"/>
			<point x="1043" y="1104" type="line"/>
			<point x="1043" y="1259" type="line"/>
			<point x="-37" y="1259" type="line"/>
		</contour>
		<contour>
			<point x="883" y="-2" type="line"/>
			<point x="1043" y="-2" type="line"/>
			<point x="1043" y="1149" type="line"/>
			<point x="860" y="1149" type="line"/>
			<point x="860" y="951" type="line"/>
			<point x="857" y="905" type="line"/>
			<point x="857" y="306" type="line"/>
			<point x="866" y="121" type="line"/>
			<point x="879" y="177" type="line"/>
			<point x="239" y="470" type="line"/>
			<point x="310" y="357" type="line"/>
			<point x="310" y="698" type="line"/>
			<point x="242" y="601" type="line"/>
			<point x="457" y="707"/>
			<point x="722" y="790"/>
			<point x="978" y="845" type="curve"/>
			<point x="945" y="1014" type="line"/>
			<point x="650" y="947"/>
			<point x="365" y="846"/>
			<point x="125" y="739" type="curve"/>
			<point x="125" y="344" type="line"/>
		</contour>
		<contour>
			<point x="964" y="1190" type="line"/>
			<point x="964" y="834" type="line"/>
			<point x="1043" y="834" type="line"/>
			<point x="1043" y="1190" type="line"/>
		</contour>
		<contour>
			<point x="964" y="1104" type="line"/>
			<point x="1266" y="1104" type="line"/>
			<point x="1255" y="1259" type="line"/>
			<point x="964" y="1259" type="line"/>
		</contour>
	</outline>
</glyph>
<glyph name="Ya.bn" format="2">
	<advance width="1297"/>
	<unicode hex="09AF"/>
	<anchor x="1125" y="-2" name="bottom1"/>
	<anchor x="920" y="1426" name="top"/>
	<anchor x="701" y="1749" name="top2"/>
	<note>
		Ya.bn
	</note>
	<outline>
		<contour>
			<point x="965" y="-2" type="line"/>
			<point x="1125" y="-2" type="line"/>
			<point x="1125" y="1202" type="line"/>
			<point x="939" y="1202" type="line"/>
			<point x="939" y="306" type="line"/>
			<point x="947" y="121" type="line"/>
			<point x="962" y="171" type="line"/>
			<point x="316" y="416" type="line"/>
			<point x="348" y="344" type="line"/>
			<point x="348" y="583" type="line"/>
			<point x="312" y="507" type="line"/>
			<point x="692" y="671" type="line"/>
			<point x="692" y="843" type="line"/>
			<point x="524" y="955"/>
			<point x="347" y="1078"/>
			<point x="163" y="1190" type="curve"/>
			<point x="94" y="1182" type="line"/>
			<point x="94" y="1002" type="line"/>
			<point x="508" y="782" type="line"/>
			<point x="508" y="772" type="line"/>
			<point x="162" y="624" type="line"/>
			<point x="162" y="301" type="line"/>
		</contour>
		<contour>
			<point x="-75" y="1104" type="line"/>
			<point x="1089" y="1104" type="line"/>
			<point x="1089" y="1259" type="line"/>
			<point x="-86" y="1259" type="line"/>
		</contour>
		<contour>
			<point x="1046" y="1190" type="line"/>
			<point x="1046" y="834" type="line"/>
			<point x="1125" y="834" type="line"/>
			<point x="1125" y="1190" type="line"/>
		</contour>
		<contour>
			<point x="1046" y="1104" type="line"/>
			<point x="1348" y="1104" type="line"/>
			<point x="1337" y="1259" type="line"/>
			<point x="1046" y="1259" type="line"/>
		</contour>
	</outline>
</glyph>
<glyph name="Sha.bn" format="2">
	<advance width="1499"/>
	<unicode hex="09B6"/>
	<anchor x="1327" y="200" name="bottom1"/>
	<anchor x="1122" y="1426" name="top"/>
	<anchor x="903" y="1749" name="top2"/>
	<outline>
		<contour>
			<point x="1141" y="0" type="line"/>
			<point x="1327" y="0" type="line"/>
			<point x="1327" y="1259" type="line"/>
			<point x="1154" y="1259" type="line"/>
			<point x="1154" y="944" type="line"/>
			<point x="1142" y="944" type="line"/>
		</contour>
		<contour>
			<point x="509" y="650" type="curve"/>
			<point x="515" y="650" type="line"/>
			<point x="558" y="521"/>
			<point x="664" y="455"/>
			<point x="830" y="455" type="curve" smooth="yes"/>
			<point x="874" y="455"/>
			<point x="912" y="458"/>
			<point x="945" y="464" type="curve"/>
			<point x="956" y="641" type="line"/>
			<point x="920" y="635"/>
			<point x="881" y="631"/>
			<point x="839" y="631" type="curve" smooth="yes"/>
			<point x="700" y="631"/>
			<point x="628" y="698"/>
			<point x="628" y="830" type="curve" smooth="yes"/>
			<point x="628" y="894" type="line" smooth="yes"/>
			<point x="628" y="1042"/>
			<point x="705" y="1114"/>
			<point x="858" y="1114" type="curve" smooth="yes"/>
			<point x="1011" y="1114"/>
			<point x="1104" y="1031"/>
			<point x="1143" y="858" type="curve"/>
			<point x="1219" y="1056" type="line"/>
			<point x="1144" y="1056" type="line"/>
			<point x="1107" y="1202"/>
			<point x="1000" y="1277"/>
			<point x="828" y="1277" type="curve" smooth="yes"/>
			<point x="656" y="1277"/>
			<point x="552" y="1206"/>
			<point x="514" y="1062" type="curve"/>
			<point x="508" y="1062" type="line"/>
			<point x="466" y="1197"/>
			<point x="349" y="1259"/>
			<point x="154" y="1259" type="curve" smooth="yes"/>
			<point x="-66" y="1259" type="line"/>
			<point x="-54" y="1104" type="line"/>
			<point x="157" y="1104" type="line" smooth="yes"/>
			<point x="318" y="1104"/>
			<point x="403" y="1035"/>
			<point x="403" y="897" type="curve" smooth="yes"/>
			<point x="403" y="830" type="line" smooth="yes"/>
			<point x="403" y="697"/>
			<point x="333" y="631"/>
			<point x="198" y="631" type="curve" smooth="yes"/>
			<point x="147" y="631"/>
			<point x="108" y="635"/>
			<point x="67" y="641" type="curve"/>
			<point x="78" y="464" type="line"/>
			<point x="115" y="458"/>
			<point x="156" y="455"/>
			<point x="204" y="455" type="curve" smooth="yes"/>
			<point x="373" y="455"/>
			<point x="474" y="519"/>
		</contour>
		<contour>
			<point x="1248" y="1190" type="line"/>
			<point x="1248" y="834" type="line"/>
			<point x="1327" y="834" type="line"/>
			<point x="1327" y="1190" type="line"/>
		</contour>
		<contour>
			<point x="1248" y="1104" type="line"/>
			<point x="1550" y="1104" type="line"/>
			<point x="1539" y="1259" type="line"/>
			<point x="1248" y="1259" type="line"/>
		</contour>
	</outline>
</glyph>
<glyph name="Ssa.bn" format="2">
  <advance width="1297"/>
  <unicode hex="09B7"/>
  <anchor x="1125" y="-2" name="bottom1"/>
  <anchor x="920" y="1426" name="top"/>
  <anchor x="701" y="1749" name="top2"/>
  <outline>
    <contour>
      <point x="1046" y="1190" type="line"/>
      <point x="1046" y="834" type="line"/>
      <point x="1125" y="834" type="line"/>
      <point x="1125" y="1190" type="line"/>
    </contour>
    <contour>
      <point x="1046" y="1104" type="line"/>
      <point x="1348" y="1104" type="line"/>
      <point x="1337" y="1259" type="line"/>
      <point x="1046" y="1259" type="line"/>
    </contour>
    <contour>
      <point x="965" y="-2" type="line"/>
      <point x="1125" y="-2" type="line"/>
      <point x="1125" y="1203" type="line"/>
      <point x="939" y="1203" type="line"/>
      <point x="939" y="306" type="line"/>
      <point x="948" y="121" type="line"/>
      <point x="961" y="172" type="line"/>
      <point x="316" y="416" type="line"/>
      <point x="348" y="344" type="line"/>
      <point x="348" y="582" type="line"/>
      <point x="313" y="508" type="line"/>
      <point x="721" y="680" type="line"/>
      <point x="676" y="765" type="line"/>
      <point x="603" y="728" type="line"/>
      <point x="1008" y="492" type="line"/>
      <point x="1025" y="645" type="line"/>
      <point x="689" y="850" type="line"/>
      <point x="497" y="971"/>
      <point x="304" y="1092"/>
      <point x="171" y="1171" type="curve"/>
      <point x="94" y="1184" type="line"/>
      <point x="94" y="1002" type="line"/>
      <point x="513" y="781" type="line"/>
      <point x="513" y="772" type="line"/>
      <point x="162" y="623" type="line"/>
      <point x="162" y="301" type="line"/>
    </contour>
    <contour>
      <point x="-75" y="1104" type="line"/>
      <point x="1125" y="1104" type="line"/>
      <point x="1125" y="1259" type="line"/>
      <point x="-86" y="1259" type="line"/>
    </contour>
  </outline>
</glyph>
<glyph name="Ha.bn" format="2">
	<advance width="1149"/>
	<unicode hex="09B9"/>
	<anchor x="795" y="166" name="bottom1"/>
	<anchor x="375" y="1428" name="top"/>
	<anchor x="249" y="1751" name="top2"/>
	<note>
		Ha.bn
	</note>
	<outline>
		<contour>
			<point x="1083" y="-163" type="line"/>
			<point x="1097" y="12" type="line"/>
			<point x="663" y="167" type="line"/>
			<point x="573" y="196" type="line"/>
			<point x="581" y="259" type="line"/>
			<point x="379" y="240" type="line"/>
			<point x="455" y="217"/>
			<point x="529" y="206"/>
			<point x="600" y="206" type="curve" smooth="yes"/>
			<point x="867" y="206"/>
			<point x="1016" y="337"/>
			<point x="1016" y="579" type="curve" smooth="yes"/>
			<point x="1016" y="610" type="line" smooth="yes"/>
			<point x="1016" y="865"/>
			<point x="857" y="1005"/>
			<point x="581" y="1005" type="curve" smooth="yes"/>
			<point x="302" y="1005"/>
			<point x="153" y="864"/>
			<point x="153" y="613" type="curve" smooth="yes"/>
			<point x="153" y="593"/>
			<point x="153" y="571"/>
			<point x="153" y="549" type="curve"/>
			<point x="341" y="549" type="line"/>
			<point x="341" y="571"/>
			<point x="341" y="594"/>
			<point x="341" y="613" type="curve" smooth="yes"/>
			<point x="341" y="761"/>
			<point x="427" y="843"/>
			<point x="583" y="843" type="curve" smooth="yes"/>
			<point x="742" y="843"/>
			<point x="828" y="766"/>
			<point x="828" y="610" type="curve" smooth="yes"/>
			<point x="828" y="580" type="line" smooth="yes"/>
			<point x="828" y="423"/>
			<point x="718" y="330"/>
			<point x="487" y="330" type="curve" smooth="yes"/>
			<point x="384" y="330"/>
			<point x="284" y="344"/>
			<point x="181" y="363" type="curve" smooth="yes"/>
			<point x="133" y="372" type="line"/>
			<point x="122" y="206" type="line"/>
		</contour>
		<contour>
			<point x="-29" y="1104" type="line"/>
			<point x="1185" y="1104" type="line"/>
			<point x="1174" y="1259" type="line"/>
			<point x="-40" y="1259" type="line"/>
		</contour>
	</outline>
</glyph>
<glyph name="Nukta.bn" format="2">
  <unicode hex="09BC"/>
  <outline>
    <contour>
      <point x="-365" y="-294" type="curve" smooth="yes"/>
      <point x="-286" y="-294"/>
      <point x="-248" y="-248"/>
      <point x="-248" y="-174" type="curve" smooth="yes"/>
      <point x="-248" y="-167" type="line" smooth="yes"/>
      <point x="-248" y="-92"/>
      <point x="-286" y="-46"/>
      <point x="-365" y="-46" type="curve" smooth="yes"/>
      <point x="-443" y="-46"/>
      <point x="-482" y="-92"/>
      <point x="-482" y="-167" type="curve" smooth="yes"/>
      <point x="-482" y="-174" type="line" smooth="yes"/>
      <point x="-482" y="-248"/>
      <point x="-443" y="-294"/>
    </contour>
  </outline>
</glyph>
<glyph name="Avagraha.bn" format="2">
	<advance width="1139"/>
	<unicode hex="09BD"/>
	<outline>
		<contour>
			<point x="287" y="946" type="curve" smooth="yes"/>
			<point x="287" y="897" type="line"/>
			<point x="459" y="897" type="line"/>
			<point x="459" y="948" type="line" smooth="yes"/>
			<point x="459" y="1152"/>
			<point x="339" y="1259"/>
			<point x="110" y="1259" type="curve" smooth="yes"/>
			<point x="-40" y="1259" type="line"/>
			<point x="-29" y="1099" type="line"/>
			<point x="112" y="1099" type="line" smooth="yes"/>
			<point x="227" y="1099"/>
			<point x="287" y="1046"/>
		</contour>
		<contour>
			<point x="1079" y="-163" type="line"/>
			<point x="1093" y="12" type="line"/>
			<point x="659" y="167" type="line"/>
			<point x="569" y="196" type="line"/>
			<point x="577" y="259" type="line"/>
			<point x="375" y="240" type="line"/>
			<point x="451" y="217"/>
			<point x="525" y="206"/>
			<point x="596" y="206" type="curve" smooth="yes"/>
			<point x="863" y="206"/>
			<point x="1012" y="337"/>
			<point x="1012" y="579" type="curve" smooth="yes"/>
			<point x="1012" y="610" type="line" smooth="yes"/>
			<point x="1012" y="865"/>
			<point x="853" y="1005"/>
			<point x="577" y="1005" type="curve" smooth="yes"/>
			<point x="298" y="1005"/>
			<point x="149" y="864"/>
			<point x="149" y="613" type="curve" smooth="yes"/>
			<point x="149" y="593"/>
			<point x="149" y="571"/>
			<point x="149" y="549" type="curve"/>
			<point x="337" y="549" type="line"/>
			<point x="337" y="571"/>
			<point x="337" y="594"/>
			<point x="337" y="613" type="curve" smooth="yes"/>
			<point x="337" y="761"/>
			<point x="423" y="843"/>
			<point x="579" y="843" type="curve" smooth="yes"/>
			<point x="738" y="843"/>
			<point x="824" y="766"/>
			<point x="824" y="610" type="curve" smooth="yes"/>
			<point x="824" y="580" type="line" smooth="yes"/>
			<point x="824" y="423"/>
			<point x="714" y="330"/>
			<point x="483" y="330" type="curve" smooth="yes"/>
			<point x="380" y="330"/>
			<point x="280" y="344"/>
			<point x="177" y="363" type="curve" smooth="yes"/>
			<point x="129" y="372" type="line"/>
			<point x="118" y="206" type="line"/>
		</contour>
	</outline>
</glyph>
<glyph name="SignAa.bn" format="2">
  <advance width="533"/>
  <unicode hex="09BE"/>
  <anchor x="156" y="1426" name="top"/>
  <anchor x="-63" y="1749" name="top2"/>
  <outline>
    <contour>
      <point x="175" y="0" type="line"/>
      <point x="361" y="0" type="line"/>
      <point x="361" y="1157" type="line"/>
      <point x="175" y="1157" type="line"/>
    </contour>
    <contour>
      <point x="-38" y="1104" type="line"/>
      <point x="351" y="1104" type="line"/>
      <point x="351" y="1259" type="line"/>
      <point x="-49" y="1259" type="line"/>
    </contour>
    <contour>
      <point x="282" y="1190" type="line"/>
      <point x="282" y="834" type="line"/>
      <point x="361" y="834" type="line"/>
      <point x="361" y="1190" type="line"/>
    </contour>
    <contour>
      <point x="282" y="1104" type="line"/>
      <point x="584" y="1104" type="line"/>
      <point x="573" y="1259" type="line"/>
      <point x="282" y="1259" type="line"/>
    </contour>
  </outline>
</glyph>
<glyph name="SignIi.bn" format="2">
  <advance width="539"/>
  <unicode hex="09C0"/>
  <anchor x="162" y="1426" name="top"/>
  <anchor x="367" y="1577" name="top2"/>
  <outline>
    <contour>
      <point x="-143" y="1376" type="line"/>
      <point x="-154" y="1516" type="line"/>
      <point x="-527" y="1516" type="line" smooth="yes"/>
      <point x="-630" y="1516"/>
      <point x="-675" y="1541"/>
      <point x="-675" y="1594" type="curve" smooth="yes"/>
      <point x="-675" y="1668"/>
      <point x="-596" y="1705"/>
      <point x="-417" y="1705" type="curve" smooth="yes"/>
      <point x="-17" y="1705"/>
      <point x="185" y="1530"/>
      <point x="185" y="1229" type="curve" smooth="yes"/>
      <point x="185" y="1107" type="line"/>
      <point x="365" y="1118" type="line"/>
      <point x="365" y="1221" type="line" smooth="yes"/>
      <point x="365" y="1609"/>
      <point x="78" y="1850"/>
      <point x="-427" y="1850" type="curve" smooth="yes"/>
      <point x="-702" y="1850"/>
      <point x="-851" y="1756"/>
      <point x="-851" y="1596" type="curve" smooth="yes"/>
      <point x="-851" y="1443"/>
      <point x="-740" y="1376"/>
      <point x="-525" y="1376" type="curve" smooth="yes"/>
    </contour>
    <contour>
      <point x="181" y="0" type="line"/>
      <point x="367" y="0" type="line"/>
      <point x="367" y="1157" type="line"/>
      <point x="181" y="1157" type="line"/>
    </contour>
    <contour>
      <point x="-32" y="1104" type="line"/>
      <point x="357" y="1104" type="line"/>
      <point x="357" y="1259" type="line"/>
      <point x="-43" y="1259" type="line"/>
    </contour>
    <contour>
      <point x="288" y="1190" type="line"/>
      <point x="288" y="834" type="line"/>
      <point x="367" y="834" type="line"/>
      <point x="367" y="1190" type="line"/>
    </contour>
    <contour>
      <point x="288" y="1104" type="line"/>
      <point x="590" y="1104" type="line"/>
      <point x="579" y="1259" type="line"/>
      <point x="288" y="1259" type="line"/>
    </contour>
  </outline>
</glyph>
<glyph name="SignU.bn" format="2">
	<advance width="0"/>
	<unicode hex="09C1"/>
	<anchor x="-319" y="-1" name="_bottom1"/>
	<outline>
		<contour>
			<point x="-491" y="-212" type="line"/>
			<point x="-319" y="-249" type="line"/>
			<point x="-319" y="40" type="line"/>
			<point x="-491" y="42" type="line"/>
		</contour>
		<contour>
			<point x="21" y="-604" type="curve"/>
			<point x="36" y="-446" type="line"/>
			<point x="-198" y="-227"/>
			<point x="-420" y="-119"/>
			<point x="-657" y="-119" type="curve" smooth="yes"/>
			<point x="-881" y="-119"/>
			<point x="-1003" y="-204"/>
			<point x="-1003" y="-359" type="curve" smooth="yes"/>
			<point x="-1003" y="-507"/>
			<point x="-892" y="-590"/>
			<point x="-686" y="-590" type="curve" smooth="yes"/>
			<point x="-459" y="-590"/>
			<point x="-339" y="-478"/>
			<point x="-339" y="-311" type="curve" smooth="yes"/>
			<point x="-339" y="-245" type="line"/>
			<point x="-495" y="-213" type="line"/>
			<point x="-495" y="-291" type="line" smooth="yes"/>
			<point x="-495" y="-393"/>
			<point x="-554" y="-454"/>
			<point x="-686" y="-454" type="curve" smooth="yes"/>
			<point x="-788" y="-454"/>
			<point x="-840" y="-420"/>
			<point x="-840" y="-361" type="curve" smooth="yes"/>
			<point x="-840" y="-295"/>
			<point x="-777" y="-257"/>
			<point x="-646" y="-257" type="curve" smooth="yes"/>
			<point x="-454" y="-257"/>
			<point x="-240" y="-361"/>
		</contour>
	</outline>
</glyph>
<glyph name="SignUu.bn" format="2">
	<advance width="0"/>
	<unicode hex="09C2"/>
	<anchor x="282" y="0" name="_bottom1"/>
	<outline>
		<contour>
			<point x="282" y="-265" type="line"/>
			<point x="282" y="40" type="line"/>
			<point x="110" y="42" type="line"/>
			<point x="110" y="-205" type="line"/>
		</contour>
		<contour>
			<point x="633" y="-701" type="line"/>
			<point x="648" y="-552" type="line"/>
			<point x="292" y="-380" type="line"/>
			<point x="215" y="-427"/>
			<point x="132" y="-457"/>
			<point x="27" y="-457" type="curve" smooth="yes"/>
			<point x="-90" y="-457"/>
			<point x="-150" y="-425"/>
			<point x="-150" y="-363" type="curve" smooth="yes"/>
			<point x="-150" y="-285"/>
			<point x="-67" y="-258"/>
			<point x="43" y="-258" type="curve" smooth="yes"/>
			<point x="103" y="-258"/>
			<point x="214" y="-260"/>
			<point x="282" y="-265" type="curve"/>
			<point x="208" y="-140" type="line"/>
			<point x="156" y="-127"/>
			<point x="77" y="-119"/>
			<point x="14" y="-119" type="curve" smooth="yes"/>
			<point x="-190" y="-119"/>
			<point x="-324" y="-199"/>
			<point x="-324" y="-357" type="curve" smooth="yes"/>
			<point x="-324" y="-511"/>
			<point x="-206" y="-600"/>
			<point x="21" y="-600" type="curve" smooth="yes"/>
			<point x="151" y="-600"/>
			<point x="252" y="-560"/>
			<point x="332" y="-509" type="curve"/>
			<point x="225" y="-497" type="line"/>
		</contour>
	</outline>
</glyph>
<glyph name="SignRu.bn" format="2">
  <unicode hex="09C3"/>
  <anchor x="438" y="0" name="_bottom1"/>
  <outline>
    <contour>
      <point x="438" y="-202" type="line"/>
      <point x="438" y="40" type="line"/>
      <point x="266" y="42" type="line"/>
      <point x="266" y="-151" type="line"/>
    </contour>
    <contour>
      <point x="545" y="-675" type="line"/>
      <point x="558" y="-527" type="line"/>
      <point x="41" y="-352" type="line"/>
      <point x="41" y="-346" type="line"/>
      <point x="126" y="-312"/>
      <point x="323" y="-241"/>
      <point x="438" y="-202" type="curve"/>
      <point x="371" y="-62" type="line"/>
      <point x="186" y="-127"/>
      <point x="-52" y="-215"/>
      <point x="-175" y="-273" type="curve"/>
      <point x="-175" y="-421" type="line"/>
    </contour>
  </outline>
</glyph>
<glyph name="SignRuu.bn" format="2">
	<advance width="0"/>
	<unicode hex="09C4"/>
	<anchor x="-116" y="185" name="_bottom1"/>
	<outline>
		<contour>
			<point x="-186" y="-572" type="curve"/>
			<point x="-361" y="-473" type="line"/>
			<point x="-501" y="-524"/>
			<point x="-644" y="-579"/>
			<point x="-729" y="-619" type="curve"/>
			<point x="-729" y="-768" type="line"/>
			<point x="-9" y="-1022" type="line"/>
			<point x="4" y="-873" type="line"/>
			<point x="-513" y="-699" type="line"/>
			<point x="-513" y="-693" type="line"/>
			<point x="-442" y="-664"/>
			<point x="-300" y="-612"/>
		</contour>
		<contour>
			<point x="-116" y="-202" type="line"/>
			<point x="-116" y="40" type="line"/>
			<point x="-288" y="42" type="line"/>
			<point x="-288" y="-151" type="line"/>
		</contour>
		<contour>
			<point x="-9" y="-675" type="line"/>
			<point x="4" y="-527" type="line"/>
			<point x="-513" y="-352" type="line"/>
			<point x="-513" y="-346" type="line"/>
			<point x="-428" y="-312"/>
			<point x="-231" y="-241"/>
			<point x="-116" y="-202" type="curve"/>
			<point x="-183" y="-62" type="line"/>
			<point x="-368" y="-127"/>
			<point x="-606" y="-215"/>
			<point x="-729" y="-273" type="curve"/>
			<point x="-729" y="-421" type="line"/>
		</contour>
	</outline>
</glyph>
<glyph name="SignE.bn" format="2">
  <advance width="670"/>
  <unicode hex="09C7"/>
  <outline>
    <contour>
      <point x="622" y="1127" type="curve"/>
      <point x="517" y="1203" type="line"/>
      <point x="255" y="1115"/>
      <point x="121" y="927"/>
      <point x="121" y="611" type="curve" smooth="yes"/>
      <point x="121" y="505" type="line" smooth="yes"/>
      <point x="121" y="193"/>
      <point x="284" y="-7"/>
      <point x="551" y="-36" type="curve" smooth="yes"/>
      <point x="588" y="-40" type="line"/>
      <point x="608" y="117" type="line"/>
      <point x="578" y="122" type="line" smooth="yes"/>
      <point x="413" y="149"/>
      <point x="307" y="258"/>
      <point x="307" y="512" type="curve" smooth="yes"/>
      <point x="307" y="620" type="line" smooth="yes"/>
      <point x="307" y="889"/>
      <point x="419" y="1056"/>
    </contour>
    <contour>
      <point x="-72" y="1102" type="line"/>
      <point x="832" y="1102" type="line"/>
      <point x="822" y="1259" type="line"/>
      <point x="-83" y="1259" type="line"/>
    </contour>
  </outline>
</glyph>
<glyph name="SignAi.bn" format="2">
	<advance width="687"/>
	<unicode hex="09C8"/>
	<anchor x="284" y="1526" name="top"/>
	<anchor x="460" y="1603" name="top2"/>
	<outline>
		<contour>
			<point x="639" y="1127" type="curve"/>
			<point x="534" y="1203" type="line"/>
			<point x="272" y="1115"/>
			<point x="138" y="927"/>
			<point x="138" y="611" type="curve" smooth="yes"/>
			<point x="138" y="505" type="line" smooth="yes"/>
			<point x="138" y="193"/>
			<point x="301" y="-7"/>
			<point x="568" y="-36" type="curve" smooth="yes"/>
			<point x="605" y="-40" type="line"/>
			<point x="625" y="117" type="line"/>
			<point x="595" y="122" type="line" smooth="yes"/>
			<point x="430" y="149"/>
			<point x="324" y="258"/>
			<point x="324" y="512" type="curve" smooth="yes"/>
			<point x="324" y="620" type="line" smooth="yes"/>
			<point x="324" y="889"/>
			<point x="436" y="1056"/>
		</contour>
		<contour>
			<point x="-55" y="1102" type="line"/>
			<point x="849" y="1102" type="line"/>
			<point x="839" y="1259" type="line"/>
			<point x="-66" y="1259" type="line"/>
		</contour>
		<contour>
			<point x="676" y="1295" type="line"/>
			<point x="683" y="1315"/>
			<point x="686" y="1336"/>
			<point x="686" y="1359" type="curve" smooth="yes"/>
			<point x="686" y="1538"/>
			<point x="571" y="1618"/>
			<point x="364" y="1618" type="curve" smooth="yes"/>
			<point x="250" y="1618" type="line" smooth="yes"/>
			<point x="132" y="1618"/>
			<point x="82" y="1655"/>
			<point x="75" y="1742" type="curve" smooth="yes"/>
			<point x="73" y="1767" type="line"/>
			<point x="-89" y="1767" type="line"/>
			<point x="-89" y="1737" type="line" smooth="yes"/>
			<point x="-89" y="1551"/>
			<point x="19" y="1463"/>
			<point x="245" y="1463" type="curve" smooth="yes"/>
			<point x="341" y="1463" type="line" smooth="yes"/>
			<point x="461" y="1463"/>
			<point x="513" y="1428"/>
			<point x="513" y="1340" type="curve" smooth="yes"/>
			<point x="513" y="1299"/>
			<point x="503" y="1264"/>
			<point x="485" y="1235" type="curve"/>
			<point x="539" y="1239" type="line"/>
		</contour>
	</outline>
</glyph>
<glyph name="SignO.bn" format="2">
  <advance width="1504"/>
  <unicode hex="09CB"/>
  <anchor x="1127" y="1426" name="top"/>
  <anchor x="908" y="1749" name="top2"/>
  <outline>
    <contour>
      <point x="727" y="1259" type="line"/>
      <point x="727" y="1102" type="line"/>
      <point x="1023" y="1102" type="line"/>
      <point x="1023" y="1259" type="line"/>
    </contour>
    <contour>
      <point x="622" y="1127" type="curve"/>
      <point x="517" y="1203" type="line"/>
      <point x="255" y="1115"/>
      <point x="121" y="927"/>
      <point x="121" y="611" type="curve" smooth="yes"/>
      <point x="121" y="505" type="line" smooth="yes"/>
      <point x="121" y="193"/>
      <point x="284" y="-7"/>
      <point x="551" y="-36" type="curve" smooth="yes"/>
      <point x="588" y="-40" type="line"/>
      <point x="608" y="117" type="line"/>
      <point x="578" y="122" type="line" smooth="yes"/>
      <point x="413" y="149"/>
      <point x="307" y="258"/>
      <point x="307" y="512" type="curve" smooth="yes"/>
      <point x="307" y="620" type="line" smooth="yes"/>
      <point x="307" y="889"/>
      <point x="419" y="1056"/>
    </contour>
    <contour>
      <point x="-72" y="1102" type="line"/>
      <point x="832" y="1102" type="line"/>
      <point x="822" y="1259" type="line"/>
      <point x="-83" y="1259" type="line"/>
    </contour>
    <contour>
      <point x="1146" y="0" type="line"/>
      <point x="1332" y="0" type="line"/>
      <point x="1332" y="1157" type="line"/>
      <point x="1146" y="1157" type="line"/>
    </contour>
    <contour>
      <point x="933" y="1104" type="line"/>
      <point x="1322" y="1104" type="line"/>
      <point x="1322" y="1259" type="line"/>
      <point x="922" y="1259" type="line"/>
    </contour>
    <contour>
      <point x="1253" y="1190" type="line"/>
      <point x="1253" y="834" type="line"/>
      <point x="1332" y="834" type="line"/>
      <point x="1332" y="1190" type="line"/>
    </contour>
    <contour>
      <point x="1253" y="1104" type="line"/>
      <point x="1555" y="1104" type="line"/>
      <point x="1544" y="1259" type="line"/>
      <point x="1253" y="1259" type="line"/>
    </contour>
  </outline>
</glyph>
<glyph name="SignAu.bn" format="2">
	<advance width="1441"/>
	<unicode hex="09CC"/>
	<anchor x="298" y="1526" name="top"/>
	<anchor x="474" y="1603" name="top2"/>
	<outline>
		<contour>
			<point x="684" y="1259" type="line"/>
			<point x="684" y="1104" type="line"/>
			<point x="1003" y="1104" type="line"/>
			<point x="1003" y="1259" type="line"/>
		</contour>
		<contour>
			<point x="616" y="1127" type="curve"/>
			<point x="511" y="1203" type="line"/>
			<point x="249" y="1115"/>
			<point x="115" y="927"/>
			<point x="115" y="611" type="curve" smooth="yes"/>
			<point x="115" y="505" type="line" smooth="yes"/>
			<point x="115" y="193"/>
			<point x="278" y="-7"/>
			<point x="545" y="-36" type="curve" smooth="yes"/>
			<point x="582" y="-40" type="line"/>
			<point x="602" y="117" type="line"/>
			<point x="572" y="122" type="line" smooth="yes"/>
			<point x="407" y="149"/>
			<point x="301" y="258"/>
			<point x="301" y="512" type="curve" smooth="yes"/>
			<point x="301" y="620" type="line" smooth="yes"/>
			<point x="301" y="889"/>
			<point x="413" y="1056"/>
		</contour>
		<contour>
			<point x="-78" y="1102" type="line"/>
			<point x="826" y="1102" type="line"/>
			<point x="816" y="1259" type="line"/>
			<point x="-89" y="1259" type="line"/>
		</contour>
		<contour>
			<point x="1083" y="0" type="line"/>
			<point x="1269" y="0" type="line"/>
			<point x="1269" y="1157" type="line"/>
			<point x="1083" y="1157" type="line"/>
		</contour>
		<contour>
			<point x="870" y="1104" type="line"/>
			<point x="1259" y="1104" type="line"/>
			<point x="1259" y="1259" type="line"/>
			<point x="859" y="1259" type="line"/>
		</contour>
		<contour>
			<point x="1190" y="1190" type="line"/>
			<point x="1190" y="834" type="line"/>
			<point x="1269" y="834" type="line"/>
			<point x="1269" y="1190" type="line"/>
		</contour>
		<contour>
			<point x="1190" y="1104" type="line"/>
			<point x="1492" y="1104" type="line"/>
			<point x="1481" y="1259" type="line"/>
			<point x="1190" y="1259" type="line"/>
		</contour>
		<contour>
			<point x="690" y="1295" type="line"/>
			<point x="697" y="1315"/>
			<point x="700" y="1336"/>
			<point x="700" y="1359" type="curve" smooth="yes"/>
			<point x="700" y="1538"/>
			<point x="585" y="1618"/>
			<point x="378" y="1618" type="curve" smooth="yes"/>
			<point x="264" y="1618" type="line" smooth="yes"/>
			<point x="146" y="1618"/>
			<point x="96" y="1655"/>
			<point x="89" y="1742" type="curve" smooth="yes"/>
			<point x="87" y="1767" type="line"/>
			<point x="-75" y="1767" type="line"/>
			<point x="-75" y="1737" type="line" smooth="yes"/>
			<point x="-75" y="1551"/>
			<point x="33" y="1463"/>
			<point x="259" y="1463" type="curve" smooth="yes"/>
			<point x="355" y="1463" type="line" smooth="yes"/>
			<point x="475" y="1463"/>
			<point x="527" y="1428"/>
			<point x="527" y="1340" type="curve" smooth="yes"/>
			<point x="527" y="1299"/>
			<point x="517" y="1264"/>
			<point x="499" y="1235" type="curve"/>
			<point x="553" y="1239" type="line"/>
		</contour>
	</outline>
</glyph>
<glyph name="Hasant.bn" format="2">
  <unicode hex="09CD"/>
  <anchor x="-70" y="21" name="_bottom1"/>
  <outline>
    <contour>
      <point x="578" y="-402" type="line"/>
      <point x="7" y="-82" type="line"/>
      <point x="-3" y="-261" type="line"/>
      <point x="568" y="-567" type="line"/>
    </contour>
  </outline>
</glyph>
<glyph name="KhandaTa.bn" format="2">
  <advance width="1123"/>
  <unicode hex="09CE"/>
  <outline>
    <contour>
      <point x="836" y="-2" type="curve"/>
      <point x="1022" y="-2" type="line"/>
      <point x="1025" y="30"/>
      <point x="1027" y="60"/>
      <point x="1027" y="91" type="curve" smooth="yes"/>
      <point x="1027" y="245"/>
      <point x="930" y="369"/>
      <point x="679" y="457" type="curve" smooth="yes"/>
      <point x="520" y="513" type="line" smooth="yes"/>
      <point x="367" y="567"/>
      <point x="298" y="643"/>
      <point x="298" y="795" type="curve" smooth="yes"/>
      <point x="298" y="884" type="line" smooth="yes"/>
      <point x="298" y="1044"/>
      <point x="386" y="1124"/>
      <point x="537" y="1124" type="curve" smooth="yes"/>
      <point x="690" y="1124"/>
      <point x="770" y="1053"/>
      <point x="770" y="908" type="curve" smooth="yes"/>
      <point x="770" y="862" type="line" smooth="yes"/>
      <point x="770" y="764"/>
      <point x="722" y="716"/>
      <point x="619" y="716" type="curve" smooth="yes"/>
      <point x="579" y="716" type="line"/>
      <point x="593" y="555" type="line"/>
      <point x="653" y="555" type="line" smooth="yes"/>
      <point x="858" y="555"/>
      <point x="958" y="655"/>
      <point x="958" y="852" type="curve" smooth="yes"/>
      <point x="958" y="905" type="line" smooth="yes"/>
      <point x="958" y="1148"/>
      <point x="809" y="1279"/>
      <point x="535" y="1279" type="curve" smooth="yes"/>
      <point x="262" y="1279"/>
      <point x="111" y="1138"/>
      <point x="111" y="886" type="curve" smooth="yes"/>
      <point x="111" y="797" type="line" smooth="yes"/>
      <point x="111" y="579"/>
      <point x="215" y="461"/>
      <point x="453" y="375" type="curve" smooth="yes"/>
      <point x="611" y="318" type="line" smooth="yes"/>
      <point x="783" y="256"/>
      <point x="841" y="179"/>
      <point x="841" y="81" type="curve" smooth="yes"/>
      <point x="841" y="57"/>
      <point x="840" y="30"/>
    </contour>
  </outline>
</glyph>
<glyph name="SignAuMark.bn" format="2">
  <advance width="532"/>
  <unicode hex="09D7"/>
  <anchor x="3" y="1525" name="top"/>
  <anchor x="179" y="1602" name="top2"/>
  <outline>
    <contour>
      <point x="174" y="-1" type="line"/>
      <point x="360" y="-1" type="line"/>
      <point x="360" y="1156" type="line"/>
      <point x="174" y="1156" type="line"/>
    </contour>
    <contour>
      <point x="-39" y="1103" type="line"/>
      <point x="350" y="1103" type="line"/>
      <point x="350" y="1258" type="line"/>
      <point x="-50" y="1258" type="line"/>
    </contour>
    <contour>
      <point x="281" y="1189" type="line"/>
      <point x="281" y="833" type="line"/>
      <point x="360" y="833" type="line"/>
      <point x="360" y="1189" type="line"/>
    </contour>
    <contour>
      <point x="281" y="1103" type="line"/>
      <point x="583" y="1103" type="line"/>
      <point x="572" y="1258" type="line"/>
      <point x="281" y="1258" type="line"/>
    </contour>
    <contour>
      <point x="395" y="1294" type="line"/>
      <point x="402" y="1314"/>
      <point x="405" y="1335"/>
      <point x="405" y="1358" type="curve" smooth="yes"/>
      <point x="405" y="1537"/>
      <point x="290" y="1617"/>
      <point x="83" y="1617" type="curve" smooth="yes"/>
      <point x="-31" y="1617" type="line" smooth="yes"/>
      <point x="-149" y="1617"/>
      <point x="-199" y="1654"/>
      <point x="-206" y="1741" type="curve" smooth="yes"/>
      <point x="-208" y="1766" type="line"/>
      <point x="-370" y="1766" type="line"/>
      <point x="-370" y="1736" type="line" smooth="yes"/>
      <point x="-370" y="1550"/>
      <point x="-262" y="1462"/>
      <point x="-36" y="1462" type="curve" smooth="yes"/>
      <point x="60" y="1462" type="line" smooth="yes"/>
      <point x="180" y="1462"/>
      <point x="232" y="1427"/>
      <point x="232" y="1339" type="curve" smooth="yes"/>
      <point x="232" y="1298"/>
      <point x="222" y="1263"/>
      <point x="204" y="1234" type="curve"/>
      <point x="258" y="1238" type="line"/>
    </contour>
  </outline>
</glyph>
<glyph name="Yya.bn" format="2">
	<advance width="1297"/>
	<unicode hex="09DF"/>
	<anchor x="1125" y="-2" name="bottom1"/>
	<anchor x="920" y="1426" name="top"/>
	<anchor x="701" y="1749" name="top2"/>
	<outline>
		<contour>
			<point x="460" y="-202" type="curve" smooth="yes"/>
			<point x="539" y="-202"/>
			<point x="577" y="-156"/>
			<point x="577" y="-82" type="curve" smooth="yes"/>
			<point x="577" y="-75" type="line" smooth="yes"/>
			<point x="577" y="0"/>
			<point x="539" y="46"/>
			<point x="460" y="46" type="curve" smooth="yes"/>
			<point x="382" y="46"/>
			<point x="343" y="0"/>
			<point x="343" y="-75" type="curve" smooth="yes"/>
			<point x="343" y="-82" type="line" smooth="yes"/>
			<point x="343" y="-156"/>
			<point x="382" y="-202"/>
		</contour>
		<contour>
			<point x="965" y="-2" type="line"/>
			<point x="1125" y="-2" type="line"/>
			<point x="1125" y="1202" type="line"/>
			<point x="939" y="1202" type="line"/>
			<point x="939" y="306" type="line"/>
			<point x="947" y="121" type="line"/>
			<point x="962" y="171" type="line"/>
			<point x="316" y="416" type="line"/>
			<point x="348" y="344" type="line"/>
			<point x="348" y="583" type="line"/>
			<point x="312" y="507" type="line"/>
			<point x="692" y="671" type="line"/>
			<point x="692" y="843" type="line"/>
			<point x="524" y="955"/>
			<point x="347" y="1078"/>
			<point x="163" y="1190" type="curve"/>
			<point x="94" y="1182" type="line"/>
			<point x="94" y="1002" type="line"/>
			<point x="508" y="782" type="line"/>
			<point x="508" y="772" type="line"/>
			<point x="162" y="624" type="line"/>
			<point x="162" y="301" type="line"/>
		</contour>
		<contour>
			<point x="-75" y="1104" type="line"/>
			<point x="1089" y="1104" type="line"/>
			<point x="1089" y="1259" type="line"/>
			<point x="-86" y="1259" type="line"/>
		</contour>
		<contour>
			<point x="1046" y="1190" type="line"/>
			<point x="1046" y="834" type="line"/>
			<point x="1125" y="834" type="line"/>
			<point x="1125" y="1190" type="line"/>
		</contour>
		<contour>
			<point x="1046" y="1104" type="line"/>
			<point x="1348" y="1104" type="line"/>
			<point x="1337" y="1259" type="line"/>
			<point x="1046" y="1259" type="line"/>
		</contour>
	</outline>
</glyph>
<glyph name="VowelRuu.bn" format="2">
	<advance width="1702"/>
	<unicode hex="09E0"/>
	<anchor x="633" y="1749" name="top2"/>
	<outline>
		<contour>
			<point x="901" y="-399" type="line"/>
			<point x="914" y="-248" type="line"/>
			<point x="397" y="-55" type="line"/>
			<point x="397" y="-52" type="line"/>
			<point x="472" y="-18"/>
			<point x="634" y="49"/>
			<point x="750" y="94" type="curve"/>
			<point x="655" y="223" type="line"/>
			<point x="484" y="157"/>
			<point x="289" y="76"/>
			<point x="181" y="21" type="curve"/>
			<point x="181" y="-127" type="line"/>
		</contour>
		<contour>
			<point x="913" y="-2" type="line"/>
			<point x="1073" y="-2" type="line"/>
			<point x="1073" y="1259" type="line"/>
			<point x="896" y="1259" type="line"/>
			<point x="896" y="1050" type="line"/>
			<point x="904" y="869" type="line"/>
			<point x="888" y="820" type="line"/>
			<point x="888" y="306" type="line"/>
			<point x="897" y="121" type="line"/>
			<point x="912" y="172" type="line"/>
			<point x="309" y="416" type="line"/>
			<point x="350" y="331" type="line"/>
			<point x="350" y="603" type="line"/>
			<point x="300" y="541" type="line"/>
			<point x="511" y="624"/>
			<point x="759" y="708"/>
			<point x="1005" y="781" type="curve"/>
			<point x="974" y="934" type="line"/>
			<point x="910" y="917"/>
			<point x="848" y="900"/>
			<point x="785" y="882" type="curve"/>
			<point x="767" y="883" type="line"/>
			<point x="547" y="813"/>
			<point x="342" y="737"/>
			<point x="166" y="666" type="curve"/>
			<point x="166" y="300" type="line"/>
		</contour>
		<contour>
			<point x="705" y="825" type="curve"/>
			<point x="854" y="870" type="line"/>
			<point x="793" y="1000"/>
			<point x="727" y="1130"/>
			<point x="657" y="1257" type="curve"/>
			<point x="532" y="1264" type="line"/>
			<point x="469" y="1151" type="line" smooth="yes"/>
			<point x="426" y="1074"/>
			<point x="380" y="1042"/>
			<point x="301" y="1042" type="curve" smooth="yes"/>
			<point x="218" y="1042"/>
			<point x="175" y="1084"/>
			<point x="173" y="1169" type="curve" smooth="yes"/>
			<point x="171" y="1259" type="line"/>
			<point x="2" y="1259" type="line"/>
			<point x="2" y="1171" type="line" smooth="yes"/>
			<point x="2" y="985"/>
			<point x="105" y="884"/>
			<point x="295" y="884" type="curve" smooth="yes"/>
			<point x="417" y="884"/>
			<point x="513" y="937"/>
			<point x="572" y="1047" type="curve" smooth="yes"/>
			<point x="630" y="1155" type="line"/>
			<point x="536" y="1129" type="line"/>
			<point x="597" y="1024"/>
			<point x="651" y="930"/>
		</contour>
		<contour>
			<point x="1389" y="115" type="line"/>
			<point x="1546" y="115" type="line"/>
			<point x="1546" y="1259" type="line"/>
			<point x="1364" y="1259" type="line"/>
			<point x="1364" y="421" type="line"/>
			<point x="1372" y="236" type="line"/>
			<point x="1385" y="297" type="line"/>
			<point x="981" y="504" type="line"/>
			<point x="960" y="336" type="line"/>
		</contour>
	</outline>
</glyph>
<glyph name="VowelLruu.bn" format="2">
	<advance width="1442"/>
	<unicode hex="09E1"/>
	<anchor x="577" y="1536" name="top2"/>
	<outline>
		<contour>
			<point x="949" y="138" type="curve"/>
			<point x="874" y="15" type="line"/>
			<point x="1095" y="-29"/>
			<point x="1163" y="-126"/>
			<point x="1163" y="-275" type="curve" smooth="yes"/>
			<point x="1163" y="-298" type="line" smooth="yes"/>
			<point x="1163" y="-441"/>
			<point x="1079" y="-500"/>
			<point x="947" y="-500" type="curve" smooth="yes"/>
			<point x="863" y="-500" type="line"/>
			<point x="951" y="-580" type="line"/>
			<point x="951" y="-428" type="line" smooth="yes"/>
			<point x="951" y="-229"/>
			<point x="832" y="-118"/>
			<point x="636" y="-118" type="curve" smooth="yes"/>
			<point x="427" y="-118"/>
			<point x="325" y="-229"/>
			<point x="325" y="-432" type="curve" smooth="yes"/>
			<point x="325" y="-498" type="line" smooth="yes"/>
			<point x="325" y="-547"/>
			<point x="325" y="-595"/>
			<point x="325" y="-639" type="curve"/>
			<point x="486" y="-639" type="line"/>
			<point x="486" y="-595"/>
			<point x="486" y="-542"/>
			<point x="486" y="-490" type="curve" smooth="yes"/>
			<point x="486" y="-428" type="line" smooth="yes"/>
			<point x="486" y="-316"/>
			<point x="542" y="-265"/>
			<point x="641" y="-265" type="curve" smooth="yes"/>
			<point x="736" y="-265"/>
			<point x="797" y="-315"/>
			<point x="797" y="-430" type="curve" smooth="yes"/>
			<point x="797" y="-639" type="line"/>
			<point x="945" y="-639" type="line" smooth="yes"/>
			<point x="1188" y="-639"/>
			<point x="1339" y="-522"/>
			<point x="1339" y="-303" type="curve" smooth="yes"/>
			<point x="1339" y="-271" type="line" smooth="yes"/>
			<point x="1339" y="-55"/>
			<point x="1230" y="68"/>
		</contour>
		<contour>
			<point x="121" y="0" type="curve"/>
			<point x="305" y="0" type="line"/>
			<point x="305" y="64"/>
			<point x="305" y="138"/>
			<point x="305" y="209" type="curve" smooth="yes"/>
			<point x="305" y="311" type="line" smooth="yes"/>
			<point x="305" y="447"/>
			<point x="368" y="514"/>
			<point x="488" y="514" type="curve" smooth="yes"/>
			<point x="604" y="514"/>
			<point x="665" y="446"/>
			<point x="665" y="309" type="curve" smooth="yes"/>
			<point x="665" y="0" type="line"/>
			<point x="864" y="0" type="line" smooth="yes"/>
			<point x="1143" y="0"/>
			<point x="1315" y="149"/>
			<point x="1315" y="418" type="curve" smooth="yes"/>
			<point x="1315" y="472" type="line" smooth="yes"/>
			<point x="1315" y="782"/>
			<point x="1154" y="951"/>
			<point x="789" y="1022" type="curve" smooth="yes"/>
			<point x="594" y="1060" type="line" smooth="yes"/>
			<point x="400" y="1098"/>
			<point x="346" y="1154"/>
			<point x="346" y="1261" type="curve" smooth="yes"/>
			<point x="346" y="1277" type="line"/>
			<point x="169" y="1277" type="line"/>
			<point x="169" y="1256" type="line" smooth="yes"/>
			<point x="169" y="1073"/>
			<point x="270" y="962"/>
			<point x="539" y="911" type="curve" smooth="yes"/>
			<point x="733" y="874" type="line" smooth="yes"/>
			<point x="1012" y="821"/>
			<point x="1128" y="702"/>
			<point x="1128" y="474" type="curve" smooth="yes"/>
			<point x="1128" y="424" type="line" smooth="yes"/>
			<point x="1128" y="238"/>
			<point x="1027" y="153"/>
			<point x="865" y="153" type="curve" smooth="yes"/>
			<point x="758" y="153" type="line"/>
			<point x="842" y="66" type="line"/>
			<point x="842" y="310" type="line" smooth="yes"/>
			<point x="842" y="551"/>
			<point x="710" y="678"/>
			<point x="477" y="678" type="curve" smooth="yes"/>
			<point x="249" y="678"/>
			<point x="121" y="547"/>
			<point x="121" y="312" type="curve" smooth="yes"/>
			<point x="121" y="208" type="line" smooth="yes"/>
			<point x="121" y="138"/>
			<point x="121" y="67"/>
		</contour>
	</outline>
</glyph>
<glyph name="SignLru.bn" format="2">
  <advance width="1199"/>
  <unicode hex="09E2"/>
  <outline>
    <contour>
      <point x="407" y="-718" type="curve"/>
      <point x="534" y="-718" type="line"/>
      <point x="534" y="-680"/>
      <point x="534" y="-635"/>
      <point x="534" y="-593" type="curve" smooth="yes"/>
      <point x="534" y="-523" type="line" smooth="yes"/>
      <point x="534" y="-447"/>
      <point x="569" y="-409"/>
      <point x="633" y="-409" type="curve" smooth="yes"/>
      <point x="694" y="-409"/>
      <point x="732" y="-445"/>
      <point x="732" y="-524" type="curve" smooth="yes"/>
      <point x="732" y="-719" type="line"/>
      <point x="851" y="-719" type="line" smooth="yes"/>
      <point x="1020" y="-719"/>
      <point x="1125" y="-634"/>
      <point x="1125" y="-486" type="curve" smooth="yes"/>
      <point x="1125" y="-418" type="line" smooth="yes"/>
      <point x="1125" y="-239"/>
      <point x="1027" y="-144"/>
      <point x="809" y="-95" type="curve" smooth="yes"/>
      <point x="702" y="-74" type="line" smooth="yes"/>
      <point x="587" y="-45"/>
      <point x="560" y="-18"/>
      <point x="558" y="43" type="curve" smooth="yes"/>
      <point x="557" y="53" type="line"/>
      <point x="433" y="53" type="line"/>
      <point x="433" y="40" type="line" smooth="yes"/>
      <point x="433" y="-70"/>
      <point x="494" y="-131"/>
      <point x="658" y="-172" type="curve" smooth="yes"/>
      <point x="764" y="-192" type="line" smooth="yes"/>
      <point x="928" y="-231"/>
      <point x="995" y="-291"/>
      <point x="995" y="-417" type="curve" smooth="yes"/>
      <point x="995" y="-482" type="line" smooth="yes"/>
      <point x="995" y="-573"/>
      <point x="940" y="-615"/>
      <point x="853" y="-615" type="curve" smooth="yes"/>
      <point x="788" y="-615" type="line"/>
      <point x="846" y="-674" type="line"/>
      <point x="846" y="-523" type="line" smooth="yes"/>
      <point x="846" y="-378"/>
      <point x="764" y="-304"/>
      <point x="627" y="-304" type="curve" smooth="yes"/>
      <point x="476" y="-304"/>
      <point x="407" y="-384"/>
      <point x="407" y="-525" type="curve" smooth="yes"/>
      <point x="407" y="-593" type="line" smooth="yes"/>
      <point x="407" y="-636"/>
      <point x="407" y="-679"/>
    </contour>
  </outline>
</glyph>
<glyph name="SignLruu.bn" format="2">
	<advance width="1210"/>
	<unicode hex="09E3"/>
	<anchor x="581" y="-120" name="top2"/>
	<outline>
		<contour>
			<point x="912" y="-624" type="curve"/>
			<point x="862" y="-710" type="line"/>
			<point x="985" y="-736"/>
			<point x="1027" y="-788"/>
			<point x="1027" y="-867" type="curve" smooth="yes"/>
			<point x="1027" y="-912" type="line" smooth="yes"/>
			<point x="1027" y="-975"/>
			<point x="983" y="-1005"/>
			<point x="914" y="-1005" type="curve" smooth="yes"/>
			<point x="858" y="-1005" type="line"/>
			<point x="913" y="-1061" type="line"/>
			<point x="913" y="-972" type="line" smooth="yes"/>
			<point x="913" y="-848"/>
			<point x="842" y="-783"/>
			<point x="726" y="-783" type="curve" smooth="yes"/>
			<point x="600" y="-783"/>
			<point x="539" y="-852"/>
			<point x="539" y="-975" type="curve" smooth="yes"/>
			<point x="539" y="-1017" type="line" smooth="yes"/>
			<point x="539" y="-1046"/>
			<point x="539" y="-1076"/>
			<point x="539" y="-1101" type="curve"/>
			<point x="650" y="-1101" type="line"/>
			<point x="650" y="-1075"/>
			<point x="650" y="-1042"/>
			<point x="650" y="-1011" type="curve" smooth="yes"/>
			<point x="650" y="-973" type="line" smooth="yes"/>
			<point x="650" y="-913"/>
			<point x="680" y="-885"/>
			<point x="731" y="-885" type="curve" smooth="yes"/>
			<point x="782" y="-885"/>
			<point x="813" y="-912"/>
			<point x="813" y="-974" type="curve" smooth="yes"/>
			<point x="813" y="-1101" type="line"/>
			<point x="911" y="-1101" type="line" smooth="yes"/>
			<point x="1058" y="-1101"/>
			<point x="1149" y="-1031"/>
			<point x="1149" y="-915" type="curve" smooth="yes"/>
			<point x="1149" y="-864" type="line" smooth="yes"/>
			<point x="1149" y="-740"/>
			<point x="1082" y="-668"/>
		</contour>
		<contour>
			<point x="414" y="-718" type="curve"/>
			<point x="541" y="-718" type="line"/>
			<point x="541" y="-680"/>
			<point x="541" y="-635"/>
			<point x="541" y="-593" type="curve" smooth="yes"/>
			<point x="541" y="-523" type="line" smooth="yes"/>
			<point x="541" y="-447"/>
			<point x="576" y="-409"/>
			<point x="640" y="-409" type="curve" smooth="yes"/>
			<point x="701" y="-409"/>
			<point x="739" y="-445"/>
			<point x="739" y="-524" type="curve" smooth="yes"/>
			<point x="739" y="-719" type="line"/>
			<point x="858" y="-719" type="line" smooth="yes"/>
			<point x="1027" y="-719"/>
			<point x="1132" y="-634"/>
			<point x="1132" y="-486" type="curve" smooth="yes"/>
			<point x="1132" y="-418" type="line" smooth="yes"/>
			<point x="1132" y="-239"/>
			<point x="1034" y="-144"/>
			<point x="816" y="-95" type="curve" smooth="yes"/>
			<point x="709" y="-74" type="line" smooth="yes"/>
			<point x="594" y="-45"/>
			<point x="567" y="-18"/>
			<point x="565" y="43" type="curve" smooth="yes"/>
			<point x="564" y="53" type="line"/>
			<point x="440" y="53" type="line"/>
			<point x="440" y="40" type="line" smooth="yes"/>
			<point x="440" y="-70"/>
			<point x="501" y="-131"/>
			<point x="665" y="-172" type="curve" smooth="yes"/>
			<point x="771" y="-192" type="line" smooth="yes"/>
			<point x="935" y="-231"/>
			<point x="1002" y="-291"/>
			<point x="1002" y="-417" type="curve" smooth="yes"/>
			<point x="1002" y="-482" type="line" smooth="yes"/>
			<point x="1002" y="-573"/>
			<point x="947" y="-615"/>
			<point x="860" y="-615" type="curve" smooth="yes"/>
			<point x="795" y="-615" type="line"/>
			<point x="853" y="-674" type="line"/>
			<point x="853" y="-523" type="line" smooth="yes"/>
			<point x="853" y="-378"/>
			<point x="771" y="-304"/>
			<point x="634" y="-304" type="curve" smooth="yes"/>
			<point x="483" y="-304"/>
			<point x="414" y="-384"/>
			<point x="414" y="-525" type="curve" smooth="yes"/>
			<point x="414" y="-593" type="line" smooth="yes"/>
			<point x="414" y="-636"/>
			<point x="414" y="-679"/>
		</contour>
	</outline>
</glyph>
<glyph name="Zero.bn" format="2">
	<advance width="1203"/>
	<unicode hex="09E6"/>
	<outline>
		<contour>
			<point x="603" y="10" type="curve" smooth="yes"/>
			<point x="910" y="10"/>
			<point x="1082" y="182"/>
			<point x="1082" y="500" type="curve" smooth="yes"/>
			<point x="1082" y="791" type="line" smooth="yes"/>
			<point x="1082" y="1109"/>
			<point x="908" y="1278"/>
			<point x="600" y="1278" type="curve" smooth="yes"/>
			<point x="294" y="1278"/>
			<point x="121" y="1111"/>
			<point x="121" y="791" type="curve" smooth="yes"/>
			<point x="121" y="500" type="line" smooth="yes"/>
			<point x="121" y="180"/>
			<point x="295" y="10"/>
		</contour>
		<contour>
			<point x="601" y="168" type="curve" smooth="yes"/>
			<point x="415" y="168"/>
			<point x="308" y="277"/>
			<point x="308" y="495" type="curve" smooth="yes"/>
			<point x="308" y="796" type="line" smooth="yes"/>
			<point x="308" y="1013"/>
			<point x="415" y="1120"/>
			<point x="601" y="1120" type="curve" smooth="yes"/>
			<point x="791" y="1120"/>
			<point x="896" y="1014"/>
			<point x="896" y="796" type="curve" smooth="yes"/>
			<point x="896" y="495" type="line" smooth="yes"/>
			<point x="896" y="276"/>
			<point x="791" y="168"/>
		</contour>
	</outline>
</glyph>
